<svg xmlns="http://www.w3.org/2000/svg" xmlns:xlink="http://www.w3.org/1999/xlink" version="1.1" x="0px" y="0px" viewBox="0 0 24 30" enable-background="new 0 0 24 24" xml:space="preserve"><g><path d="M21.047,5.369c-0.005-0.033-0.007-0.067-0.02-0.098c-0.021-0.05-0.052-0.095-0.09-0.133l-4.933-4.953   c-0.037-0.037-0.081-0.067-0.129-0.087c-0.048-0.02-0.101-0.031-0.154-0.031H3.903c-0.771,0-1.4,0.628-1.4,1.4v6.05v14.139v0.877   c0,0.772,0.629,1.4,1.4,1.4h15.754c0.771,0,1.4-0.628,1.4-1.4v-4.448V9.449V5.425c0,0,0,0,0,0l0-0.001   C21.058,5.404,21.049,5.388,21.047,5.369z M16.12,1.436l3.573,3.588H16.12V1.436z M3.304,1.467c0-0.331,0.269-0.6,0.6-0.6h11.416   v4.557c0,0.221,0.18,0.4,0.4,0.4h4.537v3.226H3.628L3.304,9.048V7.517V1.467z M20.257,17.685H3.304V9.846l16.953,0.003V17.685z    M19.657,23.133H3.903c-0.331,0-0.6-0.269-0.6-0.6v-0.877v-3.171h16.953v4.048C20.257,22.864,19.988,23.133,19.657,23.133z"/><rect x="8.188" y="12.175" width="0.647" height="3.203"/><path d="M10.878,15.433c0.47,0,0.846-0.146,1.127-0.438c0.281-0.292,0.422-0.697,0.422-1.214c0-0.521-0.142-0.929-0.425-1.221   c-0.283-0.293-0.661-0.439-1.133-0.439c-0.261,0-0.491,0.042-0.69,0.127c-0.15,0.063-0.288,0.159-0.414,0.288   s-0.225,0.276-0.298,0.439C9.369,13.196,9.32,13.47,9.32,13.796c0,0.51,0.141,0.91,0.422,1.201S10.401,15.433,10.878,15.433z    M10.231,12.948c0.163-0.183,0.378-0.274,0.645-0.274s0.48,0.09,0.641,0.271s0.241,0.454,0.241,0.821   c0,0.371-0.083,0.65-0.248,0.836c-0.165,0.186-0.377,0.279-0.635,0.279s-0.47-0.094-0.638-0.281   c-0.168-0.187-0.251-0.462-0.251-0.825C9.986,13.406,10.068,13.13,10.231,12.948z"/><path d="M14.096,14.888c-0.197,0-0.353-0.049-0.469-0.149s-0.193-0.254-0.23-0.465l-0.629,0.061   c0.042,0.358,0.172,0.631,0.389,0.818c0.217,0.187,0.528,0.281,0.933,0.281c0.278,0,0.51-0.039,0.697-0.117   c0.186-0.078,0.331-0.197,0.433-0.357c0.102-0.16,0.153-0.332,0.153-0.516c0-0.202-0.043-0.372-0.128-0.51   c-0.085-0.138-0.203-0.246-0.354-0.326c-0.151-0.079-0.383-0.156-0.698-0.231c-0.315-0.074-0.513-0.146-0.594-0.214   c-0.064-0.054-0.096-0.119-0.096-0.194c0-0.083,0.034-0.149,0.103-0.199c0.106-0.077,0.253-0.116,0.441-0.116   c0.182,0,0.319,0.036,0.41,0.108c0.091,0.072,0.15,0.19,0.178,0.355l0.647-0.028c-0.01-0.294-0.117-0.529-0.32-0.706   c-0.203-0.176-0.506-0.264-0.908-0.264c-0.246,0-0.456,0.037-0.63,0.111c-0.174,0.074-0.307,0.182-0.4,0.324   c-0.093,0.142-0.139,0.295-0.139,0.458c0,0.253,0.098,0.468,0.295,0.645c0.14,0.125,0.383,0.231,0.73,0.317   c0.269,0.067,0.442,0.114,0.518,0.14c0.111,0.039,0.188,0.086,0.233,0.139s0.067,0.118,0.067,0.193   c0,0.118-0.053,0.221-0.158,0.309C14.461,14.844,14.304,14.888,14.096,14.888z"/></g><text x="0" y="39" fill="#000000" font-size="5px" font-weight="bold" font-family="'Helvetica Neue', Helvetica, Arial-Unicode, Arial, Sans-serif">Created by Atif Arshad</text><text x="0" y="44" fill="#000000" font-size="5px" font-weight="bold" font-family="'Helvetica Neue', Helvetica, Arial-Unicode, Arial, Sans-serif">from the Noun Project</text></svg>