<svg xmlns="http://www.w3.org/2000/svg" xmlns:xlink="http://www.w3.org/1999/xlink" version="1.1" x="0px" y="0px" viewBox="0 0 90 112.5" enable-background="new 0 0 90 90" xml:space="preserve"><g>
	<path fill="#000000" d="M33.361,77.795c-5.351,0-9.797,4.182-10.123,9.52l-0.065,1.061h20.38l-0.065-1.062   C43.162,81.977,38.713,77.795,33.361,77.795z M25.369,86.375c0.733-3.766,4.058-6.58,7.992-6.58c3.936,0,7.262,2.814,7.996,6.58   H25.369z"/><path fill="#000000" d="M55.782,77.795c-5.353,0-9.8,4.182-10.124,9.52l-0.064,1.061h20.38l-0.065-1.062   C65.582,81.977,61.134,77.795,55.782,77.795z M47.789,86.375c0.732-3.765,4.058-6.58,7.993-6.58c3.935,0,7.261,2.814,7.995,6.58   H47.789z"/><path fill="#000000" d="M70.719,27.141v-1.047c0-1.884-1.533-3.416-3.418-3.416h-3.953v-0.523c0-2.425-1.972-4.398-4.396-4.398   H45.5v-2.621h11.928c3.724,0,6.754-3.03,6.754-6.756c0-3.725-3.03-6.754-6.754-6.754H31.573c-3.725,0-6.756,3.029-6.756,6.754   c0,3.726,3.031,6.756,6.756,6.756H43.5v2.621H30.05c-2.426,0-4.4,1.974-4.4,4.398v0.266h-3.765c-1.884,0-3.416,1.532-3.416,3.415   v1.063h-4.177v30.065h10.353v-8.102h-8.353V28.897h2.177v1.549c0,1.885,1.532,3.418,3.416,3.418h3.765v17.192   c0,2.426,1.974,4.398,4.4,4.398h2.312v3.814h-4.788l-2.186,16.824h15.949L39.154,59.27h-4.792v-3.814h20.421v3.814h-4.79   l-2.181,16.824H63.76L61.571,59.27h-4.789v-3.814h2.17c2.424,0,4.396-1.973,4.396-4.398V34.123h3.953   c1.885,0,3.418-1.533,3.418-3.418v-1.564h2.989v19.965h-8.351v8.102h10.351V27.141H70.719z M26.817,8.379   c0-2.621,2.133-4.754,4.756-4.754h25.854c2.621,0,4.754,2.133,4.754,4.754c0,2.623-2.133,4.756-4.754,4.756H31.573   C28.951,13.135,26.817,11.002,26.817,8.379z M22.645,50.861v4.102h-6.353v-4.102H22.645z M21.885,31.864   c-0.781,0-1.416-0.637-1.416-1.418v-4.611c0-0.78,0.635-1.415,1.416-1.415h3.765v7.444H21.885z M39.061,74.094H27.665l1.666-12.824   h8.066L39.061,74.094z M61.482,74.094H50.087L51.75,61.27h8.065L61.482,74.094z M61.348,51.057c0,1.322-1.074,2.398-2.396,2.398   H30.05c-1.324,0-2.4-1.076-2.4-2.398V22.154c0-1.322,1.077-2.398,2.4-2.398h28.902c1.321,0,2.396,1.076,2.396,2.398V51.057z    M68.719,30.705c0,0.781-0.636,1.418-1.418,1.418h-3.953v-7.445h3.953c0.782,0,1.418,0.635,1.418,1.416V30.705z M73.708,55.207   h-6.351v-4.102h6.351V55.207z"/><rect x="33.357" y="7.379" fill="#000000" width="5.228" height="2"/><rect x="50.415" y="7.379" fill="#000000" width="5.228" height="2"/></g>
</svg>