<svg xmlns="http://www.w3.org/2000/svg" viewBox="0 0 691.28 447.24"><defs><style>.cls-1{isolation:isolate;}.cls-2{fill:#e6e6e6;}.cls-2,.cls-4{opacity:0.7;}.cls-3,.cls-4{fill:#ffb900;}.cls-3{opacity:0.68;}.cls-5{fill:#2e4149;opacity:0.3;mix-blend-mode:multiply;}.cls-6{fill:#575c60;}.cls-7{fill:#787878;}.cls-8{fill:#6d7377;}.cls-9{fill:#282b2d;}.cls-10{fill:#bdbdbd;}.cls-11{fill:#f5f5f5;}.cls-12{fill:#acaeaf;}.cls-13{fill:#3f4347;}.cls-14{fill:#a2a2a3;}.cls-15{fill:#e0e0e0;}</style></defs><title>8</title><g class="cls-1"><g id="Layer_1" data-name="Layer 1"><path id="_Compound_Path_" data-name="&lt;Compound Path&gt;" class="cls-2" d="M365.58,973.16h0c-7,0-14.18.13-21.21,0.38a2.63,2.63,0,0,0,.09,5.26h0.09l1.3,0h1.25q8.78-.27,17.56-0.29h0.91a2.63,2.63,0,0,0,0-5.26h0Zm-42.21,1.5h-0.19c-7,.5-14.16,1.14-21.13,1.9a2.63,2.63,0,0,0,.28,5.24l0.29,0,4-.42h0l0.35,0h0.28l0.18,0h0.91l0.31,0h0.17q5-.48,10-0.88H320l0.33,0h0.14l3-.23a2.63,2.63,0,0,0-.18-5.25h0Zm-42,4.55-0.38,0c-7,1-14.06,2.19-20.95,3.47a2.63,2.63,0,0,0,1,5.17l2.89-.53h0l0.14,0h0l0.16,0h0l0.11,0h0.05l0.09,0h0.07l0.09,0,0.12,0h0l0.1,0h0q8.34-1.49,16.78-2.72a2.63,2.63,0,0,0-.38-5.23h0Zm-41.54,7.73a2.66,2.66,0,0,0-.59.07c-6.94,1.58-13.87,3.32-20.62,5.15a2.63,2.63,0,1,0,1.38,5.07l2.91-.79h0l0.47-.12h0l0.47-.12h0l0.34-.09h0l0.1,0h0l0.34-.09h0l0.1,0h0l0.31-.08h0l0.09,0h0.05l0.09,0h0l0.18,0,0.06,0,0.08,0,0.07,0,0.06,0,0.13,0h0l0.09,0h0.06l0.09,0h0.06l0.13,0h0l0.1,0h0.05l0.11,0h0l0.15,0h0l0.13,0h0l0.13,0h0l0.15,0h0l0.14,0h0l0.46-.12h0q6.13-1.56,12.33-3a2.63,2.63,0,0,0-.59-5.19h0Zm-40.78,11.15a2.63,2.63,0,0,0-.81.13c-6.8,2.19-13.56,4.55-20.09,7a2.63,2.63,0,0,0,1.84,4.93q3.36-1.26,6.76-2.48h0l0.14,0h0l0.15-.05h0l0.13,0h0l0.1,0,0,0,0.12,0,0.06,0,0.07,0,0.07,0,0.06,0,0.15-.05h0l0.09,0h0q3.93-1.39,7.9-2.71h0l0.2-.07h0l0.08,0,0.06,0,0.08,0,0.08,0,0.09,0,0.09,0,0.06,0,0.1,0h0l0.14,0h0l0.14,0h0l2.68-.87a2.63,2.63,0,0,0-.82-5.13h0ZM159.47,1013a2.62,2.62,0,0,0-1.05.22c-6.58,2.87-13.07,5.93-19.3,9.07a2.63,2.63,0,0,0,2.37,4.69q5.59-2.83,11.34-5.49h0l0.29-.13h0l0.13-.06h0l0.14-.06h0l0.12-.06h0l0.13-.06h0l0.13-.06,0,0,0.11,0h0l0.13-.06,0,0,0.09,0,0.05,0,0.1,0,0.09,0,0.06,0,0.07,0,0.05,0,0.13-.06,0,0,0.08,0,0,0,0.29-.13h0q2.59-1.17,5.2-2.32a2.63,2.63,0,0,0-1.05-5h0Zm-37.78,19.15a2.62,2.62,0,0,0-1.33.36c-6.26,3.67-12.34,7.52-18.08,11.43a2.63,2.63,0,1,0,3,4.34q2.54-1.73,5.15-3.44h0l0.26-.17h0l0.25-.16,0,0,0.11-.07,0,0,0.07,0,0.05,0,0.06,0,0.1-.07,0.05,0,0.07,0,0,0,0.1-.07,0,0,0.08-.05,0,0,0.11-.07,0,0,0.11-.07h0l0.12-.08,0,0,0.25-.16h0l0.26-.17h0l0.27-.17h0l0.27-.17h0l0.27-.17h0l0.28-.17h0l2.66-1.66h0l0.14-.09h0l0.14-.09h0l0.14-.08h0l0.14-.08h0l0.13-.08h0l0.13-.08h0l0.11-.07h0l0.12-.08,0,0,0.1-.06,0,0,0.12-.07,0,0,0.09-.05,0,0,0.11-.07,0.05,0,0.07,0,0.09-.05,0.07,0,0.06,0,0.06,0,0.1-.06,0.06,0,0.07,0,0,0,0.15-.09h0l0.09-.05h0q1.9-1.15,3.84-2.28a2.63,2.63,0,0,0-1.33-4.9h0Zm-35,24a2.62,2.62,0,0,0-1.65.58c-5.7,4.6-11.12,9.39-16.12,14.25a2.63,2.63,0,1,0,3.67,3.77q1.16-1.13,2.34-2.25h0l0.27-.26h0l0.06-.05h0l0.06-.05h0l0.05,0,0,0,0,0,0,0,0.06-.06,0,0,0,0,0,0,0,0,0,0,0,0,0,0h0l0,0h0l0.17-.16h0l0.05-.05h0l0.05-.05h0q5.48-5.09,11.54-10h0l0.06,0h0l0.05,0,0,0,0,0,0,0,0.08-.06,0,0,0,0,0,0,0,0,0,0,0,0,0.05,0h0l0.07-.06h0a2.63,2.63,0,0,0-1.65-4.67h0Zm-30.4,29.72a2.62,2.62,0,0,0-2,1,173.56,173.56,0,0,0-12.78,17.51,2.63,2.63,0,0,0,4.43,2.83,167.62,167.62,0,0,1,12.4-17,2.63,2.63,0,0,0-2-4.3h0Zm-22.74,36.06a2.63,2.63,0,0,0-2.4,1.56,133.47,133.47,0,0,0-7.29,20.62,2.63,2.63,0,1,0,5.08,1.33q0.3-1.15.63-2.31h0l0-.07h0l0-.07h0l0-.07h0l0-.07h0l0-.06h0l0-.06h0l0.12-.41v-1l0-.08h0l0-.07V1141l0,0v0l0-.05v-0.41l0-.06v0l0-.06h0l0.1-.31h0l0-.07h0l0-.07h0l0-.07h0l0-.07v0l0-.06h0l0-.06v0l0-.06h0l0-.06h0l0-.07h0l0-.07h0l0.2-.62h0l0-.07h0l0-.07h0l0-.07h0l0-.07h0l0-.07h0l0-.07h0l0.26-.78h0l0.1-.31h0l0.29-.85h0l0-.07h0l0-.07h0l0-.07h0l0.38-1.08h0q1.67-4.65,3.73-9.25a2.63,2.63,0,0,0-2.4-3.7h0ZM22.85,1163.3a2.63,2.63,0,0,0-2.62,2.43,120.06,120.06,0,0,0,.32,22,2.63,2.63,0,0,0,2.61,2.35l0.28,0a2.63,2.63,0,0,0,2.34-2.89v-0.49h0l0-.33h0v-0.08h0a114.44,114.44,0,0,1-.21-20.1,2.63,2.63,0,0,0-2.42-2.81H22.85Zm4.49,42.53a2.63,2.63,0,0,0-2.53,3.36,135.72,135.72,0,0,0,7.81,20.41,2.63,2.63,0,0,0,4.75-2.25q-2.88-6-5.08-12.15h0l0-.07v0l0-.06v0l0-.06v0l0-.06v0l0-.06v0l0-.05v0l0,0v0l0,0v0l0,0v-0.18l0,0v-0.13l-0.07-.19h0l0-.07h0l0-.06h0l0-.06v0l0-.05v0l0-.06v0l0-.06v0l0-.06h0l0-.06h0l0-.06h0q-1-2.79-1.77-5.6a2.63,2.63,0,0,0-2.52-1.89h0Zm18.24,38.6a2.63,2.63,0,0,0-2.19,4.08,177.51,177.51,0,0,0,13.11,17.24,2.63,2.63,0,0,0,4-3.42,171.74,171.74,0,0,1-12.73-16.74,2.63,2.63,0,0,0-2.19-1.17h0Zm27.64,32.37a2.63,2.63,0,0,0-1.8,4.54c5.07,4.78,10.55,9.49,16.3,14a2.63,2.63,0,0,0,3.26-4.12q-8.54-6.7-16-13.72a2.62,2.62,0,0,0-1.79-.7h0Zm33.33,26.29a2.63,2.63,0,0,0-1.46,4.82c5.45,3.64,11.22,7.21,17.13,10.62l1.06,0.61a2.63,2.63,0,0,0,2.61-4.56l-0.26-.15h0l-0.11-.06-0.06,0-0.05,0-0.06,0-0.06,0-0.07,0-0.09,0,0,0-0.08,0,0,0-0.12-.07-0.12-.07,0,0-0.1-.06h0l-0.12-.07h0l-0.1-.06,0,0-0.12-.07h0l-0.12-.07,0,0-0.11-.07h0l-0.13-.07,0,0-0.11-.06h0l-0.13-.07h0l-0.12-.07h0l-0.26-.15h0l-0.12-.07h0l-0.13-.08h0l-0.11-.06,0,0-0.25-.15h0l-0.12-.07h0l-0.13-.08h0l-0.12-.07h0l-0.26-.15h0l-0.26-.15h0l-0.12-.07h0l-0.13-.08h0l-0.12-.07h0l-0.25-.15h0l-0.12-.07h0l-0.13-.08h0l-0.11-.06h0l-0.26-.15h0l-0.26-.16h0l-0.12-.07h0l-0.26-.15h0l-0.25-.15h0l-0.12-.07h0l-0.13-.08h0l-0.13-.08h0l-0.26-.16h0l-0.12-.08h0l-0.13-.08h0l-0.11-.07h0l-0.25-.15h0l-0.25-.15h0l-0.11-.07h0l-0.12-.08h0l-0.11-.07h0l-0.25-.15h0l-0.11-.07h0l-0.12-.08h0l-0.11-.07h0l-0.12-.08h0l-0.11-.07,0,0-0.11-.07h0l-0.12-.08h0l-0.11-.07h0l-0.12-.08h0l-0.12-.07h0l-0.24-.15h0l-0.1-.06h0l-0.12-.08h0l-0.11-.07h0l-0.12-.08h0l-0.12-.07,0,0-0.11-.07h0l-0.12-.08h0l-0.1-.07h0l-0.12-.08h0l-0.11-.07h0l-0.24-.15h0l-0.11-.07h0l-0.12-.08h0l-0.12-.07h0l-0.24-.15h0l-0.11-.07h0l-0.12-.08h0l-0.12-.07h0l-0.24-.16h0l-0.12-.08h0l-0.12-.08h0l-0.1-.07h0l-0.12-.08h0l-0.11-.07,0,0-0.23-.15,0,0-0.1-.07h0l-0.12-.08h0l-0.11-.07h0l-0.12-.08h0l-0.12-.08h0l-0.24-.16h0l-0.11-.08h0l-0.24-.16h0l-0.24-.16h0l-0.11-.07h0l-0.12-.08h0l-0.12-.08h0l-0.24-.16h0l-0.11-.07h0l-0.12-.08h0l-0.11-.07h0l-0.24-.16h0l-0.24-.16h0l-0.11-.08h0l-0.24-.16h0l-0.12-.08a2.62,2.62,0,0,0-1.45-.44h0Zm36.74,21.09a2.63,2.63,0,0,0-1.17,5c6.25,3.09,12.77,6.09,19.37,8.9a2.63,2.63,0,0,0,2.06-4.84q-3.93-1.68-7.8-3.43h0l-0.31-.14h0l-0.1,0h0l-0.28-.13,0,0-0.08,0-0.05,0-0.13-.06-0.05,0-0.07,0-0.06,0-0.1,0-0.08,0-0.06,0-0.08,0-0.05,0-0.12-.06,0,0-0.09,0-0.05,0-0.1,0,0,0-0.11-.05,0,0-0.11-.05h0l-0.14-.06h0l-0.12-.06h0l-0.29-.13h0q-4.25-2-8.41-4a2.62,2.62,0,0,0-1.15-.27h0Zm38.91,16.64a2.63,2.63,0,0,0-.91,5.1c6.55,2.41,13.33,4.71,20.14,6.85a2.63,2.63,0,1,0,1.57-5q-5-1.58-10-3.26h0l-0.33-.11h0l-0.09,0,0,0-0.09,0h0l-0.17-.06,0,0-0.08,0-0.06,0-0.08,0-0.11,0-0.07,0-0.07,0-0.07,0-0.09,0,0,0-0.13,0,0,0-0.11,0h0l-0.14,0h0l-0.14,0h0l-0.14,0h0l-0.3-.1h0q-3.72-1.29-7.39-2.64a2.63,2.63,0,0,0-.89-0.16h0Zm40.34,12.69a2.63,2.63,0,0,0-.67,5.17c6.75,1.79,13.7,3.48,20.65,5a2.63,2.63,0,0,0,1.14-5.13l-0.8-.18h0l-0.13,0h0l-0.15,0h0l-0.1,0h-0.06l-0.09,0h-0.06l-0.13,0-0.08,0h-0.06l-0.09,0h0l-0.32-.07h0l-0.11,0h0q-8.61-1.94-17.06-4.17h0l-0.1,0h0l-0.19-.05h0l-0.09,0-0.06,0-0.08,0-0.07,0-0.11,0-0.08,0-0.06,0-0.09,0h0a2.65,2.65,0,0,0-.68-0.09h0Zm41.26,9.14a2.63,2.63,0,0,0-.46,5.22c6.89,1.24,13.94,2.36,21,3.34l0.37,0A2.63,2.63,0,0,0,285,1366q-10.45-1.46-20.76-3.31a2.63,2.63,0,0,0-.47,0h0Zm41.84,5.87a2.63,2.63,0,0,0-.26,5.24c7,0.71,14.1,1.31,21.14,1.77h0.18a2.63,2.63,0,0,0,.17-5.25q-10.51-.69-21-1.76h-0.27Zm42.15,2.77a2.63,2.63,0,0,0-.08,5.26c5.93,0.18,12,.27,17.89.27h3.32a2.63,2.63,0,0,0,0-5.26h-5.61q-7.72,0-15.43-.26h-0.08Zm63.32-1.48h-0.2q-10.47.81-21,1.24a2.63,2.63,0,0,0,.11,5.25h0.11c7-.29,14.18-0.71,21.18-1.25a2.63,2.63,0,0,0-.2-5.25h0Zm42-4.79a2.62,2.62,0,0,0-.4,0q-10.36,1.58-20.84,2.77a2.63,2.63,0,0,0,.29,5.24l0.3,0c7-.8,14.11-1.74,21-2.8a2.63,2.63,0,0,0-.39-5.23h0Zm41.49-8a2.62,2.62,0,0,0-.6.07q-7.21,1.69-14.52,3.18h0l-0.11,0h0l-0.33.07h0l-0.11,0h0l-0.09,0h0l-0.18,0h-0.05l-0.08,0-0.08,0h-0.06l-0.14,0h0l-0.11,0h-0.05l-0.1,0h0l-0.3.06h0l-0.14,0h0l-3.9.76a2.63,2.63,0,0,0,1,5.16c7-1.34,14-2.83,20.77-4.43a2.63,2.63,0,0,0-.6-5.19h0Zm40.7-11.43a2.62,2.62,0,0,0-.82.13q-9.91,3.27-20.11,6.13a2.63,2.63,0,1,0,1.42,5.06c6.87-1.93,13.71-4,20.34-6.2a2.63,2.63,0,0,0-.82-5.12h0Zm39.47-15.23a2.62,2.62,0,0,0-1.07.23h0l-0.29.13h0q-5.21,2.32-10.53,4.51h0L561,1336h0l-0.45.18h0l-1.07.43h0q-2.61,1-5.24,2.06a2.63,2.63,0,0,0,1.9,4.9c6.69-2.57,13.31-5.32,19.67-8.17a2.63,2.63,0,0,0-1.07-5h0Zm37.59-19.5a2.61,2.61,0,0,0-1.35.38l-0.22.13h0l-0.09.05-0.11.06,0,0-0.12.07h0c-1.29.77-2.6,1.54-3.91,2.3h0l-0.13.08-0.1.06,0,0-0.06,0,0,0-0.05,0-0.05,0,0,0-0.06,0,0,0-0.05,0,0,0-0.05,0,0,0-0.05,0,0,0-0.06,0,0,0-0.06,0,0,0-0.06,0,0,0-0.06,0,0,0-0.24.14h0l-0.06,0,0,0-0.07,0,0,0-0.07,0,0,0-0.07,0,0,0-0.07,0,0,0-0.07,0,0,0-0.07,0,0,0-0.07,0,0,0-0.07,0,0,0-0.07,0h0l-0.37.21h0l-0.08,0h0l-0.07,0,0,0-0.06,0,0,0-0.06,0,0,0-0.07,0,0,0-0.07,0,0,0-0.07,0,0,0-0.07,0h0l-0.08,0h0l-0.56.32h0l-0.08,0h0l-0.08,0,0,0-0.07,0,0,0-0.07,0,0,0-0.07,0,0,0-0.07,0,0,0-0.07,0h0l-0.08,0h0l-0.48.26h0l-0.08,0h0l-0.08,0h0l-0.07,0,0,0-0.07,0h0l-0.07,0,0,0-0.07,0,0,0-0.07,0,0,0-0.07,0h0l-0.09,0h0l-0.58.32h0l-0.08,0h0l-0.08,0h0l-0.08,0h0l-0.08,0h0l-0.08,0h0l-0.09,0h0l-0.09,0h0l-0.1.05h0l-0.6.32h0l-0.09.05h0l-0.09,0h0l-0.08,0h0l-0.09,0h0l-0.09,0h0l-0.09,0h0l-0.79.42h0l-0.09,0h0l-0.09,0h0l-0.09,0h0l-0.09,0h0l-0.1.05h0l-1.1.58h0l-2.23,1.16a2.63,2.63,0,1,0,2.42,4.67c4.73-2.45,9.42-5,13.93-7.62q2.39-1.38,4.72-2.78a2.63,2.63,0,0,0-1.35-4.88h0Zm34.7-24.41a2.62,2.62,0,0,0-1.68.61q-1.3,1.08-2.62,2.14h0l-0.07.06h0l-0.39.31h0l-0.16.12h0l-0.07.06h0l-0.07.05h0l-0.15.12h0l-0.07.06h0l-0.06.05h0l-0.23.18h0l-0.07.05h0l-0.07.06h0l-0.15.12h0l-0.06,0,0,0-0.06,0,0,0-0.07.05h0l-0.07.06,0,0,0,0,0,0,0,0,0,0,0,0,0,0-0.07.05,0,0,0,0,0,0,0,0,0,0,0,0-0.14.11,0,0,0,0,0,0,0,0,0,0,0,0-0.05,0,0,0,0,0,0,0,0,0,0,0,0,0,0,0,0,0-0.07.06,0,0,0,0,0,0,0,0,0,0,0,0,0,0-0.09.07h0l0,0,0,0,0,0,0,0-0.05,0h0l-0.09.07,0,0,0,0,0,0,0,0,0,0-0.05,0h0l-0.17.13h0l-0.05,0h0l0,0,0,0-0.17.13h0l-0.05,0,0,0-0.05,0h0l-0.05,0h0l-0.11.09h0l-0.05,0h0l-0.06,0h0l-0.06,0h0l-0.18.14,0,0,0,0,0,0,0,0,0,0-0.16.12h0l-0.05,0,0,0-0.05,0h0l-0.17.13,0,0-0.05,0h0l-0.05,0h0l-0.18.14h0l-0.05,0,0,0,0,0,0,0,0,0,0,0-0.09.07h0l0,0,0,0,0,0,0,0,0,0h0l-0.17.13,0,0,0,0,0,0,0,0,0,0-0.16.12,0,0,0,0,0,0,0,0,0,0,0,0h0l-0.11.08h0l0,0,0,0,0,0,0,0,0,0,0,0-0.08.06,0,0,0,0,0,0,0,0,0,0,0,0,0,0-0.06,0,0,0,0,0,0,0,0,0,0,0,0,0-0.07.05h0l-0.08.06,0,0-0.05,0,0,0-0.05,0,0,0-0.06,0,0,0-0.08.06h0l-0.07,0h0l-0.06,0h0l-0.07.05h0l-0.16.12h0l-0.07,0h0l-0.07.05h0l-0.25.18h0q-2.07,1.51-4.2,3a2.63,2.63,0,1,0,3,4.31c6-4.19,11.72-8.56,17.07-13a2.63,2.63,0,0,0-1.68-4.65h0Zm29.93-30.2a2.62,2.62,0,0,0-2,1,190.89,190.89,0,0,1-14,15.68,2.63,2.63,0,0,0,3.73,3.71,196.85,196.85,0,0,0,14.4-16.09,2.63,2.63,0,0,0-2.05-4.27h0Zm22-36.55a2.63,2.63,0,0,0-2.43,1.61h0l0,0.05v0l0,0.06h0a141.65,141.65,0,0,1-9.49,18.56,2.63,2.63,0,1,0,4.5,2.72,147.45,147.45,0,0,0,9.91-19.4,2.63,2.63,0,0,0-2.42-3.64h0Zm9.61-41.66a2.63,2.63,0,0,0-2.62,2.5,116.47,116.47,0,0,1-2.92,20.79,2.63,2.63,0,1,0,5.12,1.19,122.21,122.21,0,0,0,3.05-21.73,2.63,2.63,0,0,0-2.5-2.75h-0.13Zm-5.67-42.39a2.63,2.63,0,0,0-2.51,3.42q0.77,2.39,1.43,4.79h0l0,0.07h0l0,0.07v0l0,0.06v0l0,0.06v0l0,0.06h0l0.06,0.23v0.58h0l0.11,0.42h0l0,0.06h0l0,0.07h0l0,0.07h0a118.38,118.38,0,0,1,2.72,13.83,2.63,2.63,0,0,0,2.6,2.28l0.36,0a2.63,2.63,0,0,0,2.25-3,125.7,125.7,0,0,0-4.85-21.37,2.63,2.63,0,0,0-2.5-1.83h0Zm-19.14-38.14a2.63,2.63,0,0,0-2.16,4.13,151.1,151.1,0,0,1,10.8,18,2.63,2.63,0,0,0,4.69-2.37,157.16,157.16,0,0,0-11.17-18.65,2.63,2.63,0,0,0-2.16-1.13h0Zm-28.19-31.87a2.63,2.63,0,0,0-1.78,4.57,205.12,205.12,0,0,1,14.78,14.94,2.63,2.63,0,1,0,3.93-3.49,211.21,211.21,0,0,0-15.16-15.33,2.62,2.62,0,0,0-1.77-.69h0Zm-33.66-25.85a2.63,2.63,0,0,0-1.44,4.83q9.08,5.91,17.18,12.11a2.63,2.63,0,0,0,3.19-4.18c-5.52-4.22-11.41-8.37-17.5-12.34a2.61,2.61,0,0,0-1.43-.43h0Zm-37-20.73a2.63,2.63,0,0,0-1.15,5h0l0.13,0.06h0l0.11,0.06,0,0,0.28,0.14h0q5.74,2.78,11.31,5.74h0l0.14,0.07h0l0.14,0.07h0l0.12,0.06h0l0.13,0.07h0l0.1,0.06,0,0,0.11,0.06,0,0,0.09,0,0.06,0,0.07,0,0.08,0,0.08,0,0.07,0,0,0,0.26,0.14h0l0.29,0.16h0q2.4,1.29,4.77,2.62a2.63,2.63,0,0,0,2.57-4.59c-6.09-3.41-12.46-6.72-18.93-9.85a2.62,2.62,0,0,0-1.14-.26h0Zm-39-16.31a2.63,2.63,0,0,0-.89,5.1h0l0.1,0,0.09,0,0.07,0,0.07,0,0.06,0,0.28,0.1h0l0.09,0h0l0.19,0.07h0l0.11,0h0q4.75,1.72,9.42,3.53h0l0.1,0h0l0.21,0.08h0l0.09,0h0l0.28,0.11,0,0,0.08,0,0.06,0,0.13,0,0.06,0,0.08,0,0.05,0,0.07,0,0.08,0,0.1,0,0.07,0,0.07,0,0.06,0,0.08,0,0.1,0,0.06,0,0.08,0,0.06,0,0.12,0h0l0.1,0,0.05,0,0.1,0h0l0.13,0.05h0l0.1,0,0,0,0.12,0,0,0,0.12,0,0,0,0.11,0h0l0.14,0.05h0l0.12,0h0l0.28,0.11h0l0.12,0h0l0.15,0.06h0l0.14,0.06h0l0.29,0.12h0l0.14,0.06h0l0.29,0.12h0L561,1014h0l0.13,0.05h0l0.29,0.12h0l0.44,0.18h0l0.29,0.12h0l0.13,0.05h0l0.29,0.12h0l0.29,0.12h0l0.13,0.05h0l0.28,0.12h0l0.13,0.06h0l0.14,0.06h0l0.11,0h0l0.13,0.05h0l0.11,0,0,0,0.1,0,0,0,0.13,0.05,0.05,0,0.08,0,0,0a2.63,2.63,0,1,0,2-4.85c-6.44-2.69-13.12-5.27-19.86-7.69a2.62,2.62,0,0,0-.89-0.15h0Zm-40.43-12.4a2.63,2.63,0,0,0-.66,5.17h0l0.14,0h0l0.11,0h0.06l0.08,0,0.07,0,0.06,0,0.16,0h0l0.1,0h0q5,1.29,9.88,2.69h0l0.45,0.13h0l0.1,0h0l0.18,0.05h0l0.07,0,0.07,0,0.07,0,0.09,0,0.06,0,0.12,0,0.06,0,0.09,0h0l0.13,0h0l0.13,0h0l0.11,0h0l0.29,0.08h0l0.14,0h0q3.55,1,7.06,2.1a2.63,2.63,0,0,0,1.53-5c-6.68-2-13.56-4-20.46-5.77a2.62,2.62,0,0,0-.66-0.08h0Zm-41.32-8.87a2.63,2.63,0,0,0-.45,5.22h0.11l0.1,0h0q6,1,12,2.22h0l0.11,0h0l0.09,0h0l0.15,0h0.14l0.08,0h0.07l0.13,0h0l0.12,0h0l0.12,0h0l0.31,0.06h0c2.31,0.46,4.61.94,6.91,1.43a2.63,2.63,0,0,0,1.09-5.14c-6.84-1.47-13.86-2.82-20.85-4a2.63,2.63,0,0,0-.45,0h0Zm-41.87-5.62a2.63,2.63,0,0,0-.25,5.25q7.42,0.72,14.78,1.62h0l0.48,0.06h0.18l0.3,0H438l0.14,0h0.34l0.31,0h0l0.14,0h0l0.47,0.06h0l3.41,0.45,0.35,0a2.63,2.63,0,0,0,.35-5.23c-6.95-.93-14-1.75-21.08-2.43h-0.26Zm-42.16-2.54a2.63,2.63,0,0,0-.06,5.26q10.52,0.26,21,.89h0.16a2.63,2.63,0,0,0,.15-5.25c-7-.42-14.15-0.72-21.2-0.89h-0.07Z" transform="translate(-19.87 -929.56)"/><path id="_Path_" data-name="&lt;Path&gt;" class="cls-3" d="M580.95,1299.32C462,1368,269.16,1368,150.22,1299.32s-118.94-180,0-248.68,311.78-68.67,430.73,0S699.89,1230.65,580.95,1299.32Z" transform="translate(-19.87 -929.56)"/><path id="_Path_2" data-name="&lt;Path&gt;" class="cls-4" d="M558.47,1223.72c-106.53,61.5-279.24,61.5-385.77,0S66.17,1062.5,172.7,1001s279.24-61.5,385.77,0S665,1162.21,558.47,1223.72Z" transform="translate(-19.87 -929.56)"/><g id="_Group_" data-name="&lt;Group&gt;"><path id="_Path_3" data-name="&lt;Path&gt;" class="cls-5" d="M356.57,1027.54L470.64,1211h73.08c18.76-13.28,31.86-28.33,39.42-44.08Z" transform="translate(-19.87 -929.56)"/><g id="_Group_2" data-name="&lt;Group&gt;"><path id="_Path_4" data-name="&lt;Path&gt;" class="cls-6" d="M483.5,1196l0.28-101.38-14.92.18-0.28,100.33c0,3-.94,6.49-3.77,8.06s-8.84.87-11.47-.65c1,0.89,11.47,6.83,12.65,7.28a17.3,17.3,0,0,0,4.66,1.12,11,11,0,0,0,8.86-3c2.69-2.71,3.74-6.61,4-10.32,0,0.05,0,.12,0,0s0-.13,0-0.09c0-.22,0-1.5,0-1.5h0Z" transform="translate(-19.87 -929.56)"/><g id="_Group_3" data-name="&lt;Group&gt;"><path id="_Path_5" data-name="&lt;Path&gt;" class="cls-7" d="M512,1079.29c-3,1.91-28.22,16.35-28.36,16.57s-0.28,97.82-.22,100a1.16,1.16,0,0,0,.06.27c-0.12,1.31-.1,2.61-0.32,3.92a17.88,17.88,0,0,1-1,3.71,12.7,12.7,0,0,1-2,3.39,11.71,11.71,0,0,1-1.45,1.45,3.2,3.2,0,0,1-.56.45c-0.26.13,6.26-3.6,9.71-5.61l15.55-9a28.51,28.51,0,0,0,3.91-2.45c3.65-3,4.58-8.08,4.58-12.59,0-3,.11-97.3.11-99.78v-0.33Z" transform="translate(-19.87 -929.56)"/></g><path id="_Path_6" data-name="&lt;Path&gt;" class="cls-6" d="M271.14,949l0,0.07a0.84,0.84,0,0,0-.56-0.41c-0.66-.35-1.33-0.69-2-1a19.29,19.29,0,0,0-4.07-1.27,12,12,0,0,0-8,1.06,11.77,11.77,0,0,0-5.19,6.48,19.16,19.16,0,0,0-1,4.21c-0.11,1,.19,9.26.12,11.93,0,1.29,1.28-1.72,1.55-.46a15.09,15.09,0,0,1,.08-1.55c0.3-2.83,1.61-5.75,4.4-6.87s5.74-.16,8.15,1.23h0l191.74,110.7,6.57-13.43Z" transform="translate(-19.87 -929.56)"/><path id="_Path_7" data-name="&lt;Path&gt;" class="cls-7" d="M299.68,932.4c-4.47-2.58-10.19-4.12-15-1.4-1.59.91-26.83,15.59-28.48,16.55,4.92-2.86,10.79-.94,15.34,1.69,1.17,0.68,190.85,110.59,191.3,110.45s27.66-16.08,28.54-16.58L300,932.58Z" transform="translate(-19.87 -929.56)"/><path id="_Path_8" data-name="&lt;Path&gt;" class="cls-8" d="M458.72,1074.78a28.14,28.14,0,0,1,7.38,9.43,27.74,27.74,0,0,1,2.05,5.46,22.55,22.55,0,0,1,.58,3.06c0.05,0.49.1,1,.12,1.48,0,0.14,0,1.09,0,1.09s13.49,0.49,14.9.59a39.34,39.34,0,0,0-3.72-15.89,49.38,49.38,0,0,0-9.43-14.11,35.36,35.36,0,0,0-7.75-6.2l-6.11,12.49a3.22,3.22,0,0,0-.43.87,0.71,0.71,0,0,0,.5.4A21,21,0,0,1,458.72,1074.78Z" transform="translate(-19.87 -929.56)"/><path id="_Path_9" data-name="&lt;Path&gt;" class="cls-9" d="M457,1073.81c7,4,12.76,14,12.72,22l-0.29,101.7c0,8-5.81,11.3-12.8,7.25L262.17,1092.55c-7-4-12.76-14-12.72-22l0.29-101.7c0-8,5.81-11.35,12.8-7.3Z" transform="translate(-19.87 -929.56)"/><path id="_Path_10" data-name="&lt;Path&gt;" class="cls-10" d="M464.94,1061l0.34,0.24,0.64,0.47,0.4,0.3,0.58,0.46,0.42,0.34,0.55,0.47,0.43,0.37,0.54,0.49,0.42,0.39,0.54,0.52,0.39,0.39,0.56,0.57,0.35,0.37,0.66,0.73,0.21,0.24,0.86,1,0.22,0.27,0.62,0.77,0.73,1,0.16,0.21c0.41,0.55.8,1.12,1.19,1.69l0.28,0.41,0.42,0.65,0.36,0.57,0.41,0.67,0.32,0.53q0.47,0.8.91,1.62l0.31,0.59,0.33,0.64,0.42,0.86,0.16,0.33q0.27,0.58.53,1.17l0.13,0.3,0.37,0.88,0.16,0.4,0.32,0.83,0.14,0.37q0.19,0.51.36,1l0.07,0.19q0.2,0.6.39,1.21l0.11,0.37c0.08,0.28.17,0.57,0.24,0.85l0.12,0.45q0.1,0.39.2,0.78l0.11,0.46q0.09,0.4.17,0.79l0.09,0.43q0.09,0.49.17,1l0,0.21q0.09,0.59.17,1.18c0,0.1,0,.21,0,0.31,0,0.29.06,0.58,0.09,0.86,0,0.13,0,.27,0,0.4s0,0.53,0,.8,0,0.25,0,.38c0,0.38,0,.75,0,1.12l28.54-16.58q0-.47,0-0.94c0-.06,0-0.12,0-0.18s0-.25,0-0.38,0-.29,0-0.44,0-.24,0-0.36,0-.27,0-0.4,0-.17,0-0.26,0-.41-0.07-0.61,0-.21,0-0.31v-0.1q-0.07-.52-0.15-1v0l0-.21c0-.27-0.09-0.53-0.14-0.8l0-.18-0.09-.43c0-.16-0.06-0.32-0.1-0.48l-0.07-.31-0.11-.46-0.08-.33-0.12-.45-0.12-.45-0.05-.21c-0.06-.22-0.13-0.43-0.19-0.65l-0.11-.37,0-.09q-0.17-.54-0.35-1.09v0l-0.07-.19c-0.1-.28-0.19-0.57-0.3-0.85l-0.06-.17-0.14-.37-0.18-.49-0.14-.35-0.16-.4-0.11-.27-0.26-.61-0.13-.3,0-.1q-0.22-.51-0.46-1l0-.05-0.16-.33-0.35-.73-0.07-.13-0.33-.64-0.26-.5-0.05-.09q-0.44-.82-0.91-1.62l-0.08-.14-0.24-.4-0.41-.67-0.36-.57-0.42-.65-0.14-.22-0.14-.19c-0.39-.57-0.78-1.14-1.19-1.7h0l-0.14-.19-0.74-1,0-.07-0.58-.71-0.21-.26,0,0-0.81-.95,0,0-0.22-.24-0.57-.63-0.09-.09-0.35-.37-0.42-.44-0.14-.14-0.39-.38-0.36-.35-0.18-.17-0.42-.39-0.31-.29-0.22-.2-0.43-.37-0.28-.24-0.27-.22-0.42-.34-0.23-.19-0.35-.27-0.39-.3-0.17-.13-0.48-.34-0.34-.24s-0.06.08-.09,0.06a1.87,1.87,0,0,0-.88-0.46h0s0-.14,0-0.15c-0.28-.18-0.56-0.41-0.84-0.58-0.07,0-.14-0.11-0.2-0.15l-28.54,16.57c0.35,0.2.7,0.41,1,.62l0,0Z" transform="translate(-19.87 -929.56)"/><path id="_Path_11" data-name="&lt;Path&gt;" class="cls-11" d="M456.46,1135.07a70.62,70.62,0,0,0-1.75-14.26,87.9,87.9,0,0,0-3.8-12.59,101.77,101.77,0,0,0-15.17-26.63,79.51,79.51,0,0,0-19.88-18.3,50.15,50.15,0,0,0-10.55-5.1,36.09,36.09,0,0,0-5.28-1.36c-0.87-.15-1.75-0.27-2.64-0.35a25.2,25.2,0,0,0-7.39.41,21.09,21.09,0,0,0-4.89,1.68c-2.6,1.27-5.06,2.88-7.56,4.34l-0.92.53a20.77,20.77,0,0,1,5.59-2.23,23,23,0,0,1,2.93-.5q0.82-.09,1.64-0.12c0.42,0,3.26.06,4.28,0.18s2.06,0.3,3.08.52a39,39,0,0,1,6.1,1.89,56.64,56.64,0,0,1,13,7.49,81.05,81.05,0,0,1,12,11.23,99.48,99.48,0,0,1,10.14,13.79,102.07,102.07,0,0,1,7.82,15.58,88.13,88.13,0,0,1,4.38,14.33,72,72,0,0,1,1.29,8.57c0.65,7.39.18,15.05-2.86,21.94a23.89,23.89,0,0,1-7,9.24,20.83,20.83,0,0,1-2.32,1.57l5.46-3.17a31,31,0,0,0,4.84-3.22,23.12,23.12,0,0,0,4.93-6.1C455.34,1148.54,456.53,1141.82,456.46,1135.07Z" transform="translate(-19.87 -929.56)"/><path id="_Path_12" data-name="&lt;Path&gt;" class="cls-10" d="M406.19,1066.39c23.44,13.53,42.39,46.36,42.32,73.29s-19.15,37.8-42.59,24.27-42.39-46.36-42.32-73.29S382.75,1052.86,406.19,1066.39Z" transform="translate(-19.87 -929.56)"/><path id="_Path_13" data-name="&lt;Path&gt;" class="cls-12" d="M399.5,1078.72c19.49,11.25,35.24,38.52,35.17,60.92s-15.91,31.43-35.4,20.17S364,1121.29,364.1,1098.9,380,1067.47,399.5,1078.72Z" transform="translate(-19.87 -929.56)"/><path id="_Path_14" data-name="&lt;Path&gt;" class="cls-11" d="M441.4,1135.8a51,51,0,0,0-.43-5.73,66.07,66.07,0,0,0-2.3-11q-0.75-2.51-1.66-5a84.5,84.5,0,0,0-17.53-28.15,56.89,56.89,0,0,0-16.62-12.42c-6.72-3.17-14.7-4.67-21.5-.92-1.9,1-3.76,2.18-5.64,3.27l-0.68.39c5.52-3.21,12.23-2.81,18.09-.79,8.34,2.88,15.56,8.67,21.45,15.12a83.7,83.7,0,0,1,14.92,23.22,65.92,65.92,0,0,1,5.81,26c0,7.5-1.92,15.84-7.94,20.85a16.9,16.9,0,0,1-2.34,1.64l5.85-3.4c5.92-3.46,8.94-9.91,10-16.48A42.64,42.64,0,0,0,441.4,1135.8Z" transform="translate(-19.87 -929.56)"/><path id="_Path_15" data-name="&lt;Path&gt;" class="cls-11" d="M427.29,1140a46.21,46.21,0,0,0-.33-6.91,56.88,56.88,0,0,0-1.29-7,70.71,70.71,0,0,0-5-13.78,77.54,77.54,0,0,0-8.55-13.79A64.13,64.13,0,0,0,400.56,1087a45.5,45.5,0,0,0-7.79-4.87c-6.32-3.06-13.89-4.53-20.3-.84-4.82,2.78-9.62,5.59-14.43,8.39l-5.71,3.32a15.65,15.65,0,0,1,3.69-1.55,21.39,21.39,0,0,1,12.59.77c7.61,2.58,14.2,7.86,19.57,13.72a76.13,76.13,0,0,1,13.89,21.79,67.84,67.84,0,0,1,3.75,11.65,55.52,55.52,0,0,1,1,6,42.36,42.36,0,0,1-.12,10.71,28.42,28.42,0,0,1-1.26,5.17,19,19,0,0,1-5.57,8.41,15.45,15.45,0,0,1-2.13,1.49l14.57-8.47c1.86-1.08,3.73-2.16,5.58-3.25a17.37,17.37,0,0,0,6.8-7.64,25.1,25.1,0,0,0,1.81-5.38A34.5,34.5,0,0,0,427.29,1140Z" transform="translate(-19.87 -929.56)"/><path id="_Path_16" data-name="&lt;Path&gt;" class="cls-12" d="M374.49,1095.18c17.7,10.22,32,35,32,55.36s-14.47,28.55-32.17,18.33-32-35-32-55.36S356.79,1085,374.49,1095.18Z" transform="translate(-19.87 -929.56)"/><path id="_Path_17" data-name="&lt;Path&gt;" class="cls-8" d="M374.47,1101.48c14.68,8.48,26.55,29,26.5,45.9s-12,23.68-26.67,15.2-26.55-29-26.5-45.9S359.79,1093,374.47,1101.48Z" transform="translate(-19.87 -929.56)"/><path id="_Path_18" data-name="&lt;Path&gt;" class="cls-13" d="M374.47,1101.48c-6.5-3.75-12.46-4.51-17.09-2.72-2.45,3.21-3.87,7.82-3.89,13.61,0,16.87,11.82,37.42,26.5,45.9,6.5,3.75,12.46,4.51,17.09,2.72,2.45-3.21,3.87-7.82,3.89-13.61C401,1130.5,389.16,1110,374.47,1101.48Z" transform="translate(-19.87 -929.56)"/><path id="_Path_19" data-name="&lt;Path&gt;" class="cls-14" d="M345.66,1026.2a3.8,3.8,0,0,1,1.72,3l0,13.72a1.05,1.05,0,0,1-1.73,1l-26.23-15.14a3.8,3.8,0,0,1-1.72-3l0-13.72a1.05,1.05,0,0,1,1.73-1Z" transform="translate(-19.87 -929.56)"/><path id="_Path_20" data-name="&lt;Path&gt;" class="cls-15" d="M341,1026.65a2.44,2.44,0,0,1,1.1,1.91l0,8.82a0.68,0.68,0,0,1-1.11.63l-16.85-9.73a2.44,2.44,0,0,1-1.1-1.91l0-8.82a0.68,0.68,0,0,1,1.11-.63Z" transform="translate(-19.87 -929.56)"/><path id="_Path_21" data-name="&lt;Path&gt;" class="cls-6" d="M298.58,1000.33c-3.2-1.85-5.77-.34-5.78,3.33a12.61,12.61,0,0,0,5.75,10c3.2,1.85,5.81.4,5.82-3.28a12.75,12.75,0,0,0-5.78-10" transform="translate(-19.87 -929.56)"/><g id="_Group_4" data-name="&lt;Group&gt;"><g id="_Group_5" data-name="&lt;Group&gt;"><path id="_Path_22" data-name="&lt;Path&gt;" class="cls-11" d="M327.66,945.21l-3.6,2.53L312,955v-1h-1.06l-0.35,9.89a6.73,6.73,0,0,0,3.71-.55l11-6.19a4.65,4.65,0,0,0,2.39-4.45C327.68,952.61,327.66,945.21,327.66,945.21Z" transform="translate(-19.87 -929.56)"/><path id="_Path_23" data-name="&lt;Path&gt;" class="cls-10" d="M297,947.82l-4.25-2.61s0,7.46,0,7.6a4.87,4.87,0,0,0,2.44,4.55l11.19,6.46a7.68,7.68,0,0,0,3.84,1l0-8.91Z" transform="translate(-19.87 -929.56)"/><polygon id="_Path_24" data-name="&lt;Path&gt;" class="cls-15" points="289.13 35.24 289.9 27.44 289.65 27.44 289.13 35.21 289.13 35.24"/></g><path id="_Path_25" data-name="&lt;Path&gt;" class="cls-15" d="M324.55,949.47l-11.07,6.43a7.69,7.69,0,0,1-7.71,0l-11.19-6.46a4.91,4.91,0,0,1,0-8.49l10-5.83a9.75,9.75,0,0,1,9.77,0L324.54,941A4.91,4.91,0,0,1,324.55,949.47Z" transform="translate(-19.87 -929.56)"/><path id="_Path_26" data-name="&lt;Path&gt;" class="cls-8" d="M321.15,947.84l-8.23,4.78a7.06,7.06,0,0,1-7.08,0l-7.65-4.42a3.47,3.47,0,0,1,0-6l6.61-3.84a9,9,0,0,1,9,0l7.37,4.26A3,3,0,0,1,321.15,947.84Z" transform="translate(-19.87 -929.56)"/></g><g id="_Group_6" data-name="&lt;Group&gt;"><g id="_Group_7" data-name="&lt;Group&gt;"><path id="_Path_27" data-name="&lt;Path&gt;" class="cls-11" d="M353,968.69l-3.15,1.7L341,975.32V977h-0.1l-0.11,4.24a5.38,5.38,0,0,0,2.56-1l7.73-4.47a4,4,0,0,0,1.92-3.24v-3.87Z" transform="translate(-19.87 -929.56)"/><path id="_Path_28" data-name="&lt;Path&gt;" class="cls-10" d="M331.79,970.44l-2.86-1.75s0,3.81,0,3.9a3.28,3.28,0,0,0,1.65,3.07l7.54,4.35a5.17,5.17,0,0,0,2.58.69v-4.78Z" transform="translate(-19.87 -929.56)"/><polygon id="_Path_29" data-name="&lt;Path&gt;" class="cls-15" points="320.82 51.22 320.84 46.44 320.84 46.44 320.82 51.22 320.82 51.22"/></g><path id="_Path_30" data-name="&lt;Path&gt;" class="cls-15" d="M350.1,971.55l-7.45,4.33a5.18,5.18,0,0,1-5.19,0l-7.54-4.35a3.3,3.3,0,0,1,0-5.72l6.76-3.93a6.56,6.56,0,0,1,6.58,0l6.84,3.95A3.3,3.3,0,0,1,350.1,971.55Z" transform="translate(-19.87 -929.56)"/><path id="_Path_31" data-name="&lt;Path&gt;" class="cls-8" d="M347.82,970.46l-5.54,3.22a4.75,4.75,0,0,1-4.77,0l-5.15-3a2.34,2.34,0,0,1,0-4l4.45-2.59a6,6,0,0,1,6,0l5,2.87A2,2,0,0,1,347.82,970.46Z" transform="translate(-19.87 -929.56)"/></g><path id="_Path_32" data-name="&lt;Path&gt;" class="cls-8" d="M373.82,1119.11c0,4-2.83,5.67-6.33,3.65a14,14,0,0,1-6.33-11c0-4,2.83-5.67,6.33-3.65A14,14,0,0,1,373.82,1119.11Z" transform="translate(-19.87 -929.56)"/></g></g></g></g></svg>