<svg id="Layer_1" data-name="Layer 1" xmlns="http://www.w3.org/2000/svg" viewBox="0 0 711.95 531.89"><defs><style>.cls-1{fill:#4883c3;}.cls-2{fill:#75abdc;}.cls-3{fill:#ffc10d;}.cls-4{fill:#204282;}.cls-5{fill:#d0d2d3;}.cls-6{fill:#bb9f76;}.cls-7{fill:#dc2726;}.cls-8{fill:#d9583b;}.cls-9{fill:#f79834;}.cls-10{fill:#8b1946;}.cls-11{fill:#ffb900;}.cls-12{fill:#f2f2f2;}.cls-13{fill:#f48133;}.cls-14{fill:#b73c6f;}.cls-15{fill:#262626;}.cls-16{fill:#1d1d1d;}.cls-17{fill:#bebdbd;}.cls-18{fill:#e1e1e1;}.cls-19{fill:#c23871;}.cls-20{fill:#dd5c3f;}.cls-21{fill:#dcca98;}.cls-22{fill:#cdb983;}.cls-23{fill:#ecdebd;}.cls-24{fill:#f1e8d9;}</style></defs><title>ebook</title><polygon class="cls-1" points="426.81 309.13 199.24 374.24 6.78 248.94 208.07 197.7 426.81 309.13"/><path class="cls-2" d="M206.78,596.45l-184.61-132C5,451.75,1.91,432.51,13.35,415l192.46,125.3Z" transform="translate(-6.57 -166.01)"/><path class="cls-3" d="M43.65,434.59l-14.4-9.29c-11.47,17.44-8.4,37.25,8.75,49.87l11.12,7.41C34.36,470,32.81,451.08,43.65,434.59Z" transform="translate(-6.57 -166.01)"/><path class="cls-3" d="M177.67,521.6L162,511.81c-12.61,18.6-11.56,44.39,7.1,57.7l12.46,8.42C165.51,564.65,165.74,539.18,177.67,521.6Z" transform="translate(-6.57 -166.01)"/><path class="cls-4" d="M433.37,526.85l-226.59,69.6c-19.25-17.23-14.2-37.23-1-56.2l227.56-65.12v51.72Z" transform="translate(-6.57 -166.01)"/><path class="cls-5" d="M207.8,592.07c-16.13-15.22-10.14-32.39.46-48.44l225.12-64.22v42.73Z" transform="translate(-6.57 -166.01)"/><polygon class="cls-3" points="22.68 259.29 37.08 268.58 240.92 214.43 224.69 206.17 22.68 259.29"/><polygon class="cls-3" points="155.43 345.8 171.1 355.59 395.86 293.36 376.67 283.58 155.43 345.8"/><path class="cls-6" d="M433.37,484.27c-0.1-.35.35-0.53,0-0.45l-213.5,60.57v1.35l213.5-60.66C433.72,485,433.47,484.61,433.37,484.27Z" transform="translate(-6.57 -166.01)"/><path class="cls-6" d="M433.37,489.11c-0.1-.35.33-0.56,0-0.45l-213.5,61.52v1.35l213.5-61.62C433.72,489.82,433.47,489.46,433.37,489.11Z" transform="translate(-6.57 -166.01)"/><path class="cls-6" d="M433.37,494c-0.1-.35.34-0.55,0-0.45L219.88,556v1.36l213.5-62.58C433.72,494.67,433.47,494.31,433.37,494Z" transform="translate(-6.57 -166.01)"/><path class="cls-6" d="M433.37,498.81c-0.1-.35.34-0.54,0-0.44l-213.5,63.44v1.36l213.5-63.55C433.72,499.52,433.47,499.15,433.37,498.81Z" transform="translate(-6.57 -166.01)"/><path class="cls-6" d="M433.37,503.66c-0.1-.35.35-0.55,0-0.44l-213.5,64.42V569l213.5-64.53C433.72,504.37,433.48,504,433.37,503.66Z" transform="translate(-6.57 -166.01)"/><path class="cls-6" d="M433.37,508.5c-0.1-.35.34-0.54,0-0.44l-213.5,65.4v1.36l213.5-65.51C433.72,509.21,433.48,508.85,433.37,508.5Z" transform="translate(-6.57 -166.01)"/><path class="cls-6" d="M433.37,513.35c-0.11-.34.35-0.53,0-0.44l-213.5,66.39v1.37l213.5-66.51C433.72,514.06,433.48,513.7,433.37,513.35Z" transform="translate(-6.57 -166.01)"/><path class="cls-6" d="M433.37,518.2c-0.11-.35.34-0.55,0-0.43l-213.5,67.4v1.37L433.37,519C433.72,518.91,433.48,518.55,433.37,518.2Z" transform="translate(-6.57 -166.01)"/><polygon class="cls-7" points="22.76 166.74 212.77 283.13 433.24 228 258.14 127.9 22.76 166.74"/><path class="cls-8" d="M207.1,502.5L417.47,443.4c19.1-6.86,31-29.08,22.34-49.39L219.34,449.14Z" transform="translate(-6.57 -166.01)"/><path class="cls-9" d="M406.54,403.41l15.8-4.43c8.68,20.2,1.37,41.69-17.69,48.44l-16.86,4.49C404.46,444.47,414.75,422.51,406.54,403.41Z" transform="translate(-6.57 -166.01)"/><path class="cls-10" d="M29.32,388.93L207.1,502.5C229,492,229.54,471.35,219.34,449.14l-190-116.39v56.17Z" transform="translate(-6.57 -166.01)"/><path class="cls-5" d="M206.78,498c18.46-9.55,17.62-27.78,9.59-46.38L29.32,336.6v48.09Z" transform="translate(-6.57 -166.01)"/><polygon class="cls-9" points="415.78 232.98 399.98 237.4 222.79 133.74 240.25 130.86 415.78 232.98"/><path class="cls-6" d="M205.56,449.41L29.39,340.64a0.29,0.29,0,0,1,0,.23c-0.2.41-.43,1,0,1.22L205.19,450.61C205.31,450.21,205.43,449.81,205.56,449.41Z" transform="translate(-6.57 -166.01)"/><path class="cls-6" d="M204.09,454.63L29.45,346.52a0.3,0.3,0,0,1,0,.22c-0.2.4-.43,1,0,1.22L203.78,455.87Z" transform="translate(-6.57 -166.01)"/><path class="cls-6" d="M202.81,460L29.51,352.38a0.3,0.3,0,0,1,0,.22c-0.2.4-.43,1,0,1.22l173,107.43C202.63,460.83,202.71,460.4,202.81,460Z" transform="translate(-6.57 -166.01)"/><path class="cls-6" d="M201.65,465.42L29.57,358.22a0.29,0.29,0,0,1,0,.21c-0.2.41-.43,1,0,1.22l171.83,107Z" transform="translate(-6.57 -166.01)"/><path class="cls-6" d="M200.53,470.9L29.63,364a0.29,0.29,0,0,1,0,.21c-0.2.4-.43,1,0,1.21L200.27,472.19Z" transform="translate(-6.57 -166.01)"/><path class="cls-6" d="M199.41,476.4L29.69,369.86a0.29,0.29,0,0,1,0,.2c-0.2.4-.43,1,0,1.21l169.47,106.4Z" transform="translate(-6.57 -166.01)"/><path class="cls-6" d="M198.21,481.86L29.75,375.66a0.28,0.28,0,0,1,0,.2c-0.2.4-.42,1,0,1.21L197.92,483.13C198,482.71,198.11,482.28,198.21,481.86Z" transform="translate(-6.57 -166.01)"/><path class="cls-6" d="M196.88,487.25L29.81,381.45a0.3,0.3,0,0,1,0,.19c-0.21.4-.42,1,0,1.21L196.55,488.5Z" transform="translate(-6.57 -166.01)"/><polygon class="cls-8" points="372.56 150.93 176.96 206.9 10.56 103.06 184.54 55.15 372.56 150.93"/><path class="cls-11" d="M191.83,419.56L25.68,312.62c-14.76-10.95-18.39-28.45-8.55-43.54l166.4,103.84Z" transform="translate(-6.57 -166.01)"/><path class="cls-12" d="M43.17,286L30.8,278c-9.86,15-6.25,33,8.48,43.83l9.56,6.37C36.15,317.37,33.86,300.13,43.17,286Z" transform="translate(-6.57 -166.01)"/><path class="cls-12" d="M159.33,356.89l-13.47-8.42c-10.84,16-8.05,34.07,8,45.51l10.71,7.24C150.76,389.8,149.08,372,159.33,356.89Z" transform="translate(-6.57 -166.01)"/><path class="cls-13" d="M379.13,361.4l-187.3,58.16c-16.54-14.81-19.68-30.34-8.31-46.65l195.6-56V361.4Z" transform="translate(-6.57 -166.01)"/><path class="cls-5" d="M192.7,415.79c-13.86-13.08-16.18-26.18-7.08-40l193.5-55.2v36.73Z" transform="translate(-6.57 -166.01)"/><polygon class="cls-12" points="24.23 111.96 36.6 119.95 212.78 69.54 198.84 62.43 24.23 111.96"/><polygon class="cls-12" points="139.29 182.45 152.77 190.87 345.97 137.38 329.47 128.98 139.29 182.45"/><path class="cls-6" d="M188.36,379.69a0.56,0.56,0,0,1-.25-1.09l191-54.19c0.3-.07-0.08.09,0,0.39s0.3,0.61,0,.69L188.41,379.67h-0.05Z" transform="translate(-6.57 -166.01)"/><path class="cls-6" d="M189.21,384.46a0.56,0.56,0,0,1-.25-1.09l190.17-54.8c0.29-.09-0.08.09,0,0.39s0.3,0.61,0,.69l-189.87,54.8h-0.06Z" transform="translate(-6.57 -166.01)"/><path class="cls-6" d="M190.06,389.23a0.56,0.56,0,0,1-.25-1.09l189.33-55.4c0.29-.09-0.09.08,0,0.38s0.3,0.61,0,.69l-189,55.4h-0.06Z" transform="translate(-6.57 -166.01)"/><path class="cls-6" d="M190.91,394a0.56,0.56,0,0,1-.25-1.09l188.48-56c0.29-.08-0.09.08,0,0.38s0.3,0.61,0,.7L191,394h-0.06Z" transform="translate(-6.57 -166.01)"/><path class="cls-6" d="M191.76,398.78a0.56,0.56,0,0,1-.26-1.09l187.63-56.61c0.3-.09-0.09.08,0,0.38s0.3,0.61,0,.7L191.82,398.77h-0.06Z" transform="translate(-6.57 -166.01)"/><path class="cls-6" d="M192.61,403.56a0.56,0.56,0,0,1-.26-1.09l186.78-57.22c0.29-.09-0.09.08,0,0.38s0.3,0.61,0,.7L192.67,403.54h-0.06Z" transform="translate(-6.57 -166.01)"/><path class="cls-6" d="M193.46,408.33a0.56,0.56,0,0,1-.26-1.09l185.93-57.82c0.3-.08-0.09.08,0,0.38s0.3,0.61,0,.7L193.52,408.31h-0.06Z" transform="translate(-6.57 -166.01)"/><path class="cls-6" d="M194.31,413.1A0.56,0.56,0,0,1,194,412l185.08-58.43c0.29-.1-0.09.08,0,0.37s0.3,0.61,0,.7L194.38,413.09Z" transform="translate(-6.57 -166.01)"/><polygon class="cls-10" points="374.74 95.78 179.14 151.75 12.74 47.91 186.72 0 374.74 95.78"/><path class="cls-14" d="M194,364.41L27.86,257.46C13.1,246.52,9.47,229,19.31,213.92l166.4,103.84Z" transform="translate(-6.57 -166.01)"/><path class="cls-3" d="M161.51,301.73L148,293.31c-10.84,16-8.05,34.07,8,45.51l10.71,7.24C152.94,334.64,151.26,316.84,161.51,301.73Z" transform="translate(-6.57 -166.01)"/><path class="cls-14" d="M381.31,306.24L194,364.41c-16.54-14.81-19.68-30.34-8.31-46.65l195.6-56v44.45Z" transform="translate(-6.57 -166.01)"/><path class="cls-5" d="M194.88,360.64c-13.86-13.08-16.18-26.18-7.08-40l193.5-55.2v36.73Z" transform="translate(-6.57 -166.01)"/><path class="cls-6" d="M190.54,324.53a0.56,0.56,0,0,1-.25-1.09l191-54.19c0.3-.07-0.08.09,0,0.39s0.3,0.61,0,.69L190.59,324.52h-0.05Z" transform="translate(-6.57 -166.01)"/><path class="cls-6" d="M191.39,329.31a0.56,0.56,0,0,1-.25-1.09l190.17-54.8c0.29-.09-0.08.09,0,0.39s0.3,0.61,0,.69l-189.87,54.8h-0.06Z" transform="translate(-6.57 -166.01)"/><path class="cls-6" d="M192.24,334.08A0.56,0.56,0,0,1,192,333l189.33-55.4c0.29-.09-0.09.08,0,0.38s0.3,0.61,0,.69l-189,55.4h-0.06Z" transform="translate(-6.57 -166.01)"/><path class="cls-6" d="M193.09,338.85a0.56,0.56,0,0,1-.25-1.09l188.48-56c0.29-.08-0.09.08,0,0.38s0.3,0.61,0,.7l-188.16,56h-0.06Z" transform="translate(-6.57 -166.01)"/><path class="cls-6" d="M193.94,343.63a0.56,0.56,0,0,1-.26-1.09l187.63-56.61c0.3-.09-0.09.08,0,0.38s0.3,0.61,0,.7L194,343.61h-0.06Z" transform="translate(-6.57 -166.01)"/><path class="cls-6" d="M194.79,348.4a0.56,0.56,0,0,1-.26-1.09l186.78-57.22c0.29-.09-0.09.08,0,0.38s0.3,0.61,0,.7L194.85,348.39h-0.06Z" transform="translate(-6.57 -166.01)"/><path class="cls-6" d="M195.64,353.18a0.56,0.56,0,0,1-.26-1.09l185.93-57.82c0.3-.08-0.09.08,0,0.38s0.3,0.61,0,.7L195.7,353.16h-0.06Z" transform="translate(-6.57 -166.01)"/><path class="cls-6" d="M196.49,357.95a0.56,0.56,0,0,1-.26-1.09l185.08-58.43c0.29-.1-0.09.08,0,0.37s0.3,0.61,0,.7L196.56,357.93Z" transform="translate(-6.57 -166.01)"/><path class="cls-15" d="M291.18,583.93l212.07,10.88a7.93,7.93,0,0,1,5.38,2.49l35.47,37.79a7.93,7.93,0,0,1-1.45,12.07l-0.52.34a7.93,7.93,0,0,1-8.54.08l-2.71-1.7a7.93,7.93,0,0,1-2.82-3l-11.34-21.57a7.94,7.94,0,0,0-.81-1.24l-10.45-13.18a7.93,7.93,0,0,0-6.07-3L290.7,600a7.93,7.93,0,0,1-7-4.46l-0.08-.17A7.93,7.93,0,0,1,291.18,583.93Z" transform="translate(-6.57 -166.01)"/><path class="cls-15" d="M582.51,583.93L370.44,594.81a7.93,7.93,0,0,0-5.38,2.49l-35.47,37.79A7.93,7.93,0,0,0,331,647.17l0.52,0.34a7.93,7.93,0,0,0,8.54.08l2.71-1.7a7.93,7.93,0,0,0,2.82-3L357,621.29a7.94,7.94,0,0,1,.81-1.24l10.45-13.18a7.93,7.93,0,0,1,6.07-3L583,600a7.93,7.93,0,0,0,7-4.46l0.08-.17A7.93,7.93,0,0,0,582.51,583.93Z" transform="translate(-6.57 -166.01)"/><path class="cls-15" d="M290,582.85H279.7a5,5,0,0,0-5,5v11.06a5,5,0,0,0,2.48,4.29l6.83,3.95Z" transform="translate(-6.57 -166.01)"/><path class="cls-15" d="M582.38,582.85h10.35a5,5,0,0,1,5,5v11.06a5,5,0,0,1-2.48,4.29l-6.83,3.95Z" transform="translate(-6.57 -166.01)"/><path class="cls-15" d="M454.72,616.48c-11.93-4.92-23.61-5.75-34.86,0V584.22a155.49,155.49,0,0,1,34.86,0v32.26Z" transform="translate(-6.57 -166.01)"/><path class="cls-16" d="M420.69,584.22c-75-20-130.64-1.38-130.64-1.38L281.74,605l2,19.13A43.52,43.52,0,0,0,322,662.74l27,3.16a56.31,56.31,0,0,0,54.87-27l5.44-9.08a25.72,25.72,0,0,1,3.58-4.67L422.61,615ZM376,657.52c-21.2,7.46-55.45,2.73-70.6-6.75-12.23-7.65-16.8-29.44-14.3-46.56A19.26,19.26,0,0,1,305,588.35c5.63-1.52,14.07-3.15,26.62-4.45,38.85-4,68.15,4,71.81,20.42S397.17,650.07,376,657.52Z" transform="translate(-6.57 -166.01)"/><path class="cls-16" d="M582.55,582.85s-55.63-18.58-130.64,1.38L450,615l9.77,10.11a25.72,25.72,0,0,1,3.58,4.67l5.44,9.08a56.31,56.31,0,0,0,54.87,27l27-3.16a43.52,43.52,0,0,0,38.21-38.62l2-19.13Zm-15.31,67.93c-15.15,9.48-49.4,14.2-70.6,6.75s-31.11-36.78-27.45-53.2,33-24.45,71.81-20.42c12.55,1.3,21,2.93,26.62,4.45a19.26,19.26,0,0,1,13.92,15.87C584,621.34,579.46,643.12,567.23,650.78Z" transform="translate(-6.57 -166.01)"/><path class="cls-17" d="M477.14,680.49v10.45h22.92a2.78,2.78,0,0,0,2.78-2.78v-4.9a2.78,2.78,0,0,0-2.78-2.78H477.14Z" transform="translate(-6.57 -166.01)"/><path class="cls-18" d="M500.61,683.85a2.15,2.15,0,0,0-2.14-2.14H476.83a2.15,2.15,0,0,0-2.14,2.14v1.06h25.93v-1.06Z" transform="translate(-6.57 -166.01)"/><rect class="cls-10" x="322.9" y="509.05" width="132.78" height="22.21"/><rect class="cls-10" x="229.58" y="509.87" width="74.19" height="20.56"/><rect class="cls-17" x="222.96" y="511.53" width="6.62" height="17.25"/><polygon class="cls-17" points="195.67 522.81 195.67 517.49 224.02 512.3 224.02 528.01 195.67 522.81"/><rect class="cls-17" x="452.32" y="508.42" width="7.9" height="23.47" rx="1.85" ry="1.85"/><rect class="cls-17" x="316.99" y="508.57" width="7.8" height="23.17" rx="1.83" ry="1.83"/><rect class="cls-17" x="309.2" y="508.57" width="7.8" height="23.17" rx="1.83" ry="1.83"/><rect class="cls-17" x="301.4" y="508.57" width="7.8" height="23.17" rx="1.83" ry="1.83"/><path class="cls-17" d="M477.84,679.65V691.8a1.19,1.19,0,0,1-1.19,1.19h-5.9V678.46h5.9A1.19,1.19,0,0,1,477.84,679.65Z" transform="translate(-6.57 -166.01)"/><path class="cls-17" d="M474.68,675.92l-4.39-7.32a5.68,5.68,0,0,0-4.87-2.76H389.33a1.39,1.39,0,0,0-1,2.39l3.24,3.13a3.5,3.5,0,0,0,5-.13l1.11-1.19h64.22a3.84,3.84,0,0,1,3.64,2.6l1.31,3.83h-4.63v20h10.43a2.33,2.33,0,0,0,2.33-2.33v-17A2.33,2.33,0,0,0,474.68,675.92Z" transform="translate(-6.57 -166.01)"/><rect class="cls-19" x="328.07" y="512.3" width="120.5" height="7.41"/><rect class="cls-19" x="231.9" y="512.3" width="66.87" height="7.41"/><path class="cls-18" d="M324.63,678a2.15,2.15,0,0,1,2.14-2.14h1.39A2.15,2.15,0,0,1,330.3,678V682a2,2,0,0,1-1.95,1.95h-1.78a1.94,1.94,0,0,1-1.94-1.94V678Z" transform="translate(-6.57 -166.01)"/><path class="cls-18" d="M316.83,678a2.15,2.15,0,0,1,2.14-2.14h1.39A2.15,2.15,0,0,1,322.5,678V682a2,2,0,0,1-1.95,1.95h-1.78a1.94,1.94,0,0,1-1.94-1.94V678Z" transform="translate(-6.57 -166.01)"/><path class="cls-18" d="M309,678a2.15,2.15,0,0,1,2.14-2.14h1.39A2.15,2.15,0,0,1,314.7,678V682a2,2,0,0,1-1.95,1.95H311A1.94,1.94,0,0,1,309,682V678Z" transform="translate(-6.57 -166.01)"/><path class="cls-18" d="M467.92,678.27a2.15,2.15,0,0,1,2.14-2.14h1.39a2.15,2.15,0,0,1,2.14,2.14v3.94a2,2,0,0,1-1.95,1.95h-1.78a1.94,1.94,0,0,1-1.94-1.94v-3.94Z" transform="translate(-6.57 -166.01)"/><path class="cls-18" d="M460.12,678.27a2.15,2.15,0,0,1,2.14-2.14h1.39a2.15,2.15,0,0,1,2.14,2.14v3.94a2,2,0,0,1-1.95,1.95h-1.78a1.94,1.94,0,0,1-1.94-1.94v-3.94Z" transform="translate(-6.57 -166.01)"/><rect class="cls-18" x="224.82" y="513.41" width="4.08" height="5.43"/><polygon class="cls-18" points="197.35 520.15 197.35 518.61 222.63 514.53 222.63 520.15 197.35 520.15"/><path class="cls-20" d="M312.81,550.33L501.18,567l0.06-285.37L314.49,265.19a4,4,0,0,0-4.34,3.85l-1,277.4A3.92,3.92,0,0,0,312.81,550.33Z" transform="translate(-6.57 -166.01)"/><path class="cls-11" d="M316,545.48l185.16,16.36,0.06-280.51L317.66,265.19a3.88,3.88,0,0,0-4.27,3.79l-0.93,272.67A3.86,3.86,0,0,0,316,545.48Z" transform="translate(-6.57 -166.01)"/><path class="cls-20" d="M714.9,550.33L526.53,567l-0.06-285.37,186.74-16.42a4,4,0,0,1,4.34,3.85l1,277.4A3.92,3.92,0,0,1,714.9,550.33Z" transform="translate(-6.57 -166.01)"/><path class="cls-11" d="M711.7,545.48L526.53,561.84l-0.06-280.51,183.58-16.14a3.88,3.88,0,0,1,4.27,3.79l0.93,272.67A3.86,3.86,0,0,1,711.7,545.48Z" transform="translate(-6.57 -166.01)"/><path class="cls-20" d="M526.36,566.53c-8.29,4.79-16.67,5.48-25.18,0l0.06-285.26c8.91,8.29,17.25,8,25.06,0Z" transform="translate(-6.57 -166.01)"/><path class="cls-21" d="M452.44,254c-35.47-.24-100.64,13.49-124.64,5.35L326.92,537c24.11,8.21,70.24,7.47,105.8,5,24.29-1.7,53.29,6.17,68.46,19.88A19,19,0,0,0,514.06,567V284.62S487.91,254.23,452.44,254Z" transform="translate(-6.57 -166.01)"/><path class="cls-22" d="M575.65,254c35.47-.24,100.64,13.49,124.64,5.35L701.17,537c-24.11,8.21-70.24,7.47-105.8,5-24.29-1.7-53.29,6.17-68.46,19.88A19,19,0,0,1,514,567V284.62S540.18,254.23,575.65,254Z" transform="translate(-6.57 -166.01)"/><path class="cls-23" d="M452.45,245.3c-35.42-2.32-100.56,7.59-124.6-1.94L327,520.85c24.1,9.63,70.22,11.59,105.76,11.19,24.29-.28,53.28,9.3,68.45,23.9a165.82,165.82,0,0,0,12.88,11V284.62S487.91,247.62,452.45,245.3Z" transform="translate(-6.57 -166.01)"/><path class="cls-24" d="M575.64,245.3c35.42-2.32,100.56,7.59,124.6-1.94l0.88,277.5C677,530.48,630.91,532.44,595.36,532c-24.28-.28-53.28,9.3-68.45,23.9A165.83,165.83,0,0,1,514,567V284.62S540.18,247.62,575.64,245.3Z" transform="translate(-6.57 -166.01)"/><path class="cls-9" d="M523,276.43l5.16,150.88L535,414.94l12.13,7.74-6-164.29a0.79,0.79,0,0,0-1.35-.62l-14.12,12.28A8.27,8.27,0,0,0,523,276.43Z" transform="translate(-6.57 -166.01)"/></svg>