<svg id="Layer_1" data-name="Layer 1" xmlns="http://www.w3.org/2000/svg" viewBox="0 0 42.62 40.41"><defs><style>.cls-1{fill:#c8cacc;}.cls-2{fill:#fff;}.cls-3{fill:#e6e6e6;}.cls-4{fill:#1aafd0;}.cls-5{fill:#f2f2f2;}.cls-6{fill:#ffb900;}</style></defs><title>ebook</title><path class="cls-1" d="M2941.25,3981.14l-1.1,4.31-3.69,3.09v0.66h17.06v-0.66l-3.69-3.09-1.1-4.31-3.75-.06-3.75.06h0Zm0,0" transform="translate(-2923.69 -3948.79)"/><rect class="cls-2" x="12.78" y="39.75" width="17.06" height="0.66"/><path class="cls-3" d="M2926,3951.38H2964a2.28,2.28,0,0,1,2.27,2.27v23.45h-42.62v-23.45a2.28,2.28,0,0,1,2.27-2.27h0Zm0,0" transform="translate(-2923.69 -3948.79)"/><path class="cls-4" d="M2925.24,3975.57h39.53v-21.91a0.74,0.74,0,0,0-.73-0.73H2926a0.74,0.74,0,0,0-.73.73v21.91Zm0,0" transform="translate(-2923.69 -3948.79)"/><path class="cls-5" d="M2966.31,3977.11v2.49a2.41,2.41,0,0,1-2.51,2.27h-37.6a2.41,2.41,0,0,1-2.51-2.27v-2.49h42.62Zm0,0" transform="translate(-2923.69 -3948.79)"/><rect class="cls-2" x="21.31" y="1.11" width="18.63" height="23.75"/><path class="cls-6" d="M2962.52,3949.9c-5.69,0-11.13-2.49-17.08,0v22.24h17.08V3949.9Zm0,0" transform="translate(-2923.69 -3948.79)"/><rect class="cls-2" x="2.68" y="1.11" width="18.63" height="23.75"/><path class="cls-6" d="M2927.48,3949.9c5.84,0,14.28-2.45,17.52,0v22.24h-17.52V3949.9Zm0,0" transform="translate(-2923.69 -3948.79)"/><rect class="cls-2" x="5.28" y="2.34" width="9.36" height="1.29"/><path class="cls-2" d="M2929,3960.17h13.53v0.46H2929v-0.46Zm18,0h13.53v0.46H2947v-0.46Zm0-6h13.53v0.46H2947v-0.46Zm0,4.61h5.92v0.46H2947v-0.46Zm0-.92h13.53v0.46H2947v-0.46Zm0-.92h13.53v0.46H2947v-0.46Zm0-.92h5.92v0.46H2947V3956Zm0-.92h13.53v0.46H2947v-0.46Zm0,9.72h4.66v0.46H2947v-0.46Zm0-.92h13.53v0.46H2947v-0.46Zm0-.92h13.53v0.46H2947v-0.46Zm0-.92h13.53v0.46H2947V3962Zm0-.92h13.53v0.46H2947v-0.46Zm-18-7h13.53v0.46H2929v-0.46Zm0,4.61h5.92v0.46H2929v-0.46Zm0-.92h13.53v0.46H2929v-0.46Zm0-.92h13.53v0.46H2929v-0.46Zm0-.92h13.53v0.46H2929V3956Zm0-.92h13.53v0.46H2929v-0.46Zm0,9.72h4.66v0.46H2929v-0.46Zm0-.92h13.53v0.46H2929v-0.46Zm0-.92h13.53v0.46H2929v-0.46Zm0-.92h13.53v0.46H2929V3962Zm0-.92h13.53v0.46H2929v-0.46Zm0,0" transform="translate(-2923.69 -3948.79)"/></svg>