<svg id="Layer_1" data-name="Layer 1" xmlns="http://www.w3.org/2000/svg" viewBox="0 0 35.86 29.29"><defs><style>.cls-1{fill:#1aafd0;}.cls-2{fill:#ffb900;}</style></defs><title>photography</title><path class="cls-1" d="M2901.06,3959.37H2896l-2.39-6h-15.15l-2.39,6h-0.79v-3h-3.59v3h-0.72a2.87,2.87,0,0,0-2.87,2.87v17.55a2.89,2.89,0,0,0,2.89,2.89H2901a2.89,2.89,0,0,0,2.89-2.89v-17.55a2.87,2.87,0,0,0-2.87-2.87h0Zm-28.21-1.79h1.2v1.79h-1.2v-1.79Zm29.89,22.21a1.69,1.69,0,0,1-1.69,1.7H2871a1.7,1.7,0,0,1-1.69-1.7v-17.55a1.67,1.67,0,0,1,1.67-1.67h5.9l2.39-6h13.54l2.39,6h5.9a1.67,1.67,0,0,1,1.67,1.67v17.55Zm0,0" transform="translate(-2868.07 -3953.39)"/><path class="cls-1" d="M2886,3958.77a10.76,10.76,0,1,0,10.76,10.76,10.77,10.77,0,0,0-10.76-10.76h0Zm0,20.32a9.56,9.56,0,1,1,9.56-9.56,9.57,9.57,0,0,1-9.56,9.56h0Zm0,0" transform="translate(-2868.07 -3953.39)"/><path class="cls-2" d="M2886,3962.36a7.17,7.17,0,1,0,7.17,7.17,7.18,7.18,0,0,0-7.17-7.17h0Zm0,13.15a6,6,0,1,1,6-6,6,6,0,0,1-6,6h0Zm0,0" transform="translate(-2868.07 -3953.39)"/><path class="cls-2" d="M2899.15,3961.76a2.39,2.39,0,1,0,2.39,2.39,2.4,2.4,0,0,0-2.39-2.39h0Zm0,3.59a1.2,1.2,0,1,1,1.19-1.2,1.2,1.2,0,0,1-1.19,1.2h0Zm0,0" transform="translate(-2868.07 -3953.39)"/></svg>