<svg id="Layer_1" data-name="Layer 1" xmlns="http://www.w3.org/2000/svg" viewBox="0 0 38.32 43.79"><defs><style>.cls-1{fill:#ffb900;}.cls-2{fill:#13a0b7;}</style></defs><title>Sketchut</title><path class="cls-1" d="M3063,3964.35a0.54,0.54,0,0,0,.54.54h14.1a0.54,0.54,0,0,0,.54-0.54v-8.78a0.54,0.54,0,0,0-.54-0.54h-14.1a0.54,0.54,0,0,0-.54.54v8.78Zm1.08-8.24h13v7.7h-13v-7.7Zm0,0" transform="translate(-3042.78 -3947.99)"/><path class="cls-1" d="M3074.4,3957.44a0.54,0.54,0,0,0-.77,0l-3.89,3.89-2.22-2.22a0.54,0.54,0,0,0-.77,0l-1.68,1.68a0.54,0.54,0,0,0,.77.77l1.29-1.29,2.22,2.22a0.54,0.54,0,0,0,.77,0l3.89-3.89,1.41,1.41a0.54,0.54,0,0,0,.77-0.77Zm0,0" transform="translate(-3042.78 -3947.99)"/><path class="cls-1" d="M3071.08,3973.85a5.37,5.37,0,1,0,5.36,5.36,5.37,5.37,0,0,0-5.36-5.36h0Zm4.25,4.82h-4l-2.84-2.84a4.28,4.28,0,0,1,6.86,2.84h0Zm-8.53.54a4.26,4.26,0,0,1,.9-2.62l2.75,2.75L3069,3983a4.28,4.28,0,0,1-2.23-3.75h0Zm4.28,4.28a4.28,4.28,0,0,1-1-.13l1.42-3.61h3.88a4.29,4.29,0,0,1-4.25,3.74h0Zm0,0" transform="translate(-3042.78 -3947.99)"/><path class="cls-1" d="M3052.38,3974.08h4.2a0.54,0.54,0,0,0,.47-0.81l-3.9-6.75a0.54,0.54,0,0,0-.94,0l-1.63,2.82-0.58-1a0.54,0.54,0,0,0-.94,0l-2.85,4.94a0.54,0.54,0,0,0,.47.81h5.7Zm0.3-6.21,3,5.13h-5.92Zm-3.15,1.82,0.43,0.74-1.49,2.57h-0.85Zm0,0" transform="translate(-3042.78 -3947.99)"/><path class="cls-2" d="M3049.78,3959.75h9.87a0.54,0.54,0,0,0,0-1.08h-9.87a0.54,0.54,0,0,0,0,1.08h0Zm0,0" transform="translate(-3042.78 -3947.99)"/><path class="cls-2" d="M3045.83,3959.75h2.22a0.54,0.54,0,0,0,0-1.08h-2.22a0.54,0.54,0,0,0,0,1.08h0Zm0,0" transform="translate(-3042.78 -3947.99)"/><path class="cls-2" d="M3060.19,3961.3a0.54,0.54,0,0,0-.54-0.54h-13.81a0.54,0.54,0,0,0,0,1.08h13.81a0.54,0.54,0,0,0,.54-0.54h0Zm0,0" transform="translate(-3042.78 -3947.99)"/><path class="cls-2" d="M3066.55,3968.57a0.54,0.54,0,1,0,0,1.08h9.87a0.54,0.54,0,0,0,0-1.08h-9.87Zm0,0" transform="translate(-3042.78 -3947.99)"/><path class="cls-2" d="M3062.61,3969.66h2.22a0.54,0.54,0,1,0,0-1.08h-2.22a0.54,0.54,0,1,0,0,1.08h0Zm0,0" transform="translate(-3042.78 -3947.99)"/><path d="M3062.61,3971.76h13.81a0.54,0.54,0,1,0,0-1.08h-13.81a0.54,0.54,0,1,0,0,1.08h0Zm0,0" transform="translate(-3042.78 -3947.99)"/><path class="cls-2" d="M3061.25,3977.63h-9.87a0.54,0.54,0,1,0,0,1.08h9.87a0.54,0.54,0,0,0,0-1.08h0Zm0,0" transform="translate(-3042.78 -3947.99)"/><path class="cls-2" d="M3047.43,3977.63a0.54,0.54,0,0,0,0,1.08h2.22a0.54,0.54,0,0,0,0-1.08h-2.22Zm0,0" transform="translate(-3042.78 -3947.99)"/><path class="cls-2" d="M3061.25,3979.72h-13.81a0.54,0.54,0,0,0,0,1.08h13.81a0.54,0.54,0,1,0,0-1.08h0Zm0,0" transform="translate(-3042.78 -3947.99)"/><path class="cls-2" d="M3080.56,3948h-31.33a0.54,0.54,0,0,0-.38.16l-5.91,5.91a0.54,0.54,0,0,0-.16.38v36.8a0.54,0.54,0,0,0,.54.54h31.31a0.54,0.54,0,0,0,.38-0.16l5.93-5.91a0.54,0.54,0,0,0,.16-0.38v-36.8a0.54,0.54,0,0,0-.54-0.54h0Zm-31.87,1.85v4.06h-4.06Zm-4.83,5.15h5.37a0.54,0.54,0,0,0,.54-0.54v-5.37H3080v35.71h-5.37a0.54,0.54,0,0,0-.54.54v5.37h-30.24V3955Zm35.39,30.89-4.06,4v-4h4.06Zm0,0" transform="translate(-3042.78 -3947.99)"/><path class="cls-2" d="M3059.77,3988.28h-4.14a0.54,0.54,0,0,0,0,1.08h4.14a0.54,0.54,0,0,0,0-1.08h0Zm0,0" transform="translate(-3042.78 -3947.99)"/><path class="cls-2" d="M3068.24,3988.28h-4.14a0.54,0.54,0,0,0,0,1.08h4.14a0.54,0.54,0,0,0,0-1.08h0Zm0,0" transform="translate(-3042.78 -3947.99)"/><path class="cls-2" d="M3061.22,3987.51a0.54,0.54,0,0,0-.54.54v1.25a0.54,0.54,0,1,0,1.08,0v-1.25a0.54,0.54,0,0,0-.54-0.54h0Zm0,0" transform="translate(-3042.78 -3947.99)"/><path class="cls-2" d="M3062.66,3987.51a0.54,0.54,0,0,0-.54.54v1.25a0.54,0.54,0,1,0,1.08,0v-1.25a0.54,0.54,0,0,0-.54-0.54h0Zm0,0" transform="translate(-3042.78 -3947.99)"/><path class="cls-2" d="M3055.63,3951.8h4.14a0.54,0.54,0,0,0,0-1.08h-4.14a0.54,0.54,0,0,0,0,1.08h0Zm0,0" transform="translate(-3042.78 -3947.99)"/><path class="cls-2" d="M3064.11,3951.8h4.14a0.54,0.54,0,0,0,0-1.08h-4.14a0.54,0.54,0,0,0,0,1.08h0Zm0,0" transform="translate(-3042.78 -3947.99)"/><path class="cls-2" d="M3061.22,3952.27a0.54,0.54,0,0,0,.54-0.54v-1.25a0.54,0.54,0,0,0-1.08,0v1.25a0.54,0.54,0,0,0,.54.54h0Zm0,0" transform="translate(-3042.78 -3947.99)"/><path class="cls-2" d="M3062.66,3952.27a0.54,0.54,0,0,0,.54-0.54v-1.25a0.54,0.54,0,0,0-1.08,0v1.25a0.54,0.54,0,0,0,.54.54h0Zm0,0" transform="translate(-3042.78 -3947.99)"/></svg>