<svg id="Layer_1" data-name="Layer 1" xmlns="http://www.w3.org/2000/svg" viewBox="0 0 42.05 42.05"><defs><style>.cls-1{fill:#1aafd0;}.cls-2{fill:#13a0b7;}.cls-3{fill:#ffb900;}</style></defs><title>social media</title><rect class="cls-1" x="21.42" y="22.21" width="1.58" height="14.28"/><path class="cls-1" d="M3018.87,3951l1.12,1.12-11.9,11.9-1.12-1.12Zm0,0" transform="translate(-2982.94 -3946.81)"/><path class="cls-1" d="M3003,3966.88l1.12,1.12-15.87,15.86-1.12-1.12Zm0,0" transform="translate(-2982.94 -3946.81)"/><path class="cls-1" d="M2993.81,3953.39l8.73,8.73-1.12,1.12-8.72-8.73Zm0,0" transform="translate(-2982.94 -3946.81)"/><path class="cls-1" d="M3007.3,3966.88l11.9,11.9-1.12,1.12-11.9-11.9Zm0,0" transform="translate(-2982.94 -3946.81)"/><path class="cls-2" d="M3025,3950.78a4,4,0,1,1-4-4,4,4,0,0,1,4,4h0Zm0,0" transform="translate(-2982.94 -3946.81)"/><path class="cls-2" d="M3009.12,3984.9a4,4,0,1,1-4-4,4,4,0,0,1,4,4h0Zm0,0" transform="translate(-2982.94 -3946.81)"/><path class="cls-2" d="M2990.87,3983.31a4,4,0,1,1-4-4,4,4,0,0,1,4,4h0Zm0,0" transform="translate(-2982.94 -3946.81)"/><path class="cls-2" d="M2994.84,3953.16a2.38,2.38,0,1,1-2.38-2.38,2.38,2.38,0,0,1,2.38,2.38h0Zm0,0" transform="translate(-2982.94 -3946.81)"/><path class="cls-2" d="M3020.23,3978.55a2.38,2.38,0,1,1-2.38-2.38,2.38,2.38,0,0,1,2.38,2.38h0Zm0,0" transform="translate(-2982.94 -3946.81)"/><path class="cls-3" d="M3010.71,3965.85a5.55,5.55,0,1,1-5.56-5.55,5.56,5.56,0,0,1,5.56,5.55h0Zm0,0" transform="translate(-2982.94 -3946.81)"/></svg>