<svg id="Layer_1" data-name="Layer 1" xmlns="http://www.w3.org/2000/svg" viewBox="0 0 35.82 35.82"><defs><style>.cls-1{fill:#1aafd0;}.cls-2{fill:#ffb900;}</style></defs><title>video</title><path class="cls-1" d="M3078.65,3904a18.06,18.06,0,0,0-5.29-6.21,0.73,0.73,0,0,0-.87,1.17,16.6,16.6,0,0,1,4.86,5.71,16.27,16.27,0,0,1,1.82,7.53,16.45,16.45,0,1,1-16.45-16.45,0.73,0.73,0,0,0,0-1.46,17.9,17.9,0,1,0,15.93,9.71h0Zm0,0" transform="translate(-3044.81 -3894.3)"/><path class="cls-2" d="M3058.14,3903.89a0.73,0.73,0,0,0-.37.63v16a0.73,0.73,0,1,0,1.46,0v-14.71l10.79,6.42-7.94,5.11a0.73,0.73,0,0,0,.79,1.22l8.92-5.75a0.73,0.73,0,0,0,0-1.24l-12.9-7.68a0.73,0.73,0,0,0-.73,0h0Zm0,0" transform="translate(-3044.81 -3894.3)"/></svg>