<svg id="Layer_1" data-name="Layer 1" xmlns="http://www.w3.org/2000/svg" viewBox="0 0 32.11 39.16"><defs><style>.cls-1{fill:#1aafd0;}.cls-2{fill:#ffb900;}</style></defs><title>web design</title><path class="cls-1" d="M2881.44,3928.26a0.63,0.63,0,0,0,1.12,0l5.37-10.73a0.63,0.63,0,0,0,.06-0.38l-1.67-10.66,1.05-12a0.63,0.63,0,0,0-.63-0.68h-9.25a0.63,0.63,0,0,0-.63.68l0.88,11.76a0.63,0.63,0,0,0-.05.17l-1.68,10.73a0.63,0.63,0,0,0,.06.38Zm0.56-12.31a1.72,1.72,0,1,1,1.72-1.72A1.72,1.72,0,0,1,2882,3915.94Zm4.06-20.88-0.95,10.82H2879l-0.81-10.82h7.89Zm-7.21,12.07h6.3l1.56,10-4.09,8.17v-8.18a3,3,0,1,0-1.26,0v8.18l-4.09-8.17Z" transform="translate(-2865.94 -3893.81)"/><path class="cls-2" d="M2894.41,3928.35h-3.35a0.63,0.63,0,0,0-.63.63v1h-16.85v-1a0.63,0.63,0,0,0-.63-0.63h-3.35a0.63,0.63,0,0,0-.63.63v3.35a0.63,0.63,0,0,0,.63.63h3.35a0.63,0.63,0,0,0,.63-0.63v-1h16.85v1a0.63,0.63,0,0,0,.63.63h3.35a0.63,0.63,0,0,0,.63-0.63V3929A0.63,0.63,0,0,0,2894.41,3928.35Zm-22.09,3.35h-2.1v-2.1h2.1v2.1Zm21.47,0h-2.1v-2.1h2.1v2.1Z" transform="translate(-2865.94 -3893.81)"/><path class="cls-2" d="M2882,3929.95a16.08,16.08,0,0,0,16.06-16.06,0.63,0.63,0,1,0-1.26,0,14.8,14.8,0,0,1-29.6,0,0.63,0.63,0,1,0-1.26,0A16.08,16.08,0,0,0,2882,3929.95Z" transform="translate(-2865.94 -3893.81)"/></svg>