<svg xmlns="http://www.w3.org/2000/svg" viewBox="0 0 717.12 710.87"><defs><style>.cls-1{isolation:isolate;}.cls-2{fill:#747678;}.cls-3{fill:#8b9092;}.cls-4{fill:#adafb0;}.cls-5{fill:#a0a7ad;}.cls-6{fill:#cacacc;}.cls-7{fill:#e5f4f7;}.cls-8{fill:#f37c54;}.cls-9{fill:#ffb900;}.cls-10{fill:#cf3a52;}.cls-11{fill:#e3516e;}.cls-12{fill:#4f9cd0;}.cls-13{fill:#8f959b;}.cls-14{fill:#b5b5b7;}.cls-15{fill:#c76746;}.cls-16{fill:#5cd2d2;}.cls-17{fill:#4baeaf;}.cls-18{fill:#9fe5e5;}.cls-19{fill:#20aae0;}.cls-20{fill:#f6678a;}.cls-21{fill:#4181ad;}.cls-22{fill:#97c5e4;}.cls-23{fill:#f2c06b;}.cls-24{fill:#d1d3d4;}.cls-25{fill:#c69f59;}.cls-26{fill:#f8b29b;}.cls-27{fill:#f8daa9;}.cls-28{fill:#909193;}.cls-29{fill:#758082;}.cls-30{fill:#adb5b6;}.cls-31{fill:#e4e4e5;}.cls-32{fill:#eb4517;}.cls-33{fill:#fff;}.cls-34{fill:#c59e78;}.cls-35{fill:#485654;}.cls-36{fill:#6e8583;}.cls-37{fill:#5b6e6c;}.cls-38{fill:#3b4846;}.cls-39{fill:#262729;}.cls-40{fill:#7f56c5;}.cls-41{fill:#c2a9e3;}.cls-41,.cls-42{mix-blend-mode:overlay;}.cls-42{fill:#e8dbf3;opacity:0.8;}.cls-43{fill:#00a19b;}.cls-44{fill:#7c98ab;}.cls-45{fill:#a7bac9;}.cls-46{fill:#5d7e95;}.cls-47{fill:#21adad;}.cls-48{fill:#e6e7e8;}.cls-49{fill:#d3d1d3;}.cls-50{mix-blend-mode:multiply;}.cls-51{fill:#a4dae7;}.cls-52{fill:#d3ecf3;}.cls-53{fill:#c8858f;}.cls-54,.cls-55{fill:#446ca9;}.cls-55,.cls-74{opacity:0.5;}.cls-55,.cls-57{mix-blend-mode:screen;}.cls-56{fill:#1e428a;}.cls-57{fill:#959bc4;opacity:0.25;}.cls-58{fill:#e7e9ea;}.cls-59{fill:#afb6bb;}.cls-60{fill:#543e36;}.cls-61{fill:#72594b;}.cls-62{fill:#fffffe;}.cls-63{fill:#d2cfcb;}.cls-64{fill:#b19380;}.cls-65{fill:#a08171;}.cls-66{fill:#008fbe;}.cls-67{fill:#00c1de;}.cls-68{fill:#55565a;}.cls-69{fill:#342e1f;}.cls-70{fill:#6fd1e6;}.cls-71{fill:#f0d0b4;}.cls-72{fill:#222;}.cls-73{fill:#77bc1f;}.cls-74,.cls-76{fill:#bde087;}.cls-75{fill:#a4d55d;}.cls-77{fill:#fd5373;}.cls-78{fill:#cf0a2c;}.cls-79{fill:#f3f4f4;}.cls-80{fill:#e4615b;}.cls-81{fill:#768ebe;}.cls-82{fill:#1ccfc9;}.cls-83{fill:#8ae1db;}.cls-84{fill:#00c4bc;}.cls-85{fill:#edeeee;}.cls-86{fill:#f18b81;}.cls-87{fill:#5e6ca6;}</style></defs><title>4</title><g class="cls-1"><g id="Layer_1" data-name="Layer 1"><polyline class="cls-2" points="505.64 550.64 429.31 594.71 429.31 602.69 505.64 558.66 505.64 550.64"/><polyline class="cls-3" points="425.57 592.57 425.59 600.5 429.31 602.69 429.31 594.71 425.57 592.57"/><polyline class="cls-4" points="501.9 548.49 501.9 548.49 425.57 592.57 429.31 594.71 505.64 550.64 501.9 548.49"/><polyline class="cls-2" points="491.75 542.55 415.43 586.62 415.43 594.6 491.75 550.57 491.75 542.55"/><polyline class="cls-3" points="411.69 584.48 411.71 592.41 415.43 594.6 415.43 586.62 411.69 584.48"/><polyline class="cls-4" points="488.02 540.4 488.02 540.4 411.69 584.48 411.69 584.48 415.43 586.62 491.75 542.55 488.02 540.4"/><polyline class="cls-2" points="478 534.65 401.67 578.72 401.67 586.7 478 542.67 478 534.65"/><polyline class="cls-3" points="397.94 576.58 397.95 584.51 401.67 586.7 401.67 578.72 397.94 576.58"/><polyline class="cls-4" points="474.27 532.5 397.94 576.58 401.67 578.72 478 534.65 474.27 532.5"/><path class="cls-5" d="M3056,560.31L2635,317.16a31.23,31.23,0,0,1-15.61-27V22.65a15.61,15.61,0,0,1,23.41-13.53L3063.82,251.7a31.23,31.23,0,0,1,15.64,27.06v268A15.61,15.61,0,0,1,3056,560.31" transform="translate(-2443.88 -7.01)"/><path class="cls-5" d="M2789.13,417.15l0.13,40.42a26.77,26.77,0,0,1-13.38,23.27l-35.15,20.29,97.16,56.09L2873.13,537a26.77,26.77,0,0,0,13.43-23.21V473.15l-97.44-56" transform="translate(-2443.88 -7.01)"/><polygon class="cls-5" points="618.1 558.29 627.27 553.58 619.37 542.55 618.1 558.29"/><polygon class="cls-5" points="183.06 2.23 173.71 7.04 178.38 7 183.06 2.23"/><path class="cls-6" d="M3046.18,565.4L2625.09,322.25a31.23,31.23,0,0,1-15.61-27V27.74a15.61,15.61,0,0,1,23.41-13.53L3054,256.8a31.23,31.23,0,0,1,15.64,27.06v268a15.61,15.61,0,0,1-23.42,13.52" transform="translate(-2443.88 -7.01)"/><polyline class="cls-7" points="186.42 30.23 186.42 286.12 603.19 526.75 603.19 269.89 186.42 30.23"/><polyline class="cls-8" points="207.33 65.85 207.32 97.9 575.03 310.18 575.05 278.19 207.33 65.85"/><polyline class="cls-9" points="207.44 114.03 207.41 210.27 283.62 254.16 283.7 158.1 207.44 114.03"/><polyline class="cls-10" points="297.45 174.03 297.33 269.97 373.78 314.25 373.81 218.09 297.45 174.03"/><path class="cls-11" d="M2758,270h0l6.86,4h0l-6.86-4m-16.7-89L2741.21,277l16.8,9.73,0-16.71-0.32-.19-1.82.85-0.39-.81,1.11-.67,6.91-4,1.38,0.8,4.91,2.84h0l0.93,0.54,1.15,0.66,9.16,5.29,4.6,2.66h0l5.7,6a2.23,2.23,0,0,0,2.73.39l5.37-3.09,7,4-12.53,7.26a2.23,2.23,0,0,1-2.53-.2l-5.75-4.68h0l5.75,4.68a2.23,2.23,0,0,0,2.53.2l12.53-7.26v4.63l-12.54,7.26a2.23,2.23,0,0,1-2.52-.19l-5.75-4.63v10.47l32,18.53,0-96.16L2741.33,181" transform="translate(-2443.88 -7.01)"/><polyline class="cls-12" points="401.52 226.04 401.49 322.28 477.89 366.28 478.16 270.25 401.52 226.04"/><polyline class="cls-9" points="498.73 282.18 498.72 450.46 575.06 494.54 575.37 326.38 498.73 282.18"/><polyline class="cls-13" points="435.75 462.22 435.75 470.2 442.62 466.19 435.75 462.22"/><polyline class="cls-14" points="435.75 462.14 435.75 462.22 442.62 466.19 442.69 466.14 435.75 462.14"/><path class="cls-5" d="M2836.11,429.78c0,4-3.22,5.34-7.2,3.05s-7.2-7.37-7.2-11.35,3.22-5.34,7.2-3.05S2836.11,425.8,2836.11,429.78Z" transform="translate(-2443.88 -7.01)"/><polyline class="cls-8" points="207.26 65.83 210.84 63.76 578.54 276.19 578.47 308.27 575.07 310.25 575.05 278.18 207.26 65.83"/><polyline class="cls-15" points="578.54 276.19 575.05 278.18 575.07 310.25 578.47 308.18 578.54 276.19"/><polygon class="cls-5" points="190.85 32.78 190.85 288.68 186.42 286.12 186.42 30.23 190.85 32.78"/><polyline class="cls-5" points="190.86 283.62 603.19 521.64 603.19 526.74 186.42 286.16 190.86 283.62"/><polyline class="cls-16" points="207.25 113.91 210.87 111.86 287.19 155.96 287.24 252.05 283.62 254.16 283.7 158.1 207.25 113.91"/><polyline class="cls-17" points="287.19 155.96 283.7 158.1 283.62 254.15 287.24 252.05 287.19 155.96"/><polyline class="cls-18" points="210.87 111.86 207.25 113.91 283.7 158.1 287.19 155.96 210.87 111.86"/><polyline class="cls-19" points="297.45 174.03 307.99 167.95 384.27 212.04 384.21 308.26 373.78 314.25 373.81 218.09 297.45 174.03"/><polyline class="cls-10" points="297.45 174.03 307.99 167.95 384.27 212.04 373.81 218.09 297.45 174.03"/><polyline class="cls-20" points="307.99 167.95 297.45 174.03 373.81 218.09 384.27 212.04 307.99 167.95"/><polygon class="cls-10" points="384.27 212.04 384.21 308.26 373.78 314.25 373.81 218.09 384.27 212.04"/><polyline class="cls-12" points="401.52 226.04 405.14 224 481.46 268.09 481.5 364.19 477.89 366.28 478.16 270.24 401.52 226.04"/><polyline class="cls-21" points="481.46 268.09 478.16 270.24 477.89 366.28 481.5 364.19 481.46 268.09"/><polyline class="cls-22" points="405.14 224 401.52 226.04 478.16 270.24 481.46 268.09 405.14 224"/><polyline class="cls-23" points="498.72 282.17 502.34 280.12 578.66 324.22 578.69 492.45 575.07 494.55 574.99 326.16 498.72 282.17"/><polyline class="cls-7" points="578.66 324.22 578.66 324.22 578.69 492.45 578.69 492.45 578.66 324.22"/><polyline class="cls-24" points="578.66 324.22 578.66 324.22 578.69 492.45 578.69 492.45 578.66 324.22"/><polyline class="cls-25" points="578.66 324.22 574.99 326.16 575.07 494.54 578.69 492.45 578.66 324.22"/><polyline class="cls-26" points="210.83 63.77 207.26 65.83 575.05 278.18 578.54 276.19 210.83 63.77"/><polyline class="cls-27" points="502.34 280.12 498.72 282.17 574.99 326.16 578.66 324.22 502.34 280.12"/><polyline class="cls-7" points="207.24 226.1 207.24 234.12 283.58 278.18 283.58 270.17 207.24 226.1"/><polyline class="cls-28" points="207.24 226.1 207.24 234.12 283.58 278.18 283.58 270.17 207.24 226.1"/><polyline class="cls-7" points="287.28 268.01 283.58 270.17 283.58 278.18 287.21 276.06 287.28 268.01"/><polyline class="cls-29" points="287.28 268.01 283.58 270.17 283.58 278.18 287.21 276.06 287.28 268.01"/><polyline class="cls-7" points="210.95 223.94 207.24 226.1 283.58 270.17 287.28 268.01 210.95 223.94"/><polyline class="cls-30" points="210.95 223.94 207.24 226.1 283.58 270.17 287.28 268.01 210.95 223.94"/><polyline class="cls-7" points="207.24 242.13 207.24 250.15 283.58 294.21 283.58 286.2 207.24 242.13"/><polyline class="cls-28" points="207.24 242.13 207.24 250.15 283.58 294.21 283.58 286.2 207.24 242.13"/><polyline class="cls-7" points="287.28 284.05 283.58 286.2 283.58 294.21 287.21 292.09 287.28 284.05"/><polyline class="cls-29" points="287.28 284.05 283.58 286.2 283.58 294.21 287.21 292.09 287.28 284.05"/><polyline class="cls-7" points="210.95 239.97 207.24 242.13 283.58 286.2 287.28 284.05 210.95 239.97"/><polyline class="cls-30" points="210.95 239.97 207.24 242.13 283.58 286.2 287.28 284.05 210.95 239.97"/><polyline class="cls-7" points="207.24 258.15 207.24 266.16 283.58 310.23 283.58 302.22 207.24 258.15"/><polyline class="cls-28" points="207.24 258.15 207.24 266.16 283.58 310.23 283.58 302.22 207.24 258.15"/><polyline class="cls-7" points="287.28 300.06 283.58 302.22 283.58 310.23 287.21 308.11 287.28 300.06"/><polyline class="cls-29" points="287.28 300.06 283.58 302.22 283.58 310.23 287.21 308.11 287.28 300.06"/><polyline class="cls-7" points="210.95 255.99 207.24 258.15 283.58 302.22 287.28 300.06 210.95 255.99"/><polyline class="cls-30" points="210.95 255.99 207.24 258.15 283.58 302.22 287.28 300.06 210.95 255.99"/><polyline class="cls-7" points="207.24 274.18 207.24 282.19 283.58 326.26 283.58 318.25 207.24 274.18"/><polyline class="cls-28" points="207.24 274.18 207.24 282.19 283.58 326.26 283.58 318.25 207.24 274.18"/><polyline class="cls-7" points="287.28 316.09 283.58 318.25 283.58 326.26 287.21 324.13 287.28 316.09"/><polyline class="cls-29" points="287.28 316.09 283.58 318.25 283.58 326.26 287.21 324.13 287.28 316.09"/><polyline class="cls-7" points="210.95 272.02 207.24 274.18 283.58 318.25 287.28 316.09 210.95 272.02"/><polyline class="cls-30" points="210.95 272.02 207.24 274.18 283.58 318.25 287.28 316.09 210.95 272.02"/><path class="cls-7" d="M2785.66,310.79v8l17.83,10.3,2.7-1.59,7,4.05-0.61,2.76,12.06,7v-8l-38.94-22.48m-37.39-21.59v8l9.72,5.61v-8l-9.73-5.62" transform="translate(-2443.88 -7.01)"/><path class="cls-28" d="M2785.66,310.79v8l17.83,10.3,2.7-1.59,7,4.05-0.61,2.76,12.06,7v-8l-38.94-22.48m-37.39-21.59v8l9.72,5.61v-8l-9.73-5.62" transform="translate(-2443.88 -7.01)"/><polyline class="cls-7" points="384.43 324.11 380.72 326.26 380.72 334.28 384.36 332.15 384.43 324.11"/><polyline class="cls-29" points="384.43 324.11 380.72 326.26 380.72 334.28 384.36 332.15 384.43 324.11"/><path class="cls-7" d="M2785.66,306.5v4.3l38.94,22.48,3.71-2.16-42.65-24.62M2752,287l-3.71,2.16,9.73,5.62v-4.29l-6-3.48" transform="translate(-2443.88 -7.01)"/><path class="cls-30" d="M2785.66,306.5v4.3l38.94,22.48,3.71-2.16-42.65-24.62M2752,287l-3.71,2.16,9.73,5.62v-4.29l-6-3.48" transform="translate(-2443.88 -7.01)"/><path class="cls-7" d="M2811,341.43l-1.58,7.1,15.21,8.78v-8L2811,341.43m-32.18-18.58v7.21l-10.88-6.27-0.16.7,36.33,21,1.58-7.1-26.88-15.52m-30.52-17.62v8l7.21,4.16,1.58-7.1-8.79-5.07" transform="translate(-2443.88 -7.01)"/><path class="cls-28" d="M2811,341.43l-1.58,7.1,15.21,8.78v-8L2811,341.43m-32.18-18.58v7.21l-10.88-6.27-0.16.7,36.33,21,1.58-7.1-26.88-15.52m-30.52-17.62v8l7.21,4.16,1.58-7.1-8.79-5.07" transform="translate(-2443.88 -7.01)"/><polyline class="cls-7" points="384.43 340.14 380.72 342.3 380.72 350.31 384.36 348.18 384.43 340.14"/><polyline class="cls-29" points="384.43 340.14 380.72 342.3 380.72 350.31 384.36 348.18 384.43 340.14"/><path class="cls-7" d="M2811.81,337.63l-0.85,3.81,13.64,7.87,3.71-2.16-16.5-9.52m-33-15.56v0.79l26.88,15.52,0.61-2.75-7-4.05,1-.59-14.64-8.45V326h0l-6.87-4m-26.81-19-3.71,2.16,8.79,5.07,0.63-2.82,0.3-.17v-0.77l-6-3.47" transform="translate(-2443.88 -7.01)"/><path class="cls-30" d="M2811.81,337.63l-0.85,3.81,13.64,7.87,3.71-2.16-16.5-9.52m-33-15.56v0.79l26.88,15.52,0.61-2.75-7-4.05,1-.59-14.64-8.45V326h0l-6.87-4m-26.81-19-3.71,2.16,8.79,5.07,0.63-2.82,0.3-.17v-0.77l-6-3.47" transform="translate(-2443.88 -7.01)"/><path class="cls-7" d="M2801.06,359l-0.62.36,0.48,0.28,0.14-.64m6.75-3.4-1.58,7.1,18.37,10.6v-8l-16.79-9.69m-59.55-34.38v8l4.05,2.34,1.58-7.1-5.63-3.25" transform="translate(-2443.88 -7.01)"/><path class="cls-28" d="M2801.06,359l-0.62.36,0.48,0.28,0.14-.64m6.75-3.4-1.58,7.1,18.37,10.6v-8l-16.79-9.69m-59.55-34.38v8l4.05,2.34,1.58-7.1-5.63-3.25" transform="translate(-2443.88 -7.01)"/><polyline class="cls-7" points="384.43 356.16 380.72 358.31 380.72 366.32 384.36 364.2 384.43 356.16"/><polyline class="cls-29" points="384.43 356.16 380.72 358.31 380.72 366.32 384.36 364.2 384.43 356.16"/><path class="cls-7" d="M2808.66,351.82l-0.85,3.81,16.79,9.69,3.71-2.16-19.65-11.34m-41.64-24-0.22,1h0l36.32,20.9,0.21-.93-36.33-21M2752,319.09l-3.71,2.16,5.63,3.25,0.85-3.81-2.77-1.6" transform="translate(-2443.88 -7.01)"/><path class="cls-30" d="M2808.66,351.82l-0.85,3.81,16.79,9.69,3.71-2.16-19.65-11.34m-41.64-24-0.22,1h0l36.32,20.9,0.21-.93-36.33-21M2752,319.09l-3.71,2.16,5.63,3.25,0.85-3.81-2.77-1.6" transform="translate(-2443.88 -7.01)"/><path class="cls-7" d="M2804.66,369.84l-1.58,7.1,21.52,12.42v-8l-19.95-11.52m-41.64-24-1.58,7.1,36.32,21,1.58-7.1-36.32-21m-14.75-8.52v8l0.9,0.52,1.58-7.1-2.47-1.43" transform="translate(-2443.88 -7.01)"/><path class="cls-28" d="M2804.66,369.84l-1.58,7.1,21.52,12.42v-8l-19.95-11.52m-41.64-24-1.58,7.1,36.32,21,1.58-7.1-36.32-21m-14.75-8.52v8l0.9,0.52,1.58-7.1-2.47-1.43" transform="translate(-2443.88 -7.01)"/><polyline class="cls-7" points="384.43 372.18 380.72 374.34 380.72 382.35 384.36 380.23 384.43 372.18"/><polyline class="cls-29" points="384.43 372.18 380.72 374.34 380.72 382.35 384.36 380.23 384.43 372.18"/><path class="cls-7" d="M2805.5,366l-0.85,3.81,19.95,11.52,3.71-2.16L2805.5,366m-41.84-23.11L2763,345.8l36.32,21,0.85-3.81-3-1.71-0.9.52v0l-32.66-18.85m-12.19-7.5-3.2,1.87,2.47,1.43,0.73-3.29" transform="translate(-2443.88 -7.01)"/><path class="cls-30" d="M2805.5,366l-0.85,3.81,19.95,11.52,3.71-2.16L2805.5,366m-41.84-23.11L2763,345.8l36.32,21,0.85-3.81-3-1.71-0.9.52v0l-32.66-18.85m-12.19-7.5-3.2,1.87,2.47,1.43,0.73-3.29" transform="translate(-2443.88 -7.01)"/><polyline class="cls-7" points="401.57 338.33 401.56 346.35 477.9 390.42 477.9 382.41 401.57 338.33"/><polyline class="cls-28" points="401.57 338.33 401.56 346.35 477.9 390.42 477.9 382.41 401.57 338.33"/><polyline class="cls-7" points="481.61 380.25 477.9 382.41 477.9 390.42 481.53 388.3 481.61 380.25"/><polyline class="cls-29" points="481.61 380.25 477.9 382.41 477.9 390.42 481.53 388.3 481.61 380.25"/><polyline class="cls-7" points="405.27 336.18 401.57 338.33 477.9 382.41 481.61 380.25 405.27 336.18"/><polyline class="cls-30" points="405.27 336.18 401.57 338.33 477.9 382.41 481.61 380.25 405.27 336.18"/><polyline class="cls-7" points="401.57 354.37 401.56 362.38 477.9 406.45 477.9 398.44 401.57 354.37"/><polyline class="cls-28" points="401.57 354.37 401.56 362.38 477.9 406.45 477.9 398.44 401.57 354.37"/><polyline class="cls-7" points="481.61 396.28 477.9 398.44 477.9 406.45 481.53 404.33 481.61 396.28"/><polyline class="cls-29" points="481.61 396.28 477.9 398.44 477.9 406.45 481.53 404.33 481.61 396.28"/><polyline class="cls-7" points="405.27 352.21 401.57 354.37 477.9 398.44 481.61 396.28 405.27 352.21"/><polyline class="cls-30" points="405.27 352.21 401.57 354.37 477.9 398.44 481.61 396.28 405.27 352.21"/><polyline class="cls-7" points="401.57 370.38 401.56 378.4 477.9 422.47 477.9 414.45 401.57 370.38"/><polyline class="cls-28" points="401.57 370.38 401.56 378.4 477.9 422.47 477.9 414.45 401.57 370.38"/><polyline class="cls-7" points="481.61 412.3 477.9 414.45 477.9 422.47 481.53 420.34 481.61 412.3"/><polyline class="cls-29" points="481.61 412.3 477.9 414.45 477.9 422.47 481.53 420.34 481.61 412.3"/><polyline class="cls-7" points="405.27 368.23 401.57 370.38 477.9 414.45 481.61 412.3 405.27 368.23"/><polyline class="cls-30" points="405.27 368.23 401.57 370.38 477.9 414.45 481.61 412.3 405.27 368.23"/><polyline class="cls-7" points="401.57 386.41 401.56 394.43 477.9 438.49 477.9 430.48 401.57 386.41"/><polyline class="cls-28" points="401.57 386.41 401.56 394.43 477.9 438.49 477.9 430.48 401.57 386.41"/><polyline class="cls-7" points="481.61 428.32 477.9 430.48 477.9 438.49 481.53 436.37 481.61 428.32"/><polyline class="cls-29" points="481.61 428.32 477.9 430.48 477.9 438.49 481.53 436.37 481.61 428.32"/><polyline class="cls-7" points="405.27 384.25 401.57 386.41 477.9 430.48 481.61 428.32 405.27 384.25"/><polyline class="cls-30" points="405.27 384.25 401.57 386.41 477.9 430.48 481.61 428.32 405.27 384.25"/><path class="cls-6" d="M2782.18,413.14l0.14,43a22.3,22.3,0,0,1-11.15,19.39l-30.45,17.58,97.16,56.09,30.55-17.55a22.3,22.3,0,0,0,11.2-19.34V469.14l-97.44-56" transform="translate(-2443.88 -7.01)"/><polyline class="cls-5" points="296.84 486.1 296.84 494.11 303.79 490.11 296.84 486.1"/><polyline class="cls-31" points="338.32 410.48 338.33 413.95 338.33 413.95 338.32 410.48 338.32 410.48"/><path class="cls-14" d="M2793.58,419.69l-0.94,4.25-2.62,1.53,89.61,51.74v-8.06l-86-49.46M2783.7,414l0,4.36-1.53-.88V421l4.49,2.59,1.54-6.93-0.75-.43-3.77,2.18,0-4.36" transform="translate(-2443.88 -7.01)"/><polyline class="cls-32" points="169.3 510.89 0 413.22 0 381.13 169.3 478.81 169.3 510.89"/><polyline class="cls-8" points="169.3 510.89 0 413.22 0 381.13 169.3 478.81 169.3 510.89"/><polyline class="cls-33" points="4.22 394.85 2.56 393.89 2.56 382.61 4.22 383.57 4.22 394.85"/><polyline class="cls-33" points="8.39 397.25 6.73 396.29 6.73 385.02 8.39 385.97 8.39 397.25"/><polyline class="cls-33" points="12.56 399.65 10.9 398.7 10.9 387.42 12.56 388.38 12.56 399.65"/><polyline class="cls-33" points="16.73 402.06 15.07 401.1 15.07 389.83 16.73 390.78 16.73 402.06"/><polyline class="cls-33" points="25.06 406.87 23.4 405.91 23.4 394.64 25.06 395.59 25.06 406.87"/><polyline class="cls-33" points="29.23 409.27 27.57 408.32 27.57 397.04 29.23 398 29.23 409.27"/><polyline class="cls-33" points="33.4 411.68 31.74 410.72 31.74 399.45 33.4 400.4 33.4 411.68"/><polyline class="cls-33" points="37.57 414.08 35.91 413.13 35.91 401.85 37.57 402.81 37.57 414.08"/><polyline class="cls-33" points="45.91 418.89 44.25 417.94 44.25 406.66 45.91 407.62 45.91 418.89"/><polyline class="cls-33" points="50.08 421.3 48.41 420.34 48.41 409.07 50.08 410.02 50.08 421.3"/><polyline class="cls-33" points="54.24 423.7 52.58 422.75 52.58 411.47 54.24 412.43 54.24 423.7"/><polyline class="cls-33" points="58.41 426.11 56.75 425.15 56.75 413.88 58.41 414.83 58.41 426.11"/><polyline class="cls-33" points="66.75 430.92 65.09 429.96 65.09 418.69 66.75 419.64 66.75 430.92"/><polyline class="cls-33" points="70.92 433.32 69.26 432.37 69.26 421.09 70.92 422.05 70.92 433.32"/><polyline class="cls-33" points="75.09 435.73 73.43 434.77 73.43 423.5 75.09 424.45 75.09 435.73"/><polyline class="cls-33" points="79.25 438.13 77.59 437.18 77.59 425.9 79.25 426.86 79.25 438.13"/><polyline class="cls-33" points="87.59 442.94 85.93 441.99 85.93 430.71 87.59 431.67 87.59 442.94"/><polyline class="cls-33" points="91.76 445.35 90.1 444.39 90.1 433.12 91.76 434.07 91.76 445.35"/><polyline class="cls-33" points="95.93 447.75 94.27 446.8 94.27 435.52 95.93 436.48 95.93 447.75"/><polyline class="cls-33" points="100.1 450.16 98.44 449.2 98.44 437.92 100.1 438.88 100.1 450.16"/><polyline class="cls-33" points="108.44 454.97 106.78 454.01 106.78 442.73 108.44 443.69 108.44 454.97"/><polyline class="cls-33" points="112.6 457.37 110.94 456.41 110.94 445.14 112.6 446.1 112.6 457.37"/><polyline class="cls-33" points="116.77 459.78 115.11 458.82 115.11 447.54 116.77 448.5 116.77 459.78"/><polyline class="cls-33" points="120.94 462.18 119.28 461.22 119.28 449.95 120.94 450.91 120.94 462.18"/><polyline class="cls-33" points="129.28 466.99 127.62 466.03 127.62 454.76 129.28 455.72 129.28 466.99"/><polyline class="cls-33" points="133.45 469.4 131.79 468.44 131.79 457.16 133.45 458.12 133.45 469.4"/><polyline class="cls-33" points="137.62 471.8 135.95 470.84 135.95 459.57 137.62 460.53 137.62 471.8"/><polyline class="cls-33" points="141.78 474.21 140.12 473.25 140.12 461.97 141.78 462.93 141.78 474.21"/><polyline class="cls-33" points="150.12 479.02 148.46 478.06 148.46 466.78 150.12 467.74 150.12 479.02"/><polyline class="cls-33" points="154.29 481.42 152.63 480.46 152.63 469.19 154.29 470.15 154.29 481.42"/><polyline class="cls-33" points="158.46 483.83 156.8 482.87 156.8 471.59 158.46 472.55 158.46 483.83"/><polyline class="cls-33" points="162.63 486.23 160.97 485.27 160.97 474 162.63 474.96 162.63 486.23"/><polyline class="cls-33" points="20.9 409.23 19.24 408.27 19.24 392.23 20.9 393.19 20.9 409.23"/><polyline class="cls-33" points="41.74 421.25 40.08 420.3 40.08 404.26 41.74 405.21 41.74 421.25"/><polyline class="cls-33" points="62.58 433.28 60.92 432.32 60.92 416.28 62.58 417.24 62.58 433.28"/><polyline class="cls-33" points="83.42 445.3 81.76 444.35 81.76 428.31 83.42 429.26 83.42 445.3"/><polyline class="cls-33" points="104.27 457.33 102.61 456.37 102.61 440.33 104.27 441.29 104.27 457.33"/><polyline class="cls-33" points="125.11 469.35 123.45 468.39 123.45 452.35 125.11 453.31 125.11 469.35"/><polyline class="cls-33" points="145.95 481.38 144.29 480.42 144.29 464.38 145.95 465.34 145.95 481.38"/><polyline class="cls-33" points="166.79 493.4 165.13 492.44 165.13 476.4 166.79 477.36 166.79 493.4"/><polyline class="cls-8" points="176.48 475.11 176.48 507.08 169.3 510.89 169.3 478.81 176.48 475.11"/><polyline class="cls-15" points="176.48 475.11 169.3 478.81 169.3 510.89 176.48 507.08 176.48 475.11"/><polyline class="cls-8" points="0 381.13 7.16 376.97 176.48 475.11 169.3 478.81 0 381.13"/><polyline class="cls-26" points="7.16 376.97 0 381.13 169.3 478.81 176.48 475.11 7.16 376.97"/><path class="cls-34" d="M3049.45,616.54a5.09,5.09,0,0,1-1.77,4.29l-0.81.45,0,0c-1.6.66-3.81,0.37-6.26-1.05a19,19,0,0,1-5.75-5.47h0a15.81,15.81,0,0,1-3.1-8.53,5.06,5.06,0,0,1,1.85-4.36l0.07,0,0.37-.21,0,0c1.62-.83,3.95-0.59,6.53.92a18.72,18.72,0,0,1,5.82,5.55l0.05,0.08a15.62,15.62,0,0,1,3,8.38" transform="translate(-2443.88 -7.01)"/><path class="cls-35" d="M3046.45,608.16l-0.57.22-0.06,0-4.81,2.79-6.18,3.58-76,44-60.28,35h0l-0.88.5-11.71-7,0.3-.17,147.3-85.15,0.07,0,0.37-.21,0,0c1.62-.83,3.95-0.59,6.53.92a18.72,18.72,0,0,1,5.82,5.55l0.05,0.08" transform="translate(-2443.88 -7.01)"/><path class="cls-36" d="M3036.13,601.13a4.52,4.52,0,0,0-2.09.47l0,0-0.37.21-0.07,0L2886.35,687a4.62,4.62,0,0,1,1.89-.38,9,9,0,0,1,4.42,1.38,18.78,18.78,0,0,1,5.91,5.73l60.28-35,76-44,6.18-3.57,4.81-2.79,0.06,0,0.52-.3a18.72,18.72,0,0,0-5.82-5.55,9,9,0,0,0-4.44-1.39" transform="translate(-2443.88 -7.01)"/><path class="cls-35" d="M3049.45,616.54a5.09,5.09,0,0,1-1.77,4.29l-0.81.45,0,0-147.57,85.19-0.14.09v0l-0.55-12.8h0l60.28-35,76-44,6.18-3.57,4.87-2.82,0.52-.3,0.05,0.08a15.62,15.62,0,0,1,3,8.38" transform="translate(-2443.88 -7.01)"/><path class="cls-35" d="M2876.68,704.73l1.71-3.51,0.08-.15,5.87-12,0.21-.44h0c1.35-2.36,4.47-2.75,8.11-.64a18.79,18.79,0,0,1,5.92,5.74h0a15.51,15.51,0,0,1,2.9,8.2c0,3.28-1.79,5.09-4.44,5.06h0l-14.55-.3H2882l-4.16-.09a1.33,1.33,0,0,1-.93-0.4l-0.15-.2-0.11-.2a1.3,1.3,0,0,1,0-1.08" transform="translate(-2443.88 -7.01)"/><path class="cls-37" d="M2897.27,707h0m1.93-.48-0.07,0a4.27,4.27,0,0,1-1.2.39,4.21,4.21,0,0,0,1.27-.42m1.24-9.33c0.06,0.15.12,0.3,0.17,0.45l0.09,0.21a13.79,13.79,0,0,1,.62,2.29c0.05,0.28.09,0.55,0.11,0.82V701a7.83,7.83,0,0,1,.05.93h0a5.93,5.93,0,0,1-.84,3.28,5.9,5.9,0,0,0,.85-3.28,12.77,12.77,0,0,0-1-4.75m-1.86-3.45h0l0.1,0.15q0.26,0.4.49,0.79l0.06,0.09c0.19,0.33.38,0.67,0.54,1s0.34,0.68.49,1v0a19.75,19.75,0,0,0-1.69-3.07h0m-10.34-7.12a4,4,0,0,0-3.68,2h0l-0.21.44-5.87,12-0.08.15-1.71,3.51a1.33,1.33,0,0,0-.14.58,1.31,1.31,0,0,0,.1.5l0.11,0.2h0l2.44-1.38,3.17-1.77,0.39-.23,4.23-2.38,10.71-6,0.88-.5h0a18.79,18.79,0,0,0-5.92-5.74,9,9,0,0,0-4.42-1.38" transform="translate(-2443.88 -7.01)"/><path class="cls-35" d="M2876.75,706l0.15,0.2a1.26,1.26,0,0,0,.93.41l1.07,0,3.39,0.08h0.19L2897,707h0a4.52,4.52,0,0,0,2.1-.45l0.14-.06c1.37-.75,2.2-2.31,2.2-4.55a7.83,7.83,0,0,0-.05-0.93V701c0-.26-0.06-0.54-0.11-0.82a13.79,13.79,0,0,0-.62-2.29l-0.09-.21c-0.09-.26-0.2-0.54-0.31-0.8l0-.05q-0.23-.51-0.49-1c-0.16-.33-0.35-0.67-0.54-1l-0.06-.09q-0.23-.4-0.49-0.79l-0.1-.15h0l-0.88.5-10.71,6-4.23,2.38-0.39.23-3.17,1.77-2.44,1.38" transform="translate(-2443.88 -7.01)"/><path class="cls-38" d="M2898.58,693.74h0l-0.88.5-10.71,6-4.23,2.38-0.39.23-3.17,1.77-2.44,1.38h0l0.15,0.2a1.26,1.26,0,0,0,.93.41l1.07,0,3.39,0.08h0.19L2897,707h0.08a4.5,4.5,0,0,0,2-.45l0.14-.06c1.37-.75,2.2-2.31,2.2-4.55a7.83,7.83,0,0,0-.05-0.93V701c0-.26-0.06-0.54-0.11-0.82a13.79,13.79,0,0,0-.62-2.29l-0.09-.21c-0.09-.26-0.2-0.54-0.31-0.8l0-.05q-0.23-.51-0.49-1c-0.16-.33-0.35-0.67-0.54-1l-0.06-.09q-0.23-.4-0.49-0.79l-0.1-.15h0" transform="translate(-2443.88 -7.01)"/><path class="cls-39" d="M2876.64,705.81l0.1,0.2h0l0.15,0.2a1.27,1.27,0,0,0,.93.41l1.07,0,3.39,0.08h0.05v-3.93l-4-1.56-1.71,3.51A1.3,1.3,0,0,0,2876.64,705.81Z" transform="translate(-2443.88 -7.01)"/><path class="cls-39" d="M2878.24,702a5.65,5.65,0,0,0,2.71,4.28c1.5,0.87,2.71.36,2.71-1.13a5.65,5.65,0,0,0-2.71-4.28C2879.45,700,2878.24,700.52,2878.24,702Z" transform="translate(-2443.88 -7.01)"/><polyline class="cls-40" points="186.38 582.68 186.38 558.64 207.2 570.66 207.2 594.7 186.38 582.68"/><polyline class="cls-41" points="186.38 558.64 186.38 582.68 207.2 594.7 207.2 570.66 186.38 558.64"/><polyline class="cls-40" points="186.38 558.64 207.2 546.62 228.01 558.64 207.2 570.66 186.38 558.64"/><polyline class="cls-42" points="207.2 546.62 186.38 558.64 207.2 570.66 228.01 558.64 207.2 546.62"/><polygon class="cls-43" points="207.2 570.66 228.01 558.64 228.01 582.68 207.2 594.7 207.2 570.66"/><polygon class="cls-40" points="207.2 570.66 228.01 558.64 228.01 582.68 207.2 594.7 207.2 570.66"/><polygon class="cls-44" points="117.14 350.25 117.14 326.21 137.96 338.23 137.96 362.27 117.14 350.25"/><polygon class="cls-45" points="117.14 326.21 137.96 314.19 158.78 326.21 137.96 338.23 117.14 326.21"/><polygon class="cls-43" points="137.96 338.23 158.78 326.21 158.78 350.25 137.96 362.27 137.96 338.23"/><polygon class="cls-46" points="137.96 338.23 158.78 326.21 158.78 350.25 137.96 362.27 137.96 338.23"/><polyline class="cls-10" points="103.2 398.48 103.2 374.44 124.02 386.46 124.02 410.5 103.2 398.48"/><polyline class="cls-11" points="103.2 374.44 103.2 398.48 124.02 410.5 124.02 386.46 103.2 374.44"/><polyline class="cls-10" points="103.2 374.44 124.02 362.42 144.84 374.44 124.02 386.46 103.2 374.44"/><polyline class="cls-20" points="124.02 362.42 103.2 374.44 124.02 386.46 144.84 374.44 124.02 362.42"/><polygon class="cls-10" points="124.02 386.46 144.84 374.44 144.84 398.48 124.02 410.5 124.02 386.46"/><polyline class="cls-16" points="68.6 266.03 13.2 298.14 13.22 362.27 68.6 330.17 68.6 266.03"/><polyline class="cls-47" points="68.6 266.03 13.2 298.14 13.22 362.27 68.6 330.17 68.6 266.03"/><path class="cls-33" d="M2501.17,323.5c0-3.66-3-4.92-6.63-2.81s-6.63,6.79-6.63,10.45,3,4.92,6.63,2.81S2501.17,327.16,2501.17,323.5Z" transform="translate(-2443.88 -7.01)"/><path class="cls-33" d="M2501.17,297.61c0-3.66-3-4.92-6.63-2.81s-6.63,6.79-6.63,10.45,3,4.92,6.63,2.81S2501.17,301.27,2501.17,297.61Z" transform="translate(-2443.88 -7.01)"/><path class="cls-33" d="M2479.74,322.89c0-3.66-3-4.92-6.63-2.81s-6.63,6.79-6.63,10.45,3,4.92,6.63,2.81S2479.74,326.55,2479.74,322.89Z" transform="translate(-2443.88 -7.01)"/><polygon class="cls-33" points="30.6 317.37 28.51 322.04 49.3 322.63 51.39 317.96 30.6 317.37"/><polygon class="cls-33" points="49.3 293.66 28.51 318.19 30.6 320.45 51.39 295.92 49.3 293.66"/><polygon class="cls-33" points="103.17 646.71 158.76 614.69 214.21 646.71 158.7 678.75 103.17 646.71"/><polygon class="cls-48" points="103.17 646.71 103.17 654.72 158.73 686.8 214.21 654.72 214.21 646.71 158.7 678.75 103.17 646.71"/><polygon class="cls-49" points="158.7 678.75 158.73 686.8 214.21 654.72 214.21 646.71 158.7 678.75"/><polyline class="cls-16" points="13.22 362.27 6.09 358.09 6.09 294.24 13.2 298.14 13.22 362.27"/><polyline class="cls-3" points="411.69 584.48 411.71 592.41 411.69 584.48 411.69 584.48"/><g class="cls-50"><polyline class="cls-51" points="488.02 540.4 411.69 584.48 411.71 592.41 415.43 594.6 491.75 550.57 491.75 542.55 488.02 540.4"/><polyline class="cls-52" points="411.69 584.48 411.71 592.41 415.43 594.6 415.43 586.62 411.69 584.48"/><polyline class="cls-52" points="488.02 540.4 488.02 540.4 411.69 584.48 411.69 584.48 415.43 586.62 491.75 542.55 488.02 540.4"/></g><g class="cls-50"><polyline class="cls-51" points="474.27 532.5 397.94 576.58 397.95 584.51 401.67 586.7 478 542.67 478 534.65 474.27 532.5"/><polyline class="cls-52" points="397.94 576.58 397.95 584.51 401.67 586.7 401.67 578.72 397.94 576.58"/><polyline class="cls-52" points="474.27 532.5 397.94 576.58 401.67 578.72 478 534.65 474.27 532.5"/></g><polyline class="cls-2" points="505.64 550.64 505.64 550.64 505.64 558.66 429.31 602.69 505.64 558.66 505.64 550.64"/><g class="cls-50"><polyline class="cls-51" points="501.9 548.49 425.57 592.57 425.59 600.5 429.31 602.69 505.64 558.66 505.64 550.64 501.9 548.49"/><polyline class="cls-52" points="425.57 592.57 425.59 600.5 429.31 602.69 429.31 594.71 425.57 592.57"/><polyline class="cls-52" points="501.9 548.49 501.9 548.49 425.57 592.57 429.31 594.71 505.64 550.64 501.9 548.49"/></g><path class="cls-53" d="M3049.48,616.53a5.09,5.09,0,0,1-1.72,4.24l0,0-0.84.48,0,0-9.29,5.36a5.08,5.08,0,0,0,1.75-4.26,15.6,15.6,0,0,0-3-8.38l0-.08a18.75,18.75,0,0,0-5.82-5.55c-2.58-1.51-4.9-1.75-6.51-.93l10.43-6c1.59-.68,3.8-0.38,6.23,1a18.63,18.63,0,0,1,5.82,5.55l0.06,0.08A15.67,15.67,0,0,1,3049.48,616.53Z" transform="translate(-2443.88 -7.01)"/><polygon class="cls-45" points="593.68 619.68 593.71 619.65 593.16 619.97 593.68 619.68"/><polygon class="cls-45" points="580.02 600.48 579.65 600.69 579.58 600.73 580.07 600.45 580.05 600.46 580.02 600.48"/><polygon class="cls-45" points="592.84 620.15 593.16 619.97 592.88 620.13 592.84 620.15"/><polygon class="cls-53" points="588.34 595.67 589.62 594.94 589.48 595.06 588.61 595.56 588.34 595.67"/><polygon class="cls-53" points="602 614.84 603.39 614.04 601.98 614.87 602 614.84"/><polygon class="cls-45" points="601.95 614.89 601.97 614.87 601.42 615.18 601.95 614.89"/><polygon class="cls-45" points="588.28 595.7 587.91 595.91 587.84 595.95 588.33 595.67 588.31 595.68 588.28 595.7"/><polygon class="cls-45" points="601.11 615.37 601.42 615.18 601.14 615.35 601.11 615.37"/><polyline class="cls-10" points="269.09 630.38 324.68 598.37 380.13 630.38 324.62 662.43 269.09 630.38"/><polyline class="cls-9" points="324.68 598.37 269.09 630.38 324.62 662.43 380.13 630.38 324.68 598.37"/><polyline class="cls-10" points="269.09 630.38 269.09 638.4 324.65 670.47 380.13 638.4 380.13 630.38 324.62 662.43 269.09 630.38"/><polygon class="cls-33" points="340.07 622.32 335.99 630.64 345.67 638.38 330.55 637.46 322.49 644.39 317.24 635.5 302.57 632.03 314.44 627.46 313.44 618.39 326.02 624.46 340.07 622.32"/><polyline class="cls-11" points="269.09 630.38 269.09 638.4 324.65 670.47 324.62 662.43 269.09 630.38"/><polyline class="cls-54" points="40.41 536.59 96 504.58 151.45 536.59 95.94 568.64 40.41 536.59"/><polyline class="cls-55" points="96 504.58 40.41 536.59 95.94 568.64 151.45 536.59 96 504.58"/><polyline class="cls-56" points="40.41 536.59 40.41 544.61 95.97 576.68 151.45 544.61 151.45 536.59 95.94 568.64 40.41 536.59"/><path class="cls-33" d="M2537.57,530.16l23.3,13.45a2.23,2.23,0,0,1,0,3.86l-16.36,9.45a2.23,2.23,0,0,1-2.23,0l-12.46-7.18L2519,543.48a2.23,2.23,0,0,1,0-3.86l16.38-9.46A2.23,2.23,0,0,1,2537.57,530.16Z" transform="translate(-2443.88 -7.01)"/><polygon class="cls-33" points="85.64 550.55 92.57 546.55 85.94 542.73 85.64 550.55"/><polyline class="cls-57" points="40.41 536.59 40.41 544.61 95.97 576.68 95.94 568.64 40.41 536.59"/><polyline class="cls-58" points="303.79 490.11 296.84 494.11 394 550.21 296.85 494.12 303.79 490.11 303.79 490.11"/><polyline class="cls-59" points="303.79 490.11 296.85 494.12 394 550.21 394 542.19 303.79 490.11"/><polyline class="cls-59" points="296.84 486.1 296.84 494.11 303.79 490.11 296.84 486.1"/><polyline class="cls-60" points="313.8 300.48 320.68 296.43 327.65 300.48 307.13 392.85 300.21 396.88 320.77 304.53 313.8 300.48"/><polyline class="cls-61" points="310.79 322.7 310.79 330.72 352.44 354.76 352.41 346.73 310.79 322.7"/><polyline class="cls-60" points="310.79 322.7 317.66 318.74 359.38 342.74 359.38 350.75 352.44 354.76 352.41 346.73 310.79 322.7"/><polyline class="cls-62" points="322.94 321.77 322.94 321.78 359.27 342.67 322.94 321.77"/><polyline class="cls-63" points="322.94 321.77 322.94 321.78 359.27 342.67 322.94 321.77"/><polyline class="cls-64" points="316.05 325.74 316.05 325.74 352.41 346.73 316.05 325.74"/><polyline class="cls-65" points="322.94 321.78 316.05 325.74 352.41 346.73 352.44 354.76 357.19 352.02 359.27 342.67 322.94 321.78"/><polyline class="cls-61" points="304.48 350.98 304.48 358.99 346.12 383.04 346.09 375 304.48 350.98"/><polyline class="cls-60" points="304.48 350.98 311.34 347.02 353.06 371.01 353.06 379.03 346.12 383.04 346.09 375 304.48 350.98"/><polyline class="cls-62" points="316.64 350.06 316.64 350.06 352.97 370.96 352.97 370.96 316.64 350.06"/><polyline class="cls-33" points="316.64 350.06 316.64 350.06 352.97 370.96 352.97 370.96 316.64 350.06"/><polyline class="cls-65" points="316.63 350.05 316.63 350.06 316.64 350.06 316.64 350.06 316.63 350.05"/><polyline class="cls-65" points="316.63 350.06 309.76 354 346.09 375 346.12 383.04 350.9 380.28 352.97 370.96 316.64 350.06 316.63 350.06"/><polyline class="cls-60" points="355.43 324.56 362.31 320.5 369.28 324.56 348.76 416.93 341.84 420.96 362.4 328.61 355.43 324.56"/><polyline class="cls-61" points="293.27 392.84 300.21 396.88 320.77 304.53 313.8 300.48 293.27 392.84"/><polyline class="cls-65" points="314.1 300.31 313.81 300.48 314.1 300.64 314.1 300.31"/><polyline class="cls-65" points="362.31 320.5 356.42 323.97 355.43 324.56 362.4 328.61 369.28 324.56 362.31 320.5"/><polyline class="cls-60" points="301.2 357.08 308.09 353.03 315.06 357.08 278.79 520.39 271.88 524.43 308.17 361.13 301.2 357.08"/><polyline class="cls-61" points="298.2 379.31 298.2 387.32 339.85 411.36 339.81 403.33 298.2 379.31"/><polyline class="cls-61" points="290.84 439.13 287.42 445.18 329.07 469.22 329.03 461.19 290.84 439.13"/><polyline class="cls-61" points="284.52 467.56 280.49 473.28 322.13 497.32 322.1 489.29 284.52 467.56"/><polyline class="cls-61" points="297.17 410.61 295.62 417.75 333.53 439.64 333.49 431.6 297.17 410.61"/><polyline class="cls-61" points="278.2 495.91 273.53 501.26 315.18 525.3 315.14 517.27 278.2 495.91"/><polyline class="cls-60" points="278.2 495.91 285.03 491.91 322.11 513.28 322.11 521.29 315.18 525.3 315.14 517.27 278.2 495.91"/><polyline class="cls-60" points="298.2 379.31 305.06 375.34 346.78 399.34 346.78 407.35 339.85 411.36 339.81 403.33 298.2 379.31"/><polyline class="cls-60" points="297.17 410.61 304.03 406.65 340.46 427.62 340.46 435.63 333.53 439.64 333.49 431.6 297.17 410.61"/><polyline class="cls-60" points="290.84 439.13 297.74 435.15 336.01 457.2 336.01 465.21 329.07 469.22 329.03 461.19 290.84 439.13"/><polyline class="cls-60" points="284.52 467.56 291.39 463.61 329.07 485.3 329.07 493.31 322.13 497.32 322.1 489.29 284.52 467.56"/><polyline class="cls-65" points="310.33 378.37 303.43 382.32 339.81 403.33 339.85 411.36 346.78 407.35 346.78 399.34 310.33 378.37"/><polyline class="cls-65" points="304.03 406.65 297.17 410.61 333.49 431.6 333.53 439.64 340.46 435.63 340.46 427.62 338.37 426.41 304.03 406.65"/><polyline class="cls-65" points="297.74 435.15 297.72 435.17 290.84 439.13 329.03 461.19 329.07 469.22 336.01 465.21 336.01 459.35 336.01 457.2 297.74 435.15"/><polyline class="cls-65" points="291.39 463.61 284.52 467.56 322.1 489.29 322.13 497.32 329.07 493.31 329.07 485.3 313.63 476.41 291.39 463.61"/><polyline class="cls-65" points="285.03 491.91 278.2 495.91 315.14 517.27 315.18 525.3 322.11 521.29 322.11 513.28 285.03 491.91"/><polygon class="cls-60" points="342.83 381.16 349.71 377.11 356.68 381.16 320.42 544.47 313.5 548.5 349.8 385.21 342.83 381.16"/><polygon class="cls-61" points="264.93 520.39 271.91 524.43 312.27 342.66 301.2 357.08 264.93 520.39"/><polygon class="cls-61" points="305.7 351.66 305.7 359.67 347.35 383.71 347.32 375.68 305.7 351.66"/><polygon class="cls-61" points="306.56 544.46 313.5 548.5 356.07 356.78 342.83 381.16 306.56 544.46"/><polygon class="cls-60" points="308.72 379.27 310.33 378.37 310.65 377.03 305.06 375.17 304.68 376.87 308.72 379.27"/><polygon class="cls-61" points="334.9 416.92 341.84 420.96 362.4 328.61 355.43 324.56 334.9 416.92"/><polyline class="cls-66" points="311.62 262.84 312.73 262.17 319.64 258.15 321.03 258.95 328.02 262.99 321.03 266.96 314.15 262.99 314.15 262.99 313.83 262.81 312.01 263.65 311.62 262.84"/><path class="cls-66" d="M2770.74,269.33l1.15,0.66h0l-1.15-.66m-7.22-4.17-6.91,4-1.11.67,0.39,0.81,1.82-.85L2758,270h0l6.86,4v-8l4.91,2.84h0L2764.9,266l-1.38-.8" transform="translate(-2443.88 -7.01)"/><polyline class="cls-67" points="334.91 274.98 334.91 323.06 314.08 311.05 314.15 262.99 334.91 274.98"/><polyline class="cls-67" points="341.78 270.94 341.78 319.02 320.95 307.02 321.02 258.95 341.78 270.94"/><polygon class="cls-68" points="334.91 323.05 334.91 371.13 324.19 364.97 324.19 316.89 334.91 323.05"/><polygon class="cls-68" points="324.19 316.89 324.19 364.97 314.08 359.08 314.08 311 324.19 316.89"/><polyline class="cls-66" points="341.78 270.94 341.78 319.02 334.91 315.05 334.91 274.98 341.78 270.94"/><polygon class="cls-66" points="334.87 315.06 334.91 315.08 341.78 319.02 334.91 323.06 334.87 315.06"/><polygon class="cls-69" points="322.29 363.87 326.1 366.08 326.1 318 322.29 315.79 322.29 363.87"/><path class="cls-67" d="M2778.78,282l12.63,10.27a2.23,2.23,0,0,0,2.53.2l12.53-7.26v4.63l-12.54,7.26a2.23,2.23,0,0,1-2.52-.19l-12.62-10.16V282" transform="translate(-2443.88 -7.01)"/><polyline class="cls-66" points="328.02 262.99 341.78 270.94 334.91 274.98 321.03 266.96 328.02 262.99"/><path class="cls-66" d="M2799.45,281.23l7,4-12.53,7.26a2.23,2.23,0,0,1-2.53-.2L2778.78,282l6.87-4,5.7,6a2.23,2.23,0,0,0,2.73.39l5.37-3.09" transform="translate(-2443.88 -7.01)"/><polyline class="cls-66" points="325.94 261.79 325.94 261.79 328.01 262.99 328.02 262.99 326.87 262.32 325.94 261.79"/><polyline class="cls-70" points="325.94 261.79 321.03 266.96 328.01 262.99 325.94 261.79"/><polyline class="cls-62" points="325.94 261.79 321.03 266.96 328.01 262.99 325.94 261.79"/><polyline class="cls-66" points="328.02 262.99 328.01 262.99 321.03 266.96 334.91 274.98 334.91 274.98 334.91 274.98 341.78 270.94 328.02 262.99"/><path class="cls-66" d="M2785.66,278h0l-6.87,4,12.63,10.27a2.23,2.23,0,0,0,2.53.2l12.53-7.26-7-4-5.37,3.09a2.23,2.23,0,0,1-2.73-.39l-5.7-6" transform="translate(-2443.88 -7.01)"/><polygon class="cls-71" points="359.25 272.18 355.66 274.19 362.62 278.21 366.27 276.14 359.25 272.18"/><polygon class="cls-71" points="362.62 278.21 366.27 276.14 366.27 280.77 362.62 282.84 362.62 278.21"/><polygon class="cls-71" points="314.09 311.06 310.53 309.06 310.53 305.47 314.08 307.43 314.09 311.06"/><polygon class="cls-69" points="340 362.21 346.97 358.24 340 354.12 340 362.21"/><path class="cls-69" d="M2787.22,365.24l-8.44,4.89v8l13.84-8v-1.76A3.6,3.6,0,0,0,2787.22,365.24Z" transform="translate(-2443.88 -7.01)"/><polygon class="cls-69" points="341.78 319.02 341.78 367.17 334.91 371.13 334.91 323.05 341.78 319.02"/><path class="cls-72" d="M2784.3,257l-11.1-6.34-8.5,4.71a4.46,4.46,0,0,0-2.3,3.87l-0.1,13.2,11.49,6.67,6.59-3.79a7.81,7.81,0,0,0,3.92-6.77V257Z" transform="translate(-2443.88 -7.01)"/><path class="cls-71" d="M2784.3,259.71l-5.86,3.42a4.46,4.46,0,0,0-2.21,3.85v10.75l4.18-2.41a7.81,7.81,0,0,0,3.9-6.76v-8.85Z" transform="translate(-2443.88 -7.01)"/><path class="cls-72" d="M2775.37,249.38l11.08,6.39V256a4.34,4.34,0,0,1-2.14,3.74V257l-11.1-6.34Z" transform="translate(-2443.88 -7.01)"/><path class="cls-67" d="M2754.41,312.52l3.62,2V270l-0.27-.16a2.23,2.23,0,0,0-3.36,1.93v40.75Z" transform="translate(-2443.88 -7.01)"/><polyline class="cls-16" points="6.09 294.24 61.85 262.18 68.6 266.03 13.2 298.14 6.09 294.24"/><polyline class="cls-18" points="61.85 262.18 6.09 294.24 13.2 298.14 68.6 266.03 61.85 262.18"/><polygon class="cls-10" points="179.5 354.31 200.32 342.29 221.14 354.31 200.32 366.33 179.5 354.31"/><polygon class="cls-33" points="179.5 354.31 200.32 342.29 221.14 354.31 200.32 366.33 179.5 354.31"/><polygon class="cls-49" points="200.32 366.33 221.14 354.31 221.14 378.35 200.32 390.37 200.32 366.33"/><polygon class="cls-48" points="179.5 378.35 179.5 354.31 200.32 366.33 200.32 390.37 179.5 378.35"/><polyline class="cls-73" points="484.88 610.56 484.88 586.52 505.7 598.54 505.7 622.58 484.88 610.56"/><polyline class="cls-74" points="484.88 586.52 484.88 610.56 505.7 622.58 505.7 598.54 484.88 586.52"/><polyline class="cls-75" points="484.88 586.52 505.7 574.5 526.52 586.52 505.7 598.54 484.88 586.52"/><polyline class="cls-76" points="505.7 574.5 484.88 586.52 505.7 598.54 526.52 586.52 505.7 574.5"/><polygon class="cls-43" points="505.7 598.54 526.52 586.52 526.52 610.56 505.7 622.58 505.7 598.54"/><polygon class="cls-73" points="505.7 598.54 526.52 586.52 526.52 610.56 505.7 622.58 505.7 598.54"/><polygon class="cls-73" points="505.7 598.54 526.52 586.52 526.52 610.56 505.7 622.58 505.7 598.54"/><polyline class="cls-77" points="602.74 670.78 658.33 638.76 713.78 670.78 658.27 702.82 602.74 670.78"/><polyline class="cls-78" points="602.74 670.78 602.74 678.79 658.3 710.87 713.78 678.79 713.78 670.78 658.27 702.82 602.74 670.78"/><polyline class="cls-23" points="138.05 430.2 193.64 398.19 249.09 430.2 193.58 462.25 138.05 430.2"/><polyline class="cls-27" points="193.64 398.19 138.05 430.2 193.58 462.25 249.09 430.2 193.64 398.19"/><polyline class="cls-23" points="138.05 430.2 138.05 438.22 193.61 470.29 249.09 438.22 249.09 430.2 193.58 462.25 138.05 430.2"/><path class="cls-33" d="M2635.48,436.22l-19.36,3.08,0.29-.21L2640.8,424l0.34-.18-4.26,11.57A1.72,1.72,0,0,1,2635.48,436.22Z" transform="translate(-2443.88 -7.01)"/><path class="cls-33" d="M2644.5,424.28l12.71,7.36c1.19,0.69,1.08,1.93-.25,2.75L2633.44,449a4.93,4.93,0,0,1-4.58.24l-12.71-7.36a1.62,1.62,0,0,1-.59-0.53l19.53-3a7.29,7.29,0,0,0,2.7-.95,3.46,3.46,0,0,0,1.49-1.65l4.3-11.8A2.9,2.9,0,0,1,2644.5,424.28Z" transform="translate(-2443.88 -7.01)"/><polyline class="cls-25" points="249.09 430.2 249.09 430.2 193.58 462.25 193.61 470.29 249.09 438.22 249.09 430.2"/><polyline class="cls-79" points="602.7 674.97 602.7 678.79 658.26 710.87 658.26 710.84 602.74 678.79 602.74 674.99 602.7 674.97"/><polyline class="cls-80" points="602.74 674.99 602.74 678.79 658.26 710.84 658.23 702.9 654.67 704.95 654.63 704.93 654.63 704.95 602.74 674.99"/><polyline class="cls-54" points="599.12 664.87 654.71 632.85 710.15 664.87 654.64 696.91 599.12 664.87"/><polyline class="cls-81" points="606.17 660.8 599.12 664.87 654.64 696.91 710.15 664.87 710.09 664.83 661.64 692.84 606.17 660.8"/><polyline class="cls-56" points="599.12 664.87 599.12 672.88 654.67 704.95 710.15 672.88 710.15 664.87 654.64 696.91 599.12 664.87"/><polyline class="cls-82" points="606.09 652.75 661.67 620.73 717.12 652.75 661.61 684.79 606.09 652.75"/><polyline class="cls-83" points="661.67 620.73 606.09 652.75 661.61 684.79 717.12 652.75 661.67 620.73"/><polyline class="cls-43" points="606.09 652.75 606.09 660.76 661.64 692.84 717.12 660.76 717.12 652.75 661.61 684.79 606.09 652.75"/><path class="cls-33" d="M3126.33,663.41c-0.16-1.79-1.52-3.46-3.58-4.74a16.82,16.82,0,0,0-7.8-2.31l-3.18-.17-0.17-1.91c-0.16-1.79-1.52-3.46-3.58-4.74a16.82,16.82,0,0,0-7.8-2.31c-6-.31-10.53,2.34-10.21,5.91l0.17,1.93,0.15,1.62,0.21,2.36,0.81,9,14.93,0.78,3.95,0.2,2.7,0.14,3.18,0.17C3122.08,669.64,3126.65,667,3126.33,663.41Z" transform="translate(-2443.88 -7.01)"/><polyline class="cls-84" points="606.09 652.75 606.09 660.76 661.64 692.84 661.61 684.79 606.09 652.75"/><polyline class="cls-79" points="599.08 664.87 599.08 672.88 602.7 674.97 602.7 674.95 599.12 672.88 599.12 664.89 599.08 664.87"/><polyline class="cls-85" points="602.7 674.95 602.7 674.97 602.74 674.99 602.74 674.97 602.7 674.95"/><polyline class="cls-86" points="602.74 674.97 602.74 674.99 654.63 704.95 654.63 704.93 602.74 674.97"/><polyline class="cls-33" points="602.74 674.97 602.74 674.99 654.63 704.95 654.63 704.93 602.74 674.97"/><polyline class="cls-87" points="599.12 664.89 599.12 672.88 602.7 674.95 602.74 674.97 654.63 704.93 654.6 696.91 599.12 664.89"/><polygon class="cls-61" points="341.84 420.96 334.9 416.92 355.43 324.56 362.4 328.61 341.84 420.96"/></g></g></svg>