<?xml version="1.0" encoding="utf-8"?>
<!-- Generator: Adobe Illustrator 19.0.0, SVG Export Plug-In . SVG Version: 6.00 Build 0)  -->
<svg version="1.1" id="Layer_1" xmlns="http://www.w3.org/2000/svg" xmlns:xlink="http://www.w3.org/1999/xlink" x="0px" y="0px"
	 viewBox="1204 69 1439.7 813.8" style="enable-background:new 1204 69 1439.7 813.8;" xml:space="preserve">
<style type="text/css">
	.st0{clip-path:url(#SVGID_2_);}
	.st1{fill:url(#SVGID_3_);}
	.st2{clip-path:url(#SVGID_5_);}
	.st3{fill:#FFFFFF;}
	.st4{clip-path:url(#SVGID_7_);}
	.st5{fill:#FFFFFF;fill-opacity:9.803922e-002;}
	.st6{clip-path:url(#SVGID_9_);}
	.st7{fill:#EFEFEF;fill-opacity:9.803922e-002;}
</style>
<g>
	<defs>
		<rect id="SVGID_1_" x="1204" y="-141" width="1439.7" height="4480.1"/>
	</defs>
	<clipPath id="SVGID_2_">
		<use xlink:href="#SVGID_1_"  style="overflow:visible;"/>
	</clipPath>
	<g class="st0">
		
			<linearGradient id="SVGID_3_" gradientUnits="userSpaceOnUse" x1="1516.8407" y1="935.0546" x2="1516.8407" y2="-88.9454" gradientTransform="matrix(0.9998 0 0 -0.9998 407.3678 793.8676)">
			<stop  offset="0" style="stop-color:#E00201"/>
			<stop  offset="1" style="stop-color:#FFCCCC"/>
		</linearGradient>
		<path class="st1" d="M1204-141h1439.7V882.8H1204V-141z"/>
	</g>
</g>
<g>
	<defs>
		<rect id="SVGID_4_" x="1204" y="-141" width="1439.7" height="1023.8"/>
	</defs>
	<clipPath id="SVGID_5_">
		<use xlink:href="#SVGID_4_"  style="overflow:visible;"/>
	</clipPath>
	<g class="st2">
		<path class="st3" d="M1144,726.3c0,0,148.8-90.8,275.6-0.4c126.7,90.3,263.4-2.4,263.4-2.4s218.2-192,429.2-5.7
			c211,186.3,347.4-7.4,347.4-7.4s149.9-122.7,344.5-4.3c194.7,118.4,10.5-1.5,10.5-1.5v221.5H1127.5L1144,726.3z"/>
	</g>
</g>
<g>
	<defs>
		<rect id="SVGID_6_" x="1204" y="-141" width="1439.7" height="1023.8"/>
	</defs>
	<clipPath id="SVGID_7_">
		<use xlink:href="#SVGID_6_"  style="overflow:visible;"/>
	</clipPath>
	<g class="st4">
		<path class="st5" d="M2984.1,677.1c0,0-166.2-116.3-307.7-0.6c-141.5,115.7-294.1-3.1-294.1-3.1s-243.7-245.9-479.2-7.3
			c-235.6,238.7-387.9-9.5-387.9-9.5s-167.3-157.2-384.7-5.5c-217.4,151.7-11.7-2-11.7-2V933h1883.6"/>
	</g>
</g>
<g>
	<defs>
		<rect id="SVGID_8_" x="1204" y="-141" width="1439.7" height="1023.8"/>
	</defs>
	<clipPath id="SVGID_9_">
		<use xlink:href="#SVGID_8_"  style="overflow:visible;"/>
	</clipPath>
	<g class="st6">
		<path class="st7" d="M817.9,622.9c0,0,185.9-137.8,344.1-0.7c158.2,137.1,328.9-3.7,328.9-3.7s272.5-291.4,536-8.6
			c263.5,282.8,433.8-11.2,433.8-11.2s187.1-186.2,430.2-6.5c243.1,179.8,13.1-2.3,13.1-2.3v336.2H797.4L817.9,622.9z"/>
	</g>
</g>
<g>
	<defs>
		<rect id="SVGID_10_" x="1423" y="-392" width="1440" height="4481"/>
	</defs>
	<clipPath id="SVGID_11_">
		<use xlink:href="#SVGID_10_"  style="overflow:visible;"/>
	</clipPath>
</g>
</svg>
