<svg xmlns="http://www.w3.org/2000/svg" xmlns:xlink="http://www.w3.org/1999/xlink" viewBox="0 0 680.2 648.15"><defs><style>.cls-1{isolation:isolate;}.cls-2{fill:#12103d;}.cls-3{fill:#293271;}.cls-11,.cls-12,.cls-13,.cls-15,.cls-17,.cls-18,.cls-19,.cls-20,.cls-22,.cls-24,.cls-25,.cls-27,.cls-28,.cls-30,.cls-32,.cls-34,.cls-37,.cls-4,.cls-40,.cls-41,.cls-43,.cls-44,.cls-46,.cls-48,.cls-49,.cls-5,.cls-56,.cls-57,.cls-61,.cls-62,.cls-63,.cls-65,.cls-68,.cls-70,.cls-71,.cls-72,.cls-74,.cls-76,.cls-77,.cls-78,.cls-79,.cls-80,.cls-83,.cls-84,.cls-85,.cls-9{mix-blend-mode:multiply;}.cls-4{fill:url(#linear-gradient);}.cls-5{fill:url(#linear-gradient-2);}.cls-6{fill:#fdd4c0;}.cls-7{fill:#fbc4aa;}.cls-8{fill:#0093c5;}.cls-9{fill:url(#linear-gradient-3);}.cls-10{fill:#5d463a;}.cls-11{fill:url(#linear-gradient-4);}.cls-12{opacity:0.1;}.cls-13{fill:url(#linear-gradient-5);}.cls-14{fill:#f1f1f2;}.cls-15{fill:url(#linear-gradient-6);}.cls-16{fill:#d0d2d3;}.cls-17{fill:url(#linear-gradient-7);}.cls-18{fill:url(#linear-gradient-8);}.cls-19{fill:url(#linear-gradient-9);}.cls-20{fill:url(#linear-gradient-10);}.cls-21,.cls-26,.cls-66,.cls-69,.cls-75{opacity:0.78;}.cls-21,.cls-26,.cls-69,.cls-75{mix-blend-mode:soft-light;}.cls-21{fill:url(#linear-gradient-11);}.cls-22{fill:url(#linear-gradient-12);}.cls-23{fill:#b43f62;}.cls-24{fill:url(#linear-gradient-13);}.cls-25{fill:url(#linear-gradient-14);}.cls-26{fill:url(#linear-gradient-15);}.cls-27{fill:url(#linear-gradient-16);}.cls-28{fill:url(#linear-gradient-17);}.cls-29{fill:#b2e0e6;}.cls-30{fill:url(#linear-gradient-18);}.cls-31{fill:#88d1d1;}.cls-33{fill:url(#linear-gradient-19);}.cls-34{fill:url(#linear-gradient-20);}.cls-35{opacity:0.4;}.cls-35,.cls-45,.cls-58,.cls-66,.cls-81{mix-blend-mode:overlay;}.cls-36,.cls-58{fill:#fff;}.cls-37{fill:url(#linear-gradient-21);}.cls-38{fill:#7a287a;}.cls-39{fill:#6b1f6b;}.cls-40{fill:url(#linear-gradient-22);}.cls-41{fill:url(#linear-gradient-23);}.cls-42{fill:#535a9a;}.cls-43{fill:url(#linear-gradient-24);}.cls-44{fill:url(#linear-gradient-25);}.cls-45{fill:url(#linear-gradient-26);}.cls-46{fill:url(#linear-gradient-27);}.cls-47{fill:#c5c7c9;}.cls-48{fill:url(#linear-gradient-28);}.cls-49{fill:url(#linear-gradient-29);}.cls-50{fill:#515150;}.cls-51{fill:#424242;}.cls-52{fill:#353535;}.cls-53{fill:#232323;}.cls-54{fill:#5c5c5c;}.cls-55{fill:#49494a;}.cls-56{fill:url(#linear-gradient-30);}.cls-57,.cls-79,.cls-85{opacity:0.5;}.cls-57{fill:url(#linear-gradient-31);}.cls-58{opacity:0.3;}.cls-59{fill:#f05751;}.cls-60{fill:#e14949;}.cls-61{fill:url(#linear-gradient-32);}.cls-62{fill:url(#linear-gradient-33);}.cls-63{fill:url(#linear-gradient-34);}.cls-64{fill:#523d33;}.cls-65{fill:url(#linear-gradient-35);}.cls-67{fill:url(#linear-gradient-36);}.cls-68{fill:url(#linear-gradient-37);}.cls-69{fill:url(#linear-gradient-38);}.cls-70{fill:url(#linear-gradient-39);}.cls-71{fill:url(#linear-gradient-40);}.cls-72{fill:url(#linear-gradient-41);}.cls-73{fill:url(#linear-gradient-42);}.cls-74{fill:url(#linear-gradient-43);}.cls-75{fill:url(#linear-gradient-44);}.cls-76{fill:url(#linear-gradient-45);}.cls-77{fill:url(#linear-gradient-46);}.cls-78{fill:url(#linear-gradient-47);}.cls-79{fill:url(#linear-gradient-48);}.cls-80{fill:url(#linear-gradient-49);}.cls-81{fill:url(#linear-gradient-50);}.cls-82{fill:#9b3454;}.cls-83{fill:url(#linear-gradient-51);}.cls-84{fill:url(#linear-gradient-52);}.cls-85{fill:url(#linear-gradient-53);}.cls-86{opacity:0.8;}.cls-87{fill:#ffb900;}</style><linearGradient id="linear-gradient" x1="1996.9" y1="1328.93" x2="1996.9" y2="1297.29" gradientUnits="userSpaceOnUse"><stop offset="0" stop-color="#fff" stop-opacity="0"/><stop offset="1" stop-color="#12103d"/></linearGradient><linearGradient id="linear-gradient-2" x1="2050.08" y1="1331.07" x2="2050.08" y2="1296.25" xlink:href="#linear-gradient"/><linearGradient id="linear-gradient-3" x1="2002.53" y1="958.22" x2="1966.92" y2="916.45" gradientUnits="userSpaceOnUse"><stop offset="0" stop-color="#fff" stop-opacity="0"/><stop offset="1" stop-color="#8a5d3b"/></linearGradient><linearGradient id="linear-gradient-4" x1="2039.79" y1="916.44" x2="1974.1" y2="985.34" gradientUnits="userSpaceOnUse"><stop offset="0" stop-color="#fff" stop-opacity="0"/><stop offset="1" stop-color="#231f20"/></linearGradient><linearGradient id="linear-gradient-5" x1="1999.14" y1="1033.44" x2="1899.98" y2="1033.44" xlink:href="#linear-gradient"/><linearGradient id="linear-gradient-6" x1="2042.26" y1="1402.66" x2="1903.04" y2="1349.11" gradientUnits="userSpaceOnUse"><stop offset="0" stop-color="#fff" stop-opacity="0"/><stop offset="0.25" stop-color="#c4c6c8" stop-opacity="0.25"/><stop offset="1" stop-color="#231f20"/></linearGradient><linearGradient id="linear-gradient-7" x1="2018.5" y1="1414.32" x2="1923.9" y2="1414.32" xlink:href="#linear-gradient-4"/><linearGradient id="linear-gradient-8" x1="2026" y1="1317.6" x2="1995.66" y2="1317.6" xlink:href="#linear-gradient-4"/><linearGradient id="linear-gradient-9" x1="2021.45" y1="1317.6" x2="1991.11" y2="1317.6" xlink:href="#linear-gradient-4"/><linearGradient id="linear-gradient-10" x1="2052.14" y1="1287.7" x2="1981.82" y2="1271.28" xlink:href="#linear-gradient-4"/><linearGradient id="linear-gradient-11" x1="1997.65" y1="1343.04" x2="2047.27" y2="1290.56" gradientUnits="userSpaceOnUse"><stop offset="0" stop-color="#fff" stop-opacity="0"/><stop offset="1" stop-color="#fff"/></linearGradient><linearGradient id="linear-gradient-12" x1="1943.02" y1="1357.39" x2="1921.07" y2="1318.3" xlink:href="#linear-gradient-3"/><linearGradient id="linear-gradient-13" x1="1908.2" y1="1434.48" x2="1975.34" y2="1434.48" xlink:href="#linear-gradient"/><linearGradient id="linear-gradient-14" x1="1890.97" y1="1439.87" x2="1875.71" y2="1439.87" xlink:href="#linear-gradient-4"/><linearGradient id="linear-gradient-15" x1="1885.27" y1="1465.42" x2="1901.6" y2="1419.64" xlink:href="#linear-gradient-11"/><linearGradient id="linear-gradient-16" x1="1892.65" y1="1443.3" x2="1838.3" y2="1400.46" xlink:href="#linear-gradient-4"/><linearGradient id="linear-gradient-17" x1="1892.58" y1="1482.94" x2="1834.38" y2="1482.94" xlink:href="#linear-gradient-4"/><linearGradient id="linear-gradient-18" x1="1899.78" y1="1354.47" x2="1752.53" y2="1255.95" gradientUnits="userSpaceOnUse"><stop offset="0" stop-color="#fff" stop-opacity="0"/><stop offset="1" stop-color="#262261"/></linearGradient><linearGradient id="linear-gradient-19" x1="1932.83" y1="1378.67" x2="1740.13" y2="1378.67" xlink:href="#linear-gradient-18"/><linearGradient id="linear-gradient-20" x1="1870.35" y1="1379.79" x2="1870.35" y2="1467.63" xlink:href="#linear-gradient-18"/><linearGradient id="linear-gradient-21" x1="1968.35" y1="1321.43" x2="1968.35" y2="1277.4" xlink:href="#linear-gradient-3"/><linearGradient id="linear-gradient-22" x1="1891.03" y1="1322.18" x2="1922.08" y2="1259.71" xlink:href="#linear-gradient"/><linearGradient id="linear-gradient-23" x1="1911.41" y1="1312.83" x2="1751.48" y2="1312.83" xlink:href="#linear-gradient"/><linearGradient id="linear-gradient-24" x1="2137.94" y1="1369.62" x2="2137.94" y2="1250.39" xlink:href="#linear-gradient"/><linearGradient id="linear-gradient-25" x1="2142.91" y1="1338.33" x2="2085.37" y2="1338.33" xlink:href="#linear-gradient"/><linearGradient id="linear-gradient-26" x1="2003.26" y1="1216.09" x2="2134.99" y2="1107.93" xlink:href="#linear-gradient-11"/><linearGradient id="linear-gradient-27" x1="1975.72" y1="1188.84" x2="1761.53" y2="1142.79" xlink:href="#linear-gradient-4"/><linearGradient id="linear-gradient-28" x1="2001.55" y1="1255.19" x2="1833.84" y2="1255.19" xlink:href="#linear-gradient-4"/><linearGradient id="linear-gradient-29" x1="2052.95" y1="1255.19" x2="2228.35" y2="1255.19" xlink:href="#linear-gradient-4"/><linearGradient id="linear-gradient-30" x1="347.6" y1="352.91" x2="224.09" y2="207.98" xlink:href="#linear-gradient-4"/><linearGradient id="linear-gradient-31" x1="372.31" y1="367.43" x2="265.21" y2="280.69" gradientUnits="userSpaceOnUse"><stop offset="0" stop-color="#fff" stop-opacity="0"/><stop offset="0.03" stop-color="#f8fbfc" stop-opacity="0.03"/><stop offset="1" stop-color="#4dd0e1"/></linearGradient><linearGradient id="linear-gradient-32" x1="1876.35" y1="1228.69" x2="1805.67" y2="1246.9" gradientUnits="userSpaceOnUse"><stop offset="0" stop-color="#fff" stop-opacity="0"/><stop offset="1" stop-color="#be1e2d"/></linearGradient><linearGradient id="linear-gradient-33" x1="1861.01" y1="1214.01" x2="1839.95" y2="1164.39" xlink:href="#linear-gradient-32"/><linearGradient id="linear-gradient-34" x1="1859.28" y1="1124.85" x2="1807.51" y2="1154.12" xlink:href="#linear-gradient-4"/><linearGradient id="linear-gradient-35" x1="1963.22" y1="1388.74" x2="1889.68" y2="1321.27" xlink:href="#linear-gradient-3"/><linearGradient id="linear-gradient-36" x1="2211.69" y1="1206.16" x2="2262.38" y2="1136.91" xlink:href="#linear-gradient-11"/><linearGradient id="linear-gradient-37" x1="2163.4" y1="1432.56" x2="2148.14" y2="1432.56" xlink:href="#linear-gradient-4"/><linearGradient id="linear-gradient-38" x1="2157.7" y1="1458.11" x2="2174.03" y2="1412.32" xlink:href="#linear-gradient-11"/><linearGradient id="linear-gradient-39" x1="2165.08" y1="1435.99" x2="2110.73" y2="1393.15" xlink:href="#linear-gradient-4"/><linearGradient id="linear-gradient-40" x1="2165.01" y1="1475.63" x2="2106.81" y2="1475.63" xlink:href="#linear-gradient-4"/><linearGradient id="linear-gradient-41" x1="2172.21" y1="1347.16" x2="2024.96" y2="1248.63" xlink:href="#linear-gradient-18"/><linearGradient id="linear-gradient-42" x1="2205.26" y1="1371.36" x2="2012.56" y2="1371.36" xlink:href="#linear-gradient-18"/><linearGradient id="linear-gradient-43" x1="2142.78" y1="1372.48" x2="2142.78" y2="1460.31" xlink:href="#linear-gradient-18"/><linearGradient id="linear-gradient-44" x1="2221.3" y1="1378.75" x2="2200.26" y2="1357.71" xlink:href="#linear-gradient-11"/><linearGradient id="linear-gradient-45" x1="2153.86" y1="1332.64" x2="2145.83" y2="1404.93" xlink:href="#linear-gradient"/><linearGradient id="linear-gradient-46" x1="2092.58" y1="1371.1" x2="2039.43" y2="1371.1" xlink:href="#linear-gradient"/><linearGradient id="linear-gradient-47" x1="2071.86" y1="1334.32" x2="2044.01" y2="1269.53" xlink:href="#linear-gradient"/><linearGradient id="linear-gradient-48" x1="2132.96" y1="1198.8" x2="2086.55" y2="1229.14" xlink:href="#linear-gradient-31"/><linearGradient id="linear-gradient-49" x1="2193.05" y1="1242.28" x2="2051.46" y2="1274.46" xlink:href="#linear-gradient"/><linearGradient id="linear-gradient-50" x1="2187.07" y1="1249.39" x2="2292.61" y2="1143.85" xlink:href="#linear-gradient-11"/><linearGradient id="linear-gradient-51" x1="2196.48" y1="1075.42" x2="2151.23" y2="1214.1" xlink:href="#linear-gradient-4"/><linearGradient id="linear-gradient-52" x1="2164.53" y1="1225.92" x2="2118.48" y2="1228.42" xlink:href="#linear-gradient"/><linearGradient id="linear-gradient-53" x1="2067.44" y1="1137.35" x2="2039.87" y2="1143.51" xlink:href="#linear-gradient-31"/></defs><title>6</title><g class="cls-1"><g id="Layer_1" data-name="Layer 1"><path id="_Path_" data-name="&lt;Path&gt;" class="cls-2" d="M2007.44,1348.89c2.82-3.36,3.22-13.14,1.87-17.31-0.82-2.54-2.46-4.81-5.64-5.3-7.93-1.21-15.74,1.06-22.57,11.57s-17.28,20.51-14.17,28.49,15.67,7.58,23.21-2.62C1999.4,1351.21,2003.36,1353.75,2007.44,1348.89Z" transform="translate(-1652.66 -845.91)"/><path id="_Path_2" data-name="&lt;Path&gt;" class="cls-3" d="M2013.33,1337s-17.43,6.55-33.39,0v-46.35h33.92Z" transform="translate(-1652.66 -845.91)"/><path id="_Path_3" data-name="&lt;Path&gt;" class="cls-4" d="M2013.33,1337s-17.43,6.55-33.39,0v-46.35h33.92Z" transform="translate(-1652.66 -845.91)"/><path id="_Path_4" data-name="&lt;Path&gt;" class="cls-2" d="M2040.44,1348.89c-2.82-3.36-3.22-13.14-1.87-17.31,0.83-2.54,2.46-4.81,5.64-5.3,7.93-1.21,15.74,1.06,22.57,11.57s17.28,20.51,14.17,28.49-15.67,7.58-23.21-2.62C2048.47,1351.21,2044.52,1353.75,2040.44,1348.89Z" transform="translate(-1652.66 -845.91)"/><path id="_Path_5" data-name="&lt;Path&gt;" class="cls-3" d="M2033.66,1337s17.43,6.55,33.39,0v-46.35h-33.92Z" transform="translate(-1652.66 -845.91)"/><path id="_Path_6" data-name="&lt;Path&gt;" class="cls-5" d="M2033.66,1337s17.43,6.55,33.39,0v-46.35h-33.92Z" transform="translate(-1652.66 -845.91)"/><path id="_Path_7" data-name="&lt;Path&gt;" class="cls-6" d="M2152.28,1013a153,153,0,0,0-13.07,20.56c2.35-6.45.2-23.89-4.36-9.53a91.74,91.74,0,0,0-4.29,26.73l-32,30.5a7.39,7.39,0,0,1-12.23-3.42l-5.66-20.87h0c-3.44,3.76-11,9.56-24.25,8.69l13.15,28.92a22.36,22.36,0,0,0,36.22,6.49l35.82-36.85C2177.76,1032.82,2159.78,1003.28,2152.28,1013Z" transform="translate(-1652.66 -845.91)"/><path id="_Path_8" data-name="&lt;Path&gt;" class="cls-6" d="M1881.77,1013a152.85,152.85,0,0,1,13.07,20.56c-2.35-6.45-.2-23.89,4.36-9.53a91.86,91.86,0,0,1,4.29,26.73l32.37,30.82a7.11,7.11,0,0,0,11.77-3.29l5.78-21.33h0c3.44,3.76,11,9.56,24.25,8.69l-13.15,28.92a22.36,22.36,0,0,1-36.22,6.49l-35.82-36.85C1856.29,1032.82,1874.28,1003.28,1881.77,1013Z" transform="translate(-1652.66 -845.91)"/><path id="_Path_9" data-name="&lt;Path&gt;" class="cls-6" d="M1881.77,1013a152.85,152.85,0,0,1,13.07,20.56c-2.35-6.45-.2-23.89,4.36-9.53a91.86,91.86,0,0,1,4.29,26.73l32.37,30.82a7.11,7.11,0,0,0,11.77-3.29l5.78-21.33h0c3.44,3.76,11,9.56,24.25,8.69l-13.15,28.92a22.36,22.36,0,0,1-36.22,6.49l-35.82-36.85C1856.29,1032.82,1874.28,1003.28,1881.77,1013Z" transform="translate(-1652.66 -845.91)"/><g id="_Group_" data-name="&lt;Group&gt;"><path id="_Path_10" data-name="&lt;Path&gt;" class="cls-7" d="M1973.21,1065.69L1962.63,1089a22.36,22.36,0,0,1-36.22,6.5l-35.83-36.85c-9.95-8.63-15.78-17.12-18.88-24.7,2.24,8.86,8.26,19.48,20.76,30.32l35.82,36.85a22.36,22.36,0,0,0,36.22-6.49l13.15-28.92A39,39,0,0,1,1973.21,1065.69Z" transform="translate(-1652.66 -845.91)"/></g><path id="_Path_11" data-name="&lt;Path&gt;" class="cls-7" d="M1932.37,1101.07l-35.82-36.85c-28.63-24.85-23.33-48.52-16.16-52.49-8-5-22,22.89,12.08,52.49l35.82,36.85a22.13,22.13,0,0,0,17.88,6.49A22.09,22.09,0,0,1,1932.37,1101.07Z" transform="translate(-1652.66 -845.91)"/><path id="_Path_12" data-name="&lt;Path&gt;" class="cls-8" d="M1977.66,1065.66s-3,29-4.5,35.74c-0.77,3.4,0,7.28.92,10.28a273.53,273.53,0,0,1,86.47-2.13,18.52,18.52,0,0,0,.34-8.15c-1.53-6.73-4.5-35.74-4.5-35.74,19.42,1.27,26.56-11.73,26.56-11.73l-5.81-23.18c-7.84-23.33-36.6-26-46.64-26.15v5.06c0,4.58-5.79,8.29-12.93,8.29s-12.93-3.71-12.93-8.29v-4.31c0.88-.17-38.16-3-47.72,25.4l-5.81,23.18S1958.24,1066.92,1977.66,1065.66Z" transform="translate(-1652.66 -845.91)"/><path id="_Path_13" data-name="&lt;Path&gt;" class="cls-6" d="M2024.07,996.89c-7.47,4.74-15.19,5.94-19.64,6.8v6c0,4.65,5.88,8.42,13.13,8.42s13.13-3.77,13.13-8.42V990.48C2028.75,992.58,2026.55,995.32,2024.07,996.89Z" transform="translate(-1652.66 -845.91)"/><path id="_Path_14" data-name="&lt;Path&gt;" class="cls-7" d="M2024.17,1004.92a32.34,32.34,0,0,0,6.51-5.47v-9c-1.92,2.1-4.12,4.83-6.61,6.41-7.47,4.74-15.19,5.94-19.64,6.8v6a5.75,5.75,0,0,0,.68,2.67A57,57,0,0,0,2024.17,1004.92Z" transform="translate(-1652.66 -845.91)"/><path id="_Path_15" data-name="&lt;Path&gt;" class="cls-6" d="M1966.44,953.14c-1.07-17.29,9.38-33.49,26.67-37.4a34.49,34.49,0,0,1,41.25,26c0,0.19.06,0.38,0.1,0.57h0l4.23,18.73c3.16,14-2.42,28.83-14.55,36.53a57.26,57.26,0,0,1-19.61,7.59,10.69,10.69,0,0,1-6.66-.85C1980,995.66,1968.06,979.35,1966.44,953.14Z" transform="translate(-1652.66 -845.91)"/><path id="_Path_16" data-name="&lt;Path&gt;" class="cls-9" d="M1971.53,931.59a37.85,37.85,0,0,0-5.08,21.55c0.15,2.46.42,4.8,0.75,7.08,2.94-.36,7.72-2.12,12.4-9l-1.93,6.43s3.27,4.89,10.37.48a44.38,44.38,0,0,0,11.11-9.77l-1.86,6s6.81,3.13,12.44-1.29,8.64-19.68,8.64-19.68l-17.48-8.29Z" transform="translate(-1652.66 -845.91)"/><path id="_Path_17" data-name="&lt;Path&gt;" class="cls-10" d="M2048.13,944.05c-3.34-24.58-21.16-41-50.07-36.66-32.25,4.84-36.39,32.33-36.79,42.75-0.11,2.73,1.18,7,5.09,7,6.78,0,13.22-5.92,13.22-5.92s-5.71,7,.17,7c8.93,0,20.28-14.29,20.28-14.29s-9.89,12.44,1.2,10.57,17.1-21.14,17.1-21.14c4.27,8,12.45,11.79,12.45,11.79v0a11,11,0,0,1,3.56-3.33c0,0.18.06,0.36,0.09,0.54h0l4.23,18.72c0.07,0.33.12,0.66,0.18,1a35.09,35.09,0,0,1-3.59,23.59h0s7-2,10.15-10.62c2.11-5.75,2.66-11.63,3.06-17.14A67.38,67.38,0,0,0,2048.13,944.05Z" transform="translate(-1652.66 -845.91)"/><path id="_Path_18" data-name="&lt;Path&gt;" class="cls-11" d="M2048.13,944.05c-3.34-24.58-21.16-41-50.07-36.66-32.25,4.84-36.39,32.33-36.79,42.75-0.11,2.73,1.18,7,5.09,7,6.78,0,13.22-5.92,13.22-5.92s-5.71,7,.17,7c8.93,0,20.28-14.29,20.28-14.29s-9.89,12.44,1.2,10.57,17.1-21.14,17.1-21.14c4.27,8,12.45,11.79,12.45,11.79v0a11,11,0,0,1,3.56-3.33c0,0.18.06,0.36,0.09,0.54h0l4.23,18.72c0.07,0.33.12,0.66,0.18,1a35.09,35.09,0,0,1-3.59,23.59h0s7-2,10.15-10.62c2.11-5.75,2.66-11.63,3.06-17.14A67.38,67.38,0,0,0,2048.13,944.05Z" transform="translate(-1652.66 -845.91)"/><circle id="_Path_19" data-name="&lt;Path&gt;" class="cls-6" cx="2039.91" cy="951.21" r="10.95" transform="translate(-1812.1 -373.14) rotate(-12.73)"/><path id="_Path_20" data-name="&lt;Path&gt;" class="cls-12" d="M1984.67,1007.33c4,7.32,20.44,5.07,20.44,5.07l0.09-.31a5.62,5.62,0,0,1-.57-2.44v-4.31A61.94,61.94,0,0,0,1984.67,1007.33Z" transform="translate(-1652.66 -845.91)"/><path id="_Path_21" data-name="&lt;Path&gt;" class="cls-7" d="M2076.51,1094.12c-2.21-3.61-9.52-20.44-13-28.66a37.25,37.25,0,0,1-7.07.19l13.15,28.92a22.36,22.36,0,0,0,36.22,6.49l22.48-23.12C2095.73,1110.09,2079.31,1098.7,2076.51,1094.12Z" transform="translate(-1652.66 -845.91)"/><path id="_Path_22" data-name="&lt;Path&gt;" class="cls-13" d="M2005.11,1012.4l0.1-.3a5.62,5.62,0,0,1-.57-2.45v-4.31c0.88-.17-38.16-3-47.72,25.4l-5.81,23.18a23.46,23.46,0,0,0,8.19,7.77C1966.3,1009.2,2005.11,1012.4,2005.11,1012.4Z" transform="translate(-1652.66 -845.91)"/><path id="_Path_23" data-name="&lt;Path&gt;" class="cls-14" d="M2059.49,1416.15c-19.68,11.36-51.59,11.36-71.27,0s-19.68-29.79,0-41.15,51.59-11.36,71.27,0S2079.17,1404.79,2059.49,1416.15Z" transform="translate(-1652.66 -845.91)"/><path id="_Path_24" data-name="&lt;Path&gt;" class="cls-15" d="M2059.49,1416.15c-19.68,11.36-51.59,11.36-71.27,0s-19.68-29.79,0-41.15,51.59-11.36,71.27,0S2079.17,1404.79,2059.49,1416.15Z" transform="translate(-1652.66 -845.91)"/><path id="_Path_25" data-name="&lt;Path&gt;" class="cls-12" d="M1973.5,1396.23h50.34v-13.3h-45.34C1975,1387.12,1973.33,1391.67,1973.5,1396.23Z" transform="translate(-1652.66 -845.91)"/><path id="_Path_26" data-name="&lt;Path&gt;" class="cls-16" d="M2059.49,1416.15c-19.68,11.36-51.59,11.36-71.27,0-9.84-5.68-14.76-13.13-14.76-20.57h0V1404c0,7.45,4.92,14.89,14.76,20.58,19.68,11.36,51.59,11.36,71.27,0,9.84-5.68,14.76-13.13,14.76-20.58v-8.39C2074.24,1403,2069.33,1410.47,2059.49,1416.15Z" transform="translate(-1652.66 -845.91)"/><path id="_Path_27" data-name="&lt;Path&gt;" class="cls-17" d="M2059.49,1416.15c-19.68,11.36-51.59,11.36-71.27,0-9.84-5.68-14.76-13.13-14.76-20.57h0V1404c0,7.45,4.92,14.89,14.76,20.58,19.68,11.36,51.59,11.36,71.27,0,9.84-5.68,14.76-13.13,14.76-20.58v-8.39C2074.24,1403,2069.33,1410.47,2059.49,1416.15Z" transform="translate(-1652.66 -845.91)"/><path id="_Path_28" data-name="&lt;Path&gt;" class="cls-16" d="M2013.33,1239v151.18h0c0,1.56,1,3.11,3.08,4.3a16.45,16.45,0,0,0,14.88,0c2.05-1.19,3.08-2.74,3.08-4.3V1239h-21Z" transform="translate(-1652.66 -845.91)"/><path id="_Path_29" data-name="&lt;Path&gt;" class="cls-18" d="M2013.33,1239v151.18h0c0,1.56,1,3.11,3.08,4.3a16.45,16.45,0,0,0,14.88,0c2.05-1.19,3.08-2.74,3.08-4.3V1239h-21Z" transform="translate(-1652.66 -845.91)"/><path id="_Path_30" data-name="&lt;Path&gt;" class="cls-19" d="M2013.33,1239v151.18h0c0,1.56,1,3.11,3.08,4.3a16.45,16.45,0,0,0,14.88,0c2.05-1.19,3.08-2.74,3.08-4.3V1239h-21Z" transform="translate(-1652.66 -845.91)"/><path id="_Path_31" data-name="&lt;Path&gt;" class="cls-20" d="M2013.33,1323.22c7,0.33,14,.33,21,0V1239h-21v84.26Z" transform="translate(-1652.66 -845.91)"/><path id="_Path_32" data-name="&lt;Path&gt;" class="cls-21" d="M2013.33,1239v7.94h14.25v148.92a13.08,13.08,0,0,0,3.71-1.37c2.05-1.19,3.08-2.74,3.08-4.3V1239h-21Z" transform="translate(-1652.66 -845.91)"/><g id="_Group_2" data-name="&lt;Group&gt;"><path id="_Path_33" data-name="&lt;Path&gt;" class="cls-6" d="M1922.25,1311.44l8.31-5.36a157.67,157.67,0,0,0-11,54.7c-0.68,31.29-.52,41.28-4.31,55.72l14,13.75a18.15,18.15,0,0,0,19.89,3.73l1.48-.64s-13.91-10.63-15.16-21.84,24.57-98.69,24.16-126.57-34.28-23.36-44.37-19.27Z" transform="translate(-1652.66 -845.91)"/><path id="_Path_34" data-name="&lt;Path&gt;" class="cls-22" d="M1922.25,1311.44l8.31-5.36a157.67,157.67,0,0,0-11,54.7c-0.68,31.29-.52,41.28-4.31,55.72l14,13.75a18.15,18.15,0,0,0,19.89,3.73l1.48-.64s-13.91-10.63-15.16-21.84,24.57-98.69,24.16-126.57-34.28-23.36-44.37-19.27Z" transform="translate(-1652.66 -845.91)"/><path id="_Path_35" data-name="&lt;Path&gt;" class="cls-23" d="M1963.89,1434.59l-13.27-1.25-1.48.64a18.15,18.15,0,0,1-19.89-3.73s-13.73-14.85-13.59-15.39c-0.07,0-9.15,5-4.19,18.56s3.78,19.85,3.78,19.85a3.09,3.09,0,0,0,4.19,0V1438l16.63,9.61a9.65,9.65,0,0,0,9.66,0l18.65-10.77A1.22,1.22,0,0,0,1963.89,1434.59Z" transform="translate(-1652.66 -845.91)"/><path id="_Path_36" data-name="&lt;Path&gt;" class="cls-24" d="M1963.89,1434.59l-13.27-1.25-1.48.64a18.15,18.15,0,0,1-19.89-3.73s-13.73-14.85-13.59-15.39c-0.07,0-9.15,5-4.19,18.56s3.78,19.85,3.78,19.85a3.09,3.09,0,0,0,4.19,0V1438l16.63,9.61a9.65,9.65,0,0,0,9.66,0l18.65-10.77A1.22,1.22,0,0,0,1963.89,1434.59Z" transform="translate(-1652.66 -845.91)"/><g id="_Group_3" data-name="&lt;Group&gt;"><path id="_Path_37" data-name="&lt;Path&gt;" class="cls-14" d="M1911.66,1484c-11.67,6.74-30.59,6.74-42.27,0s-11.67-17.66,0-24.4,30.59-6.74,42.27,0S1923.34,1477.29,1911.66,1484Z" transform="translate(-1652.66 -845.91)"/><path id="_Path_38" data-name="&lt;Path&gt;" class="cls-12" d="M1890.53,1465.6h-27.86a10.64,10.64,0,0,0-1.65,8.85h29.51v-8.85Z" transform="translate(-1652.66 -845.91)"/><path id="_Path_39" data-name="&lt;Path&gt;" class="cls-16" d="M1884.2,1405.29v65.51h0a3.15,3.15,0,0,0,1.86,2.59,9.9,9.9,0,0,0,9,0,3.15,3.15,0,0,0,1.86-2.59v-65.51H1884.2Z" transform="translate(-1652.66 -845.91)"/><path id="_Path_40" data-name="&lt;Path&gt;" class="cls-25" d="M1884.2,1405.29v65.51h0a3.15,3.15,0,0,0,1.86,2.59,9.9,9.9,0,0,0,9,0,3.15,3.15,0,0,0,1.86-2.59v-65.51H1884.2Z" transform="translate(-1652.66 -845.91)"/><path id="_Path_41" data-name="&lt;Path&gt;" class="cls-26" d="M1893.07,1405.29v68.86a7.56,7.56,0,0,0,1.94-.75,3.15,3.15,0,0,0,1.86-2.59v-65.51h-3.79Z" transform="translate(-1652.66 -845.91)"/><path id="_Path_42" data-name="&lt;Path&gt;" class="cls-27" d="M1889.28,1405.29h-5.09v65.51h0a3.15,3.15,0,0,0,1.86,2.59,8.49,8.49,0,0,0,3.23,1v-69.1Z" transform="translate(-1652.66 -845.91)"/><path id="_Path_43" data-name="&lt;Path&gt;" class="cls-16" d="M1911.66,1484c-11.67,6.74-30.59,6.74-42.27,0-5.83-3.37-8.75-7.78-8.75-12.2h0v5c0,4.42,2.92,8.83,8.75,12.2,11.67,6.74,30.59,6.74,42.27,0,5.84-3.37,8.75-7.78,8.75-12.2v-5C1920.42,1476.25,1917.5,1480.66,1911.66,1484Z" transform="translate(-1652.66 -845.91)"/><path id="_Path_44" data-name="&lt;Path&gt;" class="cls-28" d="M1911.66,1484c-11.67,6.74-30.59,6.74-42.27,0-5.83-3.37-8.75-7.78-8.75-12.2h0v5c0,4.42,2.92,8.83,8.75,12.2,11.67,6.74,30.59,6.74,42.27,0,5.84-3.37,8.75-7.78,8.75-12.2v-5C1920.42,1476.25,1917.5,1480.66,1911.66,1484Z" transform="translate(-1652.66 -845.91)"/><path id="_Path_45" data-name="&lt;Path&gt;" class="cls-29" d="M1929.87,1371c-21.73,12.54-56.94,12.54-78.67,0s-21.73-32.88,0-45.42,56.95-12.55,78.67,0S1951.59,1358.45,1929.87,1371Z" transform="translate(-1652.66 -845.91)"/><path id="_Path_46" data-name="&lt;Path&gt;" class="cls-30" d="M1929.87,1371c-21.73,12.54-56.94,12.54-78.67,0s-21.73-32.88,0-45.42,56.95-12.55,78.67,0S1951.59,1358.45,1929.87,1371Z" transform="translate(-1652.66 -845.91)"/><path id="_Path_47" data-name="&lt;Path&gt;" class="cls-12" d="M1929.87,1325.57c-21.73-12.55-56.95-12.55-78.67,0-9.25,5.34-14.55,12.09-15.92,19.06,2.85,4.92,7.65,9.54,14.43,13.45,23.38,13.5,61.28,13.5,84.65,0a42.55,42.55,0,0,0,11.8-9.67C1946.21,1340.15,1940.78,1331.88,1929.87,1325.57Z" transform="translate(-1652.66 -845.91)"/><g id="_Group_4" data-name="&lt;Group&gt;"><path id="_Path_48" data-name="&lt;Path&gt;" class="cls-31" d="M1929.87,1371c-21.73,12.54-56.94,12.54-78.67,0-10.86-6.27-16.3-14.49-16.3-22.71h0v28.66c0,8.22,5.43,16.44,16.3,22.71,21.73,12.54,56.95,12.54,78.67,0,10.86-6.27,16.29-14.49,16.29-22.71v-28.66C1946.16,1356.5,1940.73,1364.72,1929.87,1371Z" transform="translate(-1652.66 -845.91)"/></g><g id="_Group_5" data-name="&lt;Group&gt;" class="cls-32"><path id="_Path_49" data-name="&lt;Path&gt;" class="cls-33" d="M1929.87,1371c-21.73,12.54-56.94,12.54-78.67,0-10.86-6.27-16.3-14.49-16.3-22.71h0v28.66c0,8.22,5.43,16.44,16.3,22.71,21.73,12.54,56.95,12.54,78.67,0,10.86-6.27,16.29-14.49,16.29-22.71v-28.66C1946.16,1356.5,1940.73,1364.72,1929.87,1371Z" transform="translate(-1652.66 -845.91)"/></g><path id="_Path_50" data-name="&lt;Path&gt;" class="cls-34" d="M1905.8,1379.16c-18.78,3.09-39.82.37-54.61-8.16-10.86-6.27-16.3-14.49-16.3-22.71v28.66c0,8.22,5.43,16.44,16.3,22.71,14.79,8.54,35.83,11.25,54.61,8.17v-28.66Z" transform="translate(-1652.66 -845.91)"/><g id="_Group_6" data-name="&lt;Group&gt;" class="cls-35"><path id="_Path_51" data-name="&lt;Path&gt;" class="cls-36" d="M1944.36,1356.4l-0.55,1.25a23.13,23.13,0,0,1-1.94,3.37,36,36,0,0,1-10.09,9.52c-1.2.81-2.56,1.54-3.89,2.26-0.68.36-1.35,0.76-2.07,1.11l-2.25,1c-0.76.33-1.53,0.7-2.32,1l-2.42.88a44.82,44.82,0,0,1-5.08,1.57c-1.73.52-3.53,0.88-5.35,1.25s-3.68.65-5.55,0.93a96.9,96.9,0,0,1-11.44.86c-1.93,0-3.85-.1-5.76-0.15s-3.81-.33-5.7-0.48l-5.57-.82c-1.82-.39-3.62-0.73-5.38-1.15s-3.47-.9-5.11-1.46-3.25-1.13-4.78-1.78-3-1.3-4.38-2l-4-2.17a42.36,42.36,0,0,1-6.34-4.66,34.7,34.7,0,0,1-4.16-4.4,24.45,24.45,0,0,1-2.16-3.23l-0.64-1.21,0.74,1.15a29.13,29.13,0,0,0,2.37,3,40.83,40.83,0,0,0,10.8,8.29l3.93,2c1.38,0.63,2.87,1.17,4.36,1.79s3.12,1,4.73,1.55,3.32,0.88,5,1.33,3.49,0.69,5.27,1.05l5.46,0.74c1.85,0.13,3.71.31,5.58,0.4s3.76,0.12,5.64.08a95.54,95.54,0,0,0,11.21-.7c1.83-.26,3.67-0.45,5.44-0.84s3.55-.67,5.25-1.16,3.38-.89,5-1.44l2.4-.77c0.78-.28,1.52-0.6,2.27-0.9l2.21-.88c0.72-.33,1.41-0.7,2.1-1,1.41-.69,2.69-1.32,3.89-2.06a37.58,37.58,0,0,0,10.39-8.75,27,27,0,0,0,2.18-3.17Z" transform="translate(-1652.66 -845.91)"/></g></g><path id="_Path_52" data-name="&lt;Path&gt;" class="cls-6" d="M1953.16,1331.06l8.31-5.36a157.66,157.66,0,0,0-11,54.7c-0.68,31.29-.52,41.28-4.31,55.72l14,13.75a18.15,18.15,0,0,0,19.88,3.73l1.48-.64s-13.91-10.63-15.16-21.84,24.57-98.69,24.17-126.57-34.28-23.37-44.37-19.27Z" transform="translate(-1652.66 -845.91)"/><path id="_Path_53" data-name="&lt;Path&gt;" class="cls-37" d="M1953.16,1331.06l8.31-5.36a157.66,157.66,0,0,0-11,54.7c-0.68,31.29-.52,41.28-4.31,55.72l14,13.75a18.15,18.15,0,0,0,19.88,3.73l1.48-.64s-13.91-10.63-15.16-21.84,24.57-98.69,24.17-126.57-34.28-23.37-44.37-19.27Z" transform="translate(-1652.66 -845.91)"/><path id="_Path_54" data-name="&lt;Path&gt;" class="cls-38" d="M1935.51,1277.25c-9.72-6.73-22-13.22-22-13.22l-12.91,7.45h0l-3,18.31c-28,26.32-57.08.14-57.38-.13h0s-21.77,38.07,9.26,58.62,60.55,18.49,102.42-13.93C1951.95,1334.35,1967.65,1299.5,1935.51,1277.25Z" transform="translate(-1652.66 -845.91)"/><path id="_Path_55" data-name="&lt;Path&gt;" class="cls-39" d="M1935.51,1277.25c-9.72-6.73-22-13.22-22-13.22l-12.91,7.45h0l-3,18.31c-28,26.32-57.08.14-57.38-.13h0s-0.84,1.47-1.95,4c6.64,6.7,23.08,18.77,50.24,10.92,0,0,9.14,20,29.2,2.56l15.08-13.53s17.59,7.65,17.59,34.06l3.85-.61C1957,1315.62,1958.55,1293.2,1935.51,1277.25Z" transform="translate(-1652.66 -845.91)"/><path id="_Path_56" data-name="&lt;Path&gt;" class="cls-39" d="M1847,1338.74a38.79,38.79,0,0,1-13.63-14.87c1.36,8.71,5.81,17.54,16.19,24.41,31,20.55,60.55,18.49,102.42-13.93a49,49,0,0,0,2.91-10C1910.79,1358.3,1879.67,1360.41,1847,1338.74Z" transform="translate(-1652.66 -845.91)"/><path id="_Path_57" data-name="&lt;Path&gt;" class="cls-40" d="M1935.51,1277.25c-9.72-6.73-22-13.22-22-13.22l-12.91,7.45h0l-3,18.31c-28,26.32-57.08.14-57.38-.13h0s-21.77,38.07,9.26,58.62,60.55,18.49,102.42-13.93C1951.95,1334.35,1967.65,1299.5,1935.51,1277.25Z" transform="translate(-1652.66 -845.91)"/><path id="_Path_58" data-name="&lt;Path&gt;" class="cls-41" d="M1935.51,1277.25c-9.72-6.73-22-13.22-22-13.22l-12.91,7.45h0l-3,18.31c-28,26.32-57.08.14-57.38-.13h0s-21.77,38.07,9.26,58.62,60.55,18.49,102.42-13.93C1951.95,1334.35,1967.65,1299.5,1935.51,1277.25Z" transform="translate(-1652.66 -845.91)"/><path id="_Path_59" data-name="&lt;Path&gt;" class="cls-2" d="M2147.65,1419.08s7.85,14.2-1.21,19.43-19.61,6.16-32.88-3.37-30.7-16.73-30.7-27.9,15.09-16,29.44-7.8S2147.65,1419.08,2147.65,1419.08Z" transform="translate(-1652.66 -845.91)"/><path id="_Path_60" data-name="&lt;Path&gt;" class="cls-42" d="M2152.73,1305.47v111.92s-18.41,11.5-36.35,0V1292.3c0-22.3,20.91-39.84,43.13-38h0Z" transform="translate(-1652.66 -845.91)"/><path id="_Path_61" data-name="&lt;Path&gt;" class="cls-43" d="M2152.73,1305.47v111.92s-18.41,11.5-36.35,0V1292.3c0-22.3,20.91-39.84,43.13-38h0Z" transform="translate(-1652.66 -845.91)"/><path id="_Path_62" data-name="&lt;Path&gt;" class="cls-44" d="M2152.73,1305.47v111.92s-18.41,11.5-36.35,0V1292.3c0-22.3,20.91-39.84,43.13-38h0Z" transform="translate(-1652.66 -845.91)"/><g id="_Group_7" data-name="&lt;Group&gt;"><path id="_Compound_Path_" data-name="&lt;Compound Path&gt;" class="cls-36" d="M2136.65,1134.06c-62.3-36-163.31-36-225.61,0-34.08,19.67-49.47,46-46.27,71.76-3.2,25.73,12.19,52.09,46.27,71.76,62.3,36,163.31,36,225.61,0,34.07-19.67,49.47-46,46.27-71.76C2186.12,1180.09,2170.73,1153.73,2136.65,1134.06Z" transform="translate(-1652.66 -845.91)"/><path id="_Path_63" data-name="&lt;Path&gt;" class="cls-14" d="M2136.65,1264.31c-62.3,36-163.31,36-225.61,0s-62.3-94.29,0-130.26,163.31-36,225.61,0S2199,1228.34,2136.65,1264.31Z" transform="translate(-1652.66 -845.91)"/><path id="_Path_64" data-name="&lt;Path&gt;" class="cls-45" d="M2136.65,1264.31c-62.3,36-163.31,36-225.61,0s-62.3-94.29,0-130.26,163.31-36,225.61,0S2199,1228.34,2136.65,1264.31Z" transform="translate(-1652.66 -845.91)"/><path id="_Path_65" data-name="&lt;Path&gt;" class="cls-46" d="M2136.65,1264.31c-62.3,36-163.31,36-225.61,0s-62.3-94.29,0-130.26,163.31-36,225.61,0S2199,1228.34,2136.65,1264.31Z" transform="translate(-1652.66 -845.91)"/><polygon id="_Path_66" data-name="&lt;Path&gt;" class="cls-12" points="288.17 343.81 235.37 343.81 256.78 368.51 288.17 343.81"/><path id="_Path_67" data-name="&lt;Path&gt;" class="cls-47" d="M2136.65,1264.31c-62.3,36-163.31,36-225.61,0-28.23-16.3-43.62-37.18-46.27-58.49-3.2,25.73,12.19,52.09,46.27,71.76,62.3,36,163.31,36,225.61,0,34.07-19.67,49.47-46,46.27-71.76C2180.27,1227.13,2164.88,1248,2136.65,1264.31Z" transform="translate(-1652.66 -845.91)"/><path id="_Path_68" data-name="&lt;Path&gt;" class="cls-48" d="M2136.65,1264.31c-62.3,36-163.31,36-225.61,0-28.23-16.3-43.62-37.18-46.27-58.49-3.2,25.73,12.19,52.09,46.27,71.76,62.3,36,163.31,36,225.61,0,34.07-19.67,49.47-46,46.27-71.76C2180.27,1227.13,2164.88,1248,2136.65,1264.31Z" transform="translate(-1652.66 -845.91)"/><path id="_Path_69" data-name="&lt;Path&gt;" class="cls-49" d="M2136.65,1264.31c-62.3,36-163.31,36-225.61,0-28.23-16.3-43.62-37.18-46.27-58.49-3.2,25.73,12.19,52.09,46.27,71.76,62.3,36,163.31,36,225.61,0,34.07-19.67,49.47-46,46.27-71.76C2180.27,1227.13,2164.88,1248,2136.65,1264.31Z" transform="translate(-1652.66 -845.91)"/><g id="_Group_8" data-name="&lt;Group&gt;"><path class="cls-36" d="M2147.75,1257.21l-2.34,1.65c-1.54,1.06-3.81,2.58-6.8,4.4-1.48.92-3.18,1.85-5,2.87l-2.86,1.6-3.15,1.59c-1.09.54-2.2,1.13-3.37,1.68l-3.62,1.65c-2.46,1.18-5.15,2.18-7.91,3.32-5.59,2.14-11.7,4.3-18.31,6.15-3.28,1-6.71,1.8-10.2,2.7s-7.09,1.63-10.78,2.28-7.43,1.3-11.23,1.9-7.67,1-11.59,1.39-7.86.67-11.82,0.95-8,.38-11.95.4c-8,.05-16-0.17-23.79-0.82s-15.52-1.5-22.89-2.78-14.47-2.69-21.09-4.46l-2.47-.63-2.42-.7-4.72-1.37-4.52-1.47-2.2-.71-2.13-.77-4.13-1.5c-1.34-.5-2.63-1.05-3.89-1.56s-2.5-1-3.67-1.54l-3.42-1.56c-2.23-1-4.24-2-6.12-3-0.94-.48-1.84-0.92-2.69-1.37l-2.4-1.34c-3.07-1.65-5.38-3.14-7-4.12l-2.43-1.51,2.45,1.47c1.6,1,3.93,2.41,7,4l2.42,1.3c0.85,0.44,1.77.87,2.71,1.33,1.89,0.92,3.92,1.94,6.15,2.88l3.44,1.51c1.18,0.51,2.43,1,3.69,1.48s2.55,1,3.89,1.53l4.12,1.48,2.13,0.76,2.2,0.7,4.52,1.44,4.72,1.34,2.42,0.68,2.47,0.61c6.61,1.73,13.7,3.12,21.05,4.34s15,2,22.83,2.65,15.77,0.78,23.72.7c4,0,7.95-.17,11.91-0.33s7.89-.47,11.79-0.88,7.75-.86,11.56-1.33,7.55-1.12,11.21-1.84,7.25-1.47,10.76-2.22,6.9-1.66,10.18-2.64c6.59-1.81,12.71-3.93,18.29-6,2.76-1.12,5.44-2.12,7.92-3.26l3.64-1.59c1.17-.53,2.29-1.1,3.38-1.62l3.16-1.54,2.89-1.55c1.85-1,3.55-1.9,5-2.79,3-1.76,5.3-3.25,6.86-4.29Z" transform="translate(-1652.66 -845.91)"/></g></g><g id="_Group_9" data-name="&lt;Group&gt;"><polygon id="_Path_70" data-name="&lt;Path&gt;" class="cls-50" points="303.38 280.58 300.41 282.32 288.17 343.81 364.39 387.83 367.36 386.1 379.6 324.61 303.38 280.58"/><polygon id="_Path_71" data-name="&lt;Path&gt;" class="cls-51" points="313.7 417.07 237.45 373.05 291.1 342.07 367.36 386.1 313.7 417.07"/><polygon id="_Path_72" data-name="&lt;Path&gt;" class="cls-52" points="324.88 402.04 265.1 367.52 290.27 353.28 350.05 387.79 324.88 402.04"/><g id="_Group_10" data-name="&lt;Group&gt;"><path id="_Compound_Path_2" data-name="&lt;Compound Path&gt;" class="cls-53" d="M1980.28,1246.4l1.08-.61-3.32-1.94,3.42-2,3.38,2,1.08-.61-3.4-2,3.43-2,3.46,2,1.08-.61-3.48-2,3.43-2,3.54,2.07,1.08-.61-3.56-2.08,3.43-2,3.62,2.12,1.08-.61-3.64-2.13,3-1.77-1.07-.62-3,1.77L1992,1231l3-1.76-1.07-.62-3,1.75-2.89-1.69,3-1.74-1.07-.62-3,1.74-2.89-1.69,2.95-1.73L1986,1224l-2.94,1.73-2.89-1.69,2.93-1.72-1.07-.62-2.92,1.71-2.89-1.69,2.9-1.7-1.07-.62-2.9,1.7-2.9-1.69,2.88-1.69-1.07-.62-2.88,1.69-2.89-1.69,2.86-1.67-1.07-.62-2.85,1.67-2.91-1.7,2.84-1.66-1.07-.62-2.83,1.66-2.86-1.67,2.81-1.65-1.06-.61-2.79,1.65-2.92-1.71,2.79-1.63-1.07-.62-2.78,1.63-2.89-1.69,2.76-1.62-1.07-.61-2.76,1.62-2.89-1.69,2.74-1.61-1.07-.62-2.73,1.6-2.89-1.69,2.72-1.59-1.07-.62-2.71,1.59-3.3-1.93-1.08.61,3.32,1.94-3.43,2-3.38-2-1.08.61,3.4,2-3.43,2-3.46-2-1.08.61,3.48,2-3.42,2-3.54-2.07-1.08.61,3.56,2.08-3.43,2-3.62-2.12-1.08.61,3.64,2.13-3,1.77,1.07,0.62,3-1.77,2.89,1.69-3,1.76,1.07,0.61,3-1.75,2.89,1.69-3,1.74,1.07,0.62,3-1.74,2.89,1.69-2.95,1.73,1.07,0.62,2.94-1.72,18.71,10.93-2.83,1.66,1.07,0.62,2.82-1.66,2.89,1.69-2.8,1.64,1.07,0.62,2.8-1.64,2.89,1.69-2.78,1.63,1.07,0.62,2.78-1.63,2.89,1.69-2.76,1.62,1.07,0.61,2.75-1.61,2.89,1.69-2.73,1.61,1.07,0.62,2.73-1.6,2.89,1.69-2.71,1.59,1.07,0.62,2.71-1.59Zm1.18-5.8-2.89-1.69,3.43-2,2.89,1.69Zm-3.43-7.25-2.89-1.69,3.43-2,2.89,1.69Zm4.49-1.39,2.89,1.69-3.43,2-2.89-1.69Zm-8.44-.92-2.89-1.69,3.43-2,2.89,1.69Zm-4-2.31-2.89-1.69,3.43-2,2.89,1.69Zm-4-2.31-2.91-1.7,3.43-2,2.9,1.7Zm-4-2.32-2.89-1.69,3.43-2,2.89,1.69Zm-4-2.31-2.93-1.71,3.43-2,2.92,1.7Zm-4-2.33-2.83-1.65,3.42-2,2.84,1.66Zm-3.85-2.25-3-1.73,3.43-2,2.94,1.72Zm-4-2.35-2.89-1.69,3.43-2,2.89,1.69Zm-4-2.31-2.89-1.69,3.43-2,2.89,1.69Zm-1.06.62-3.43,2-2.89-1.69,3.43-2Zm1.06,0.62,2.89,1.69-3.43,2-2.89-1.69Zm4,2.31,3,1.73-3.41,2-3-1.74Zm4,2.33,2.82,1.65-3.43,2-2.81-1.64Zm3.89,2.27,2.93,1.71-3.43,2-2.93-1.71Zm4,2.33,2.89,1.69-3.43,2-2.88-1.69Zm4,2.31,2.91,1.7-3.43,2-2.91-1.7Zm4,2.32,2.89,1.69-3.43,2-2.89-1.69Zm4,2.31,2.89,1.69-3.43,2-2.89-1.69Zm4,2.31L1977,1234l-3.43,2-2.89-1.69Zm4,2.31,2.89,1.69-3.42,2-2.89-1.69Zm7.91,3.38-2.9-1.69,3.43-2,2.89,1.69Zm5-6.33,2.89,1.69-3.43,2-2.89-1.69Zm-4-2.31,2.89,1.69-3.43,2-2.89-1.69Zm-4-2.31,2.89,1.69-3.43,2-2.89-1.69Zm-4-2.31,2.89,1.69-3.43,2-2.89-1.69Zm-4-2.31,2.89,1.69-3.43,2-2.89-1.69Zm-4-2.32,2.9,1.69-3.43,2-2.9-1.7Zm-4-2.31,2.89,1.69-3.43,2-2.89-1.69Zm-4-2.32,2.91,1.7-3.43,2-2.92-1.71Zm-1.06-.62-3.43,2-2.84-1.66,3.42-2Zm-6.82-4,2.93,1.71-3.41,2-2.94-1.72Zm-4-2.31,2.89,1.69-3.43,2-2.89-1.69Zm-4-2.31,2.89,1.69-3.43,2-2.89-1.69Zm-4-2.31,2.89,1.69-3.43,2-2.89-1.69Zm-4.48,2.63,2.89,1.69-3.43,2-2.89-1.69Zm-4.49,2.63,2.89,1.69-3.42,2-2.89-1.69Zm-5,6.33-2.89-1.69,3.43-2,2.89,1.69Zm4,2.31-2.89-1.69,3.43-2,2.89,1.69Zm4,2.31-2.89-1.69,3.42-2,2.89,1.69Zm1.06,0.62,3.43-2,3,1.74-3.41,2Zm4,2.33,3.42-2,2.81,1.64-3.43,2Zm3.86,2.26,3.43-2,2.94,1.71-3.43,2Zm4,2.34,3.43-2,2.88,1.68-3.43,2Zm6.86,4-2.92-1.7,3.43-2,2.91,1.7Zm4,2.31-2.89-1.69,3.43-2,2.89,1.69Zm4,2.31-2.89-1.69,3.43-2,2.89,1.69Zm4,2.31-2.89-1.69,3.42-2,2.89,1.69Zm4,2.31-2.89-1.69,3.43-2,2.89,1.69Zm1.06,0.62,3.43-2,2.89,1.69-3.43,2Z" transform="translate(-1652.66 -845.91)"/></g><polygon id="_Path_73" data-name="&lt;Path&gt;" class="cls-52" points="288.16 395.33 271.92 385.96 278.75 382.09 294.99 391.46 288.16 395.33"/><polygon id="_Path_74" data-name="&lt;Path&gt;" class="cls-54" points="367.36 386.1 367.36 389.3 313.7 420.28 313.7 417.07 367.36 386.1"/><polygon id="_Path_75" data-name="&lt;Path&gt;" class="cls-50" points="313.7 420.28 313.7 417.07 237.45 373.05 237.45 376.25 313.7 420.28"/><polygon id="_Path_76" data-name="&lt;Path&gt;" class="cls-55" points="288.17 343.81 300.41 282.32 376.63 326.35 364.39 387.83 288.17 343.81"/><polygon id="_Path_77" data-name="&lt;Path&gt;" class="cls-56" points="288.17 343.81 300.41 282.32 376.63 326.35 364.39 387.83 288.17 343.81"/><polygon id="_Path_78" data-name="&lt;Path&gt;" class="cls-31" points="294.99 339.82 304.43 292.41 369.65 330.26 360.2 377.67 294.99 339.82"/><polygon id="_Path_79" data-name="&lt;Path&gt;" class="cls-57" points="294.99 339.82 304.43 292.41 369.65 330.26 360.2 377.67 294.99 339.82"/><polygon id="_Path_80" data-name="&lt;Path&gt;" class="cls-54" points="364.39 387.83 367.36 386.1 379.6 324.61 376.63 326.35 364.39 387.83"/><polygon id="_Path_81" data-name="&lt;Path&gt;" class="cls-50" points="376.63 326.35 300.41 282.32 303.38 280.58 379.6 324.61 376.63 326.35"/><path id="_Path_82" data-name="&lt;Path&gt;" class="cls-12" d="M1969.31,1251.56h0a35,35,0,0,1-15.46,7.37l-39.46-22.78-11.31,6.41,49.07,18.3a168.67,168.67,0,0,1-20.56,26.7c1.51,0.62,3,1.25,4.57,1.83l9.29-10,9.4-17.54,11.56,4.31-10.59-6.11,3.85-1A43.36,43.36,0,0,0,1969.31,1251.56Z" transform="translate(-1652.66 -845.91)"/><polygon id="_Path_83" data-name="&lt;Path&gt;" class="cls-58" points="369.65 330.26 313.7 350.69 320.85 354.83 368.1 338.04 369.65 330.26"/><polygon id="_Path_84" data-name="&lt;Path&gt;" class="cls-58" points="328.86 359.51 366.4 346.55 365.84 349.38 331.46 360.99 328.86 359.51"/></g><g id="_Group_11" data-name="&lt;Group&gt;"><path id="_Path_85" data-name="&lt;Path&gt;" class="cls-6" d="M1821.4,1195.1c-7.93,30.65-15.46,75.45,8.4,68.93l0.43-.12C1820.53,1234.6,1819,1211.47,1821.4,1195.1Z" transform="translate(-1652.66 -845.91)"/><path id="_Path_86" data-name="&lt;Path&gt;" class="cls-6" d="M1932,1212.43c-4.42-3.86-12.89-9.18-23.54-6.07,3.7,5.25,7.38,11.62,8.53,17.39a23.79,23.79,0,0,0,5.09-2.87,23,23,0,0,1,8.8-4A2.56,2.56,0,0,0,1932,1212.43Z" transform="translate(-1652.66 -845.91)"/></g><path id="_Path_87" data-name="&lt;Path&gt;" class="cls-59" d="M1860,1169.61s-19.77-10.13-29.43,1.08c-11.07,12.84-19.32,54.09,9.66,119,0,0,29.28,26.61,57.4.15l6.53-40.18s6.84-5.1,12.26-18c3.19-7.56-2.83-19.46-8.33-28a47.58,47.58,0,0,0-15.89-15.2Z" transform="translate(-1652.66 -845.91)"/><path id="_Path_88" data-name="&lt;Path&gt;" class="cls-60" d="M1897.67,1289.81l2.24-13.79-19.63-66s-7.46,24.62-.45,64.58c1.65,9.4-5.17,18.34-14.71,18.67a46.84,46.84,0,0,1-8.41-.51c-9.23-1.36-14.69-4-17.85-6.37,0.47,1.08.92,2.16,1.41,3.25C1840.27,1289.66,1869.55,1316.27,1897.67,1289.81Z" transform="translate(-1652.66 -845.91)"/><path id="_Path_89" data-name="&lt;Path&gt;" class="cls-61" d="M1860,1169.61s-19.77-10.13-29.43,1.08c-11.07,12.84-19.32,54.09,9.66,119,0,0,29.28,26.61,57.4.15l6.53-40.18s6.84-5.1,12.26-18c3.19-7.56-2.83-19.46-8.33-28a47.58,47.58,0,0,0-15.89-15.2Z" transform="translate(-1652.66 -845.91)"/><path id="_Path_90" data-name="&lt;Path&gt;" class="cls-62" d="M1860,1169.61s-19.77-10.13-29.43,1.08c-11.07,12.84-19.32,54.09,9.66,119,0,0,29.28,26.61,57.4.15l6.53-40.18s6.84-5.1,12.26-18c3.19-7.56-2.83-19.46-8.33-28a47.58,47.58,0,0,0-15.89-15.2Z" transform="translate(-1652.66 -845.91)"/><path id="_Path_91" data-name="&lt;Path&gt;" class="cls-7" d="M1821.4,1195.1c-2,7.56-3.89,16-5.33,24.28,0.54,12.73,3.05,27.85,8.49,45.22a15.29,15.29,0,0,0,5.24-.57l0.43-.12C1820.53,1234.6,1819,1211.47,1821.4,1195.1Z" transform="translate(-1652.66 -845.91)"/><path id="_Path_92" data-name="&lt;Path&gt;" class="cls-6" d="M1877.93,1172.1s-1.59,5,6.26,11.76c0,0-8.23,6.94-16.78,4.83s-15.47-8.77-13.51-12.91a81.93,81.93,0,0,0,3.21-7.8Z" transform="translate(-1652.66 -845.91)"/><path id="_Path_93" data-name="&lt;Path&gt;" class="cls-7" d="M1868.7,1178.73a54.21,54.21,0,0,0,13.13,2.84c-5.12-5.59-3.89-9.47-3.89-9.47l-20.81-4.12s-0.35,1-1,2.59A32.61,32.61,0,0,0,1868.7,1178.73Z" transform="translate(-1652.66 -845.91)"/><path id="_Path_94" data-name="&lt;Path&gt;" class="cls-6" d="M1906.11,1114.42c-2.77-17.1-16.53-30.6-34.26-30.6a34.49,34.49,0,0,0-34.49,34.49c0,0.19,0,.38,0,0.58h0v19.2c0,14.37,8.71,27.59,22.25,32.43a57.24,57.24,0,0,0,20.81,3.08,10.68,10.68,0,0,0,6.3-2.3C1902.24,1158.89,1910.3,1140.34,1906.11,1114.42Z" transform="translate(-1652.66 -845.91)"/><path id="_Path_95" data-name="&lt;Path&gt;" class="cls-10" d="M1903,1104.36s1.47,19-22.09,28.67c0,0-9.25,10.25-10.83,24.48a13.75,13.75,0,0,1-19.49,10.75c-11.31-5.27-22.92-16.07-22.92-38.19,0-43.16,30.29-50.73,44.15-50.73C1886.56,1079.34,1903,1088.17,1903,1104.36Z" transform="translate(-1652.66 -845.91)"/><path id="_Path_96" data-name="&lt;Path&gt;" class="cls-63" d="M1903,1104.36s1.47,19-22.09,28.67c0,0-9.25,10.25-10.83,24.48a13.75,13.75,0,0,1-19.49,10.75c-11.31-5.27-22.92-16.07-22.92-38.19,0-43.16,30.29-50.73,44.15-50.73C1886.56,1079.34,1903,1088.17,1903,1104.36Z" transform="translate(-1652.66 -845.91)"/><path id="_Path_97" data-name="&lt;Path&gt;" class="cls-64" d="M1839.49,1125.49c0.47-7.11-3.5-13.69-10.52-14.9-17.14-3-18.88,20.38-20.15,27.75-3.06,17.74-14.33,31.92-14.33,31.92C1821.8,1177.37,1838,1148.16,1839.49,1125.49Z" transform="translate(-1652.66 -845.91)"/><path id="_Path_98" data-name="&lt;Path&gt;" class="cls-23" d="M1994.8,1454.22l-13.27-1.25-1.48.64a18.15,18.15,0,0,1-19.88-3.73s-13.73-14.85-13.59-15.39c-0.07,0-9.15,5-4.19,18.56s3.78,19.85,3.78,19.85a3.09,3.09,0,0,0,4.19,0v-15.26l16.64,9.61a9.66,9.66,0,0,0,9.66,0l18.65-10.77A1.22,1.22,0,0,0,1994.8,1454.22Z" transform="translate(-1652.66 -845.91)"/><path id="_Path_99" data-name="&lt;Path&gt;" class="cls-6" d="M1896.08,1195.29c-5.61,0-16.82,3.15-16.82,24.85s3.76,104,30.65,86,43.29-47.08,43.29-47.08,13.13-1.91,20-11.8a23,23,0,0,1,7.09-6.58h0a2.56,2.56,0,0,0-.35-4.57c-7.75-3.24-24.29-6.72-35.34,15.38l-33.27,23.25a1.73,1.73,0,0,1-2.81-1.47C1909.62,1256.78,1912.09,1195.29,1896.08,1195.29Z" transform="translate(-1652.66 -845.91)"/><g id="_Group_12" data-name="&lt;Group&gt;"><path id="_Path_100" data-name="&lt;Path&gt;" class="cls-7" d="M1912.66,1299.3c-26.9,18-29.95-62.59-29.95-84.28,0-6.75,1.09-11.7,2.75-15.33-3.46,3.52-6.21,9.71-6.21,20.45,0,21.7,3.76,104,30.65,86,20.45-13.66,34.81-33.75,40.53-42.6C1943.35,1273.62,1929.79,1287.85,1912.66,1299.3Z" transform="translate(-1652.66 -845.91)"/></g><circle id="_Path_101" data-name="&lt;Path&gt;" class="cls-6" cx="223.05" cy="294.11" r="8.48"/><path id="_Path_102" data-name="&lt;Path&gt;" class="cls-65" d="M1961.47,1325.7a157.66,157.66,0,0,0-11,54.7c-0.68,31.29-.52,41.28-4.31,55.72l4.28,4.2h0s4-19,4.42-51.16c0.33-24.76,6.89-50.15,9.89-60.48a2.47,2.47,0,0,0-3.28-3h0Z" transform="translate(-1652.66 -845.91)"/><g id="_Group_13" data-name="&lt;Group&gt;"><g id="_Group_14" data-name="&lt;Group&gt;"><path id="_Path_103" data-name="&lt;Path&gt;" class="cls-6" d="M2240.3,1215.42a42.19,42.19,0,0,1-9.11,5.08c0-.36-1,33.14-4.72,52.63C2244.47,1277.13,2244,1243.94,2240.3,1215.42Z" transform="translate(-1652.66 -845.91)"/></g><path id="_Path_104" data-name="&lt;Path&gt;" class="cls-7" d="M2235.71,1219.49l-0.23-1a38.52,38.52,0,0,1-4.29,2c0-.36-1,33.14-4.72,52.63a10.86,10.86,0,0,0,5.79-.13C2238,1257.09,2235.71,1219.49,2235.71,1219.49Z" transform="translate(-1652.66 -845.91)"/><path id="_Compound_Path_3" data-name="&lt;Compound Path&gt;" class="cls-23" d="M2242.36,1214.19c-1.83-14.06-4.44-27-6-33.75-4.92-21.13-22.5-20.93-28-19.66l-0.06,0h0a0.94,0.94,0,0,0-.27.07l-50.37,27.39a27.65,27.65,0,0,0-9.59,9.75c-7.81,8.68-9.74,36.18-9.42,56.14a23,23,0,0,0,7.15,2.82l-0.15,51.69c36.07,26.8,68.06,4.25,76.13-2.41a8.29,8.29,0,0,0,2.67-4c9.07-29.58,7.14-58.44,6.72-81.8h0C2234.74,1220.5,2238,1219,2242.36,1214.19Z" transform="translate(-1652.66 -845.91)"/><g id="_Group_15" data-name="&lt;Group&gt;"><path id="_Path_105" data-name="&lt;Path&gt;" class="cls-23" d="M2220.54,1170.37c5.64,6.55,10.2,25.21,10.65,50.13,3.55,0,6.76-1.55,11.17-6.31-1.83-14.06-4.44-27-6-33.75-4.92-21.13-22.5-20.93-28-19.66l-0.06,0C2209.21,1160.67,2212.5,1161,2220.54,1170.37Z" transform="translate(-1652.66 -845.91)"/></g><g id="_Group_16" data-name="&lt;Group&gt;" class="cls-66"><path id="_Path_106" data-name="&lt;Path&gt;" class="cls-67" d="M2220.54,1170.37c5.64,6.55,10.2,25.21,10.65,50.13,3.55,0,6.76-1.55,11.17-6.31-1.83-14.06-4.44-27-6-33.75-4.92-21.13-22.5-20.93-28-19.66l-0.06,0C2209.21,1160.67,2212.5,1161,2220.54,1170.37Z" transform="translate(-1652.66 -845.91)"/></g><g id="_Group_17" data-name="&lt;Group&gt;"><path id="_Path_107" data-name="&lt;Path&gt;" class="cls-14" d="M2184.09,1476.72c-11.67,6.74-30.59,6.74-42.26,0s-11.67-17.66,0-24.4,30.59-6.74,42.26,0S2195.77,1470,2184.09,1476.72Z" transform="translate(-1652.66 -845.91)"/><path id="_Path_108" data-name="&lt;Path&gt;" class="cls-12" d="M2163,1459.58h-28.64a10.36,10.36,0,0,0-.86,7.57H2163v-7.57Z" transform="translate(-1652.66 -845.91)"/><path id="_Path_109" data-name="&lt;Path&gt;" class="cls-16" d="M2156.62,1398v65.52h0a3.15,3.15,0,0,0,1.86,2.59,9.91,9.91,0,0,0,9,0,3.15,3.15,0,0,0,1.86-2.59V1398h-12.67Z" transform="translate(-1652.66 -845.91)"/><path id="_Path_110" data-name="&lt;Path&gt;" class="cls-68" d="M2156.62,1398v65.52h0a3.15,3.15,0,0,0,1.86,2.59,9.91,9.91,0,0,0,9,0,3.15,3.15,0,0,0,1.86-2.59V1398h-12.67Z" transform="translate(-1652.66 -845.91)"/><path id="_Path_111" data-name="&lt;Path&gt;" class="cls-69" d="M2165.5,1398v68.86a7.69,7.69,0,0,0,1.94-.75,3.15,3.15,0,0,0,1.86-2.59V1398h-3.79Z" transform="translate(-1652.66 -845.91)"/><path id="_Path_112" data-name="&lt;Path&gt;" class="cls-70" d="M2161.71,1398h-5.09v65.52h0a3.15,3.15,0,0,0,1.86,2.59,8.48,8.48,0,0,0,3.23,1V1398Z" transform="translate(-1652.66 -845.91)"/><path id="_Path_113" data-name="&lt;Path&gt;" class="cls-16" d="M2184.09,1476.72c-11.67,6.74-30.59,6.74-42.26,0-5.84-3.37-8.76-7.78-8.76-12.2h0v5c0,4.41,2.92,8.83,8.76,12.2,11.67,6.74,30.59,6.74,42.26,0,5.84-3.37,8.75-7.79,8.75-12.2v-5C2192.85,1468.93,2189.93,1473.35,2184.09,1476.72Z" transform="translate(-1652.66 -845.91)"/><path id="_Path_114" data-name="&lt;Path&gt;" class="cls-71" d="M2184.09,1476.72c-11.67,6.74-30.59,6.74-42.26,0-5.84-3.37-8.76-7.78-8.76-12.2h0v5c0,4.41,2.92,8.83,8.76,12.2,11.67,6.74,30.59,6.74,42.26,0,5.84-3.37,8.75-7.79,8.75-12.2v-5C2192.85,1468.93,2189.93,1473.35,2184.09,1476.72Z" transform="translate(-1652.66 -845.91)"/><path id="_Path_115" data-name="&lt;Path&gt;" class="cls-29" d="M2202.3,1363.68c-21.73,12.54-56.95,12.54-78.67,0s-21.72-32.88,0-45.42,56.95-12.54,78.67,0S2224,1351.14,2202.3,1363.68Z" transform="translate(-1652.66 -845.91)"/><path id="_Path_116" data-name="&lt;Path&gt;" class="cls-72" d="M2202.3,1363.68c-21.73,12.54-56.95,12.54-78.67,0s-21.72-32.88,0-45.42,56.95-12.54,78.67,0S2224,1351.14,2202.3,1363.68Z" transform="translate(-1652.66 -845.91)"/><path id="_Path_117" data-name="&lt;Path&gt;" class="cls-12" d="M2202.3,1318.26c-21.73-12.54-56.95-12.54-78.67,0-9.22,5.32-14.52,12.06-15.91,19,0.44,11.6,9.42,16.31,16.81,20.75,20.52,12.34,55.84,12.35,79.25-5.35,6.87-5.2,11-13.67,12.37-21.1C2213.57,1326.69,2209,1322.11,2202.3,1318.26Z" transform="translate(-1652.66 -845.91)"/><g id="_Group_18" data-name="&lt;Group&gt;"><path id="_Path_118" data-name="&lt;Path&gt;" class="cls-31" d="M2202.3,1363.68c-21.73,12.54-56.95,12.54-78.67,0-10.86-6.27-16.29-14.49-16.29-22.71h0v28.66c0,8.22,5.43,16.44,16.29,22.71,21.73,12.55,56.95,12.55,78.67,0,10.86-6.27,16.29-14.49,16.29-22.71V1341C2218.59,1349.19,2213.16,1357.41,2202.3,1363.68Z" transform="translate(-1652.66 -845.91)"/></g><g id="_Group_19" data-name="&lt;Group&gt;" class="cls-32"><path id="_Path_119" data-name="&lt;Path&gt;" class="cls-73" d="M2202.3,1363.68c-21.73,12.54-56.95,12.54-78.67,0-10.86-6.27-16.29-14.49-16.29-22.71h0v28.66c0,8.22,5.43,16.44,16.29,22.71,21.73,12.55,56.95,12.55,78.67,0,10.86-6.27,16.29-14.49,16.29-22.71V1341C2218.59,1349.19,2213.16,1357.41,2202.3,1363.68Z" transform="translate(-1652.66 -845.91)"/></g><path id="_Path_120" data-name="&lt;Path&gt;" class="cls-74" d="M2178.23,1371.84c-18.78,3.09-39.82.37-54.61-8.16-10.86-6.27-16.29-14.49-16.29-22.71v28.66c0,8.22,5.43,16.44,16.29,22.71,14.79,8.54,35.83,11.25,54.61,8.17v-28.66Z" transform="translate(-1652.66 -845.91)"/><path id="_Path_121" data-name="&lt;Path&gt;" class="cls-75" d="M2202.3,1363.68c-0.52.3-1.09,0.56-1.63,0.85v28.65c0.54-.29,1.1-0.55,1.63-0.85,10.86-6.27,16.29-14.49,16.29-22.71V1341C2218.59,1349.19,2213.16,1357.41,2202.3,1363.68Z" transform="translate(-1652.66 -845.91)"/><g id="_Group_20" data-name="&lt;Group&gt;" class="cls-35"><path id="_Path_122" data-name="&lt;Path&gt;" class="cls-36" d="M2216.79,1349.09l-0.55,1.25a22.89,22.89,0,0,1-1.94,3.36,36,36,0,0,1-10.09,9.52c-1.2.81-2.56,1.54-3.89,2.26-0.68.36-1.35,0.76-2.07,1.11l-2.25,1c-0.76.33-1.53,0.7-2.32,1l-2.43.88a44.51,44.51,0,0,1-5.08,1.57c-1.73.52-3.53,0.88-5.35,1.25s-3.68.65-5.55,0.93a98.21,98.21,0,0,1-11.45.86c-1.92,0-3.85-.1-5.76-0.15s-3.81-.33-5.7-0.48l-5.57-.82c-1.82-.39-3.62-0.73-5.37-1.14s-3.47-.9-5.11-1.46-3.25-1.13-4.77-1.78-3-1.3-4.39-2l-4-2.17a42.2,42.2,0,0,1-6.34-4.65,35.24,35.24,0,0,1-4.16-4.4,24.59,24.59,0,0,1-2.16-3.23l-0.64-1.21,0.74,1.15a29.25,29.25,0,0,0,2.38,3,40.82,40.82,0,0,0,10.8,8.28l3.94,2c1.38,0.63,2.87,1.17,4.36,1.79s3.12,1,4.73,1.55,3.32,0.88,5,1.33,3.49,0.69,5.27,1.06l5.46,0.73c1.85,0.13,3.71.31,5.58,0.4s3.76,0.12,5.64.08a95.82,95.82,0,0,0,11.21-.7c1.84-.26,3.67-0.45,5.44-0.84s3.55-.67,5.24-1.16,3.38-.89,5-1.44l2.4-.77c0.78-.28,1.52-0.6,2.27-0.9l2.21-.88c0.72-.33,1.41-0.7,2.1-1,1.41-.69,2.69-1.32,3.89-2.06a37.65,37.65,0,0,0,10.39-8.75,26.94,26.94,0,0,0,2.17-3.17Z" transform="translate(-1652.66 -845.91)"/></g></g><polygon id="_Path_123" data-name="&lt;Path&gt;" class="cls-12" points="461.48 411.49 486.1 397.21 486.1 401.77 464.94 413.93 461.48 411.49"/><path id="_Path_124" data-name="&lt;Path&gt;" class="cls-12" d="M2068.61,1205l-5.66,2.71a2.36,2.36,0,0,0-.78,3.66l12.87,15.13s-5.62,18.85,9.1,28.74,11,6.8,11,6.8l9.2,16.75,2.86,12.31,13.38-5.09-16.33-25-17.11-24.1,3.25-3.08-16.64-29.45Z" transform="translate(-1652.66 -845.91)"/><path id="_Compound_Path_4" data-name="&lt;Compound Path&gt;" class="cls-50" d="M2151.08,1229.27h0a2.24,2.24,0,0,0-.39-1.31l-37.21-51.48a2.3,2.3,0,0,0-2.94-.68l-40.72,21.63a2.25,2.25,0,0,0-1.17,2h0l-0.05,0V1205l0.05,0a2.21,2.21,0,0,0,.42,1.29l27.72,36.58,0.08,0.12,10.51,15.86a2.3,2.3,0,0,0,3.06.72l39.53-22.82a2.24,2.24,0,0,0,1.1-2l0,0v-5.47Z" transform="translate(-1652.66 -845.91)"/><path id="_Path_125" data-name="&lt;Path&gt;" class="cls-2" d="M2095.47,1448s7.85,14.2-1.21,19.43-19.61,6.17-32.88-3.37-30.7-16.73-30.7-27.9,15.09-16,29.44-7.8S2095.47,1448,2095.47,1448Z" transform="translate(-1652.66 -845.91)"/><path id="_Path_126" data-name="&lt;Path&gt;" class="cls-42" d="M2217.2,1287.44c-0.3.27-36.85,28.67-64.82,2.35l-3-18.31h0l-1.7-1c-3.44,2.44-7.1,4.81-11,7.09a168.23,168.23,0,0,1-18.7,9.22l27.73,21.87-38.5-17.63,0.3-.2c-2.65.94-5.32,1.87-8,2.72-10.78,19.8-1.34,40.78-1.34,40.78,41.88,32.43,71.34,34.4,102.42,13.93C2225,1332.15,2217.2,1287.44,2217.2,1287.44Z" transform="translate(-1652.66 -845.91)"/><path id="_Path_127" data-name="&lt;Path&gt;" class="cls-76" d="M2217.2,1287.44c-0.3.27-36.85,28.67-64.82,2.35l-3-18.31h0l-1.7-1c-3.44,2.44-7.1,4.81-11,7.09a168.23,168.23,0,0,1-18.7,9.22l27.73,21.87-38.5-17.63,0.3-.2c-2.65.94-5.32,1.87-8,2.72-10.78,19.8-1.34,40.78-1.34,40.78,41.88,32.43,71.34,34.4,102.42,13.93C2225,1332.15,2217.2,1287.44,2217.2,1287.44Z" transform="translate(-1652.66 -845.91)"/><path id="_Path_128" data-name="&lt;Path&gt;" class="cls-12" d="M2217.84,1292.49l-6.2-1.33c-8.27,5-24.66,12.72-41.28,8.62l-19.24,12.57c-1.8-1.11-3.62-2.32-5.45-3.68l-38.5-17.63,0.3-.2q-2.92,1-5.89,2h0a132.66,132.66,0,0,0,34.38,17.06,102.85,102.85,0,0,1,21.42,10.28c10.46,6.43,30.82,13,60.13-3.67A104.44,104.44,0,0,0,2217.84,1292.49Z" transform="translate(-1652.66 -845.91)"/><path id="_Path_129" data-name="&lt;Path&gt;" class="cls-42" d="M2102.44,1334.35v111.92s-18.45,11.49-36.39,0V1321.17c0-22.3,18.9-32,41.13-30.12Z" transform="translate(-1652.66 -845.91)"/><path id="_Path_130" data-name="&lt;Path&gt;" class="cls-77" d="M2102.44,1334.35v111.92s-18.45,11.49-36.39,0V1321.17c0-22.3,18.9-32,41.13-30.12Z" transform="translate(-1652.66 -845.91)"/><path id="_Path_131" data-name="&lt;Path&gt;" class="cls-78" d="M2102.44,1334.35v111.92s-18.45,11.49-36.39,0V1321.17c0-22.3,18.9-32,41.13-30.12Z" transform="translate(-1652.66 -845.91)"/><path id="_Path_132" data-name="&lt;Path&gt;" class="cls-54" d="M2096.8,1237.42l-27.72-36.58a2.29,2.29,0,0,1,.75-3.41l40.72-21.63a2.3,2.3,0,0,1,2.94.68L2150.7,1228a2.3,2.3,0,0,1-.71,3.33l-39.53,22.82a2.29,2.29,0,0,1-3.06-.72l-10.51-15.85Z" transform="translate(-1652.66 -845.91)"/><path id="_Path_133" data-name="&lt;Path&gt;" class="cls-31" d="M2098.42,1234.08l-24.29-32a2,2,0,0,1,.66-3l35.67-19a2,2,0,0,1,2.57.6l32.6,45.1a2,2,0,0,1-.62,2.92l-34.63,20a2,2,0,0,1-2.68-.63l-9.21-13.89Z" transform="translate(-1652.66 -845.91)"/><path id="_Path_134" data-name="&lt;Path&gt;" class="cls-54" d="M2096.8,1237.42l-27.72-36.58a2.29,2.29,0,0,1,.75-3.41l40.72-21.63a2.3,2.3,0,0,1,2.94.68L2150.7,1228a2.3,2.3,0,0,1-.71,3.33l-39.53,22.82a2.29,2.29,0,0,1-3.06-.72l-10.51-15.85Z" transform="translate(-1652.66 -845.91)"/><path id="_Path_135" data-name="&lt;Path&gt;" class="cls-31" d="M2098.42,1234.08l-24.29-32a2,2,0,0,1,.66-3l35.67-19a2,2,0,0,1,2.57.6l32.6,45.1a2,2,0,0,1-.62,2.92l-34.63,20a2,2,0,0,1-2.68-.63l-9.21-13.89Z" transform="translate(-1652.66 -845.91)"/><path id="_Path_136" data-name="&lt;Path&gt;" class="cls-79" d="M2098.42,1234.08l-24.29-32a2,2,0,0,1,.66-3l35.67-19a2,2,0,0,1,2.57.6l32.6,45.1a2,2,0,0,1-.62,2.92l-34.63,20a2,2,0,0,1-2.68-.63l-9.21-13.89Z" transform="translate(-1652.66 -845.91)"/><path id="_Path_137" data-name="&lt;Path&gt;" class="cls-12" d="M2126.28,1206.49s0.3,5.79,6.27,10.79a58.21,58.21,0,0,0,12.23,7.76l1.23-5.17Z" transform="translate(-1652.66 -845.91)"/><path id="_Path_138" data-name="&lt;Path&gt;" class="cls-6" d="M2142.83,1221.91s-10.05-5.74-15.47-13.41,10.34,1.48,10.34,1.48l-9.15-12.66s19.44-1,22.58,20.72Z" transform="translate(-1652.66 -845.91)"/><path id="_Path_139" data-name="&lt;Path&gt;" class="cls-50" d="M2151.08,1229.27a2.25,2.25,0,0,1-1.1,2l-39.53,22.82a2.29,2.29,0,0,1-3.06-.72l-10.51-15.85-0.08-.12-27.72-36.58a2.23,2.23,0,0,1-.42-1.43l-0.05,0V1205l0.05,0a2.21,2.21,0,0,0,.42,1.29l27.72,36.58,0.08,0.12,10.51,15.86a2.3,2.3,0,0,0,3.06.72l39.53-22.82a2.24,2.24,0,0,0,1.1-2l0,0v-5.47Z" transform="translate(-1652.66 -845.91)"/><path id="_Path_140" data-name="&lt;Path&gt;" class="cls-23" d="M2208.06,1160.88s2.82-1.72,12.48,9.49c10.9,12.66,18.79,76.8,3.91,131.74a8.32,8.32,0,0,1-2.76,4.26c-8.27,6.78-40.13,29-76,2.31l0.17-59.06s-3.56-35.77-.41-45.4a27.46,27.46,0,0,1,12.25-16Z" transform="translate(-1652.66 -845.91)"/><path id="_Path_141" data-name="&lt;Path&gt;" class="cls-80" d="M2208.06,1160.88s2.82-1.72,12.48,9.49c10.91,12.66,18.8,72.35,3.88,131.64a8.31,8.31,0,0,1-2.8,4.41c-8.37,6.85-40.15,28.86-75.94,2.26l0.17-59.06s-3.56-35.77-.41-45.4a27.46,27.46,0,0,1,12.25-16Z" transform="translate(-1652.66 -845.91)"/><path id="_Path_142" data-name="&lt;Path&gt;" class="cls-81" d="M2208.06,1160.88s2.82-1.72,12.48,9.49c10.91,12.66,18.8,72.35,3.88,131.64a8.31,8.31,0,0,1-2.8,4.41c-8.37,6.85-40.15,28.86-75.94,2.26l0.17-59.06s-3.56-35.77-.41-45.4a27.46,27.46,0,0,1,12.25-16Z" transform="translate(-1652.66 -845.91)"/><path id="_Path_143" data-name="&lt;Path&gt;" class="cls-82" d="M2220.44,1307.36a63.65,63.65,0,0,1-33.59,5.87,19.08,19.08,0,0,1-16.94-22.53c3.19-16.91,2.73-36.54,2.73-36.54l-5.45.25-10.34,11.77L2145.74,1286l-0.07,22.68a73.42,73.42,0,0,0,8.66,5.55l0.82,0.51h0.07C2185.54,1330.68,2211.51,1314.31,2220.44,1307.36Z" transform="translate(-1652.66 -845.91)"/><path id="_Path_144" data-name="&lt;Path&gt;" class="cls-12" d="M2094.55,1221.22s-2.9.76-1,11.93l3.3,6.26,2.87-1.52Z" transform="translate(-1652.66 -845.91)"/><g id="_Group_21" data-name="&lt;Group&gt;"><path id="_Path_145" data-name="&lt;Path&gt;" class="cls-6" d="M2169,1254.37c-11.36,4.75-21.72,3.94-28.21.91,0.15,7.58.49,14.05,0.75,18a1.73,1.73,0,0,1-2.81,1.47L2106.46,1252s0.76-17.49-8.08-28.24-1.54,13.74-1.54,13.74l-11.91-15.58a2.73,2.73,0,0,0-4.53.25c-3.74,6.41-8.48,21.53,16.44,36.91,0,0,16.12,29.51,43.29,47.08C2165.85,1322.77,2169.62,1254.42,2169,1254.37Z" transform="translate(-1652.66 -845.91)"/></g><g id="_Group_22" data-name="&lt;Group&gt;"><path id="_Path_146" data-name="&lt;Path&gt;" class="cls-7" d="M2169,1254.37a45.71,45.71,0,0,1-6.31,2.12c-2,18.39-8.88,54.11-28.26,41.57-14.44-9.34-25.76-22.05-33.19-31.91,6.51,9.84,20,27.78,38.9,40C2165.85,1322.77,2169.62,1254.42,2169,1254.37Z" transform="translate(-1652.66 -845.91)"/></g><path id="_Path_147" data-name="&lt;Path&gt;" class="cls-6" d="M2194,1170.59l-1-2.61-20.81,4.12s1.59,5-6.26,11.76c14.08,0.79,22.66-4.37,26.64-7.66A4.91,4.91,0,0,0,2194,1170.59Z" transform="translate(-1652.66 -845.91)"/><path id="_Path_148" data-name="&lt;Path&gt;" class="cls-7" d="M2185.34,1174.88a32.43,32.43,0,0,0,8.49-4.59l-0.91-2.31-20.81,4.12s0.7,2.23-1.18,5.73A55,55,0,0,0,2185.34,1174.88Z" transform="translate(-1652.66 -845.91)"/><path id="_Path_149" data-name="&lt;Path&gt;" class="cls-6" d="M2143.93,1112.89c2.77-17.1,16.53-30.6,34.26-30.6a34.49,34.49,0,0,1,34.49,34.49c0,0.2,0,.38,0,0.58h0v19.2c0,14.37-8.72,27.59-22.24,32.43a57.3,57.3,0,0,1-20.81,3.08,10.7,10.7,0,0,1-6.3-2.3C2147.8,1157.36,2139.74,1138.81,2143.93,1112.89Z" transform="translate(-1652.66 -845.91)"/><path id="_Path_150" data-name="&lt;Path&gt;" class="cls-10" d="M2178.2,1077.8c-10.95,0-22.85,4.89-28.24,14.06h0s-14.93,7.68-5.77,25.62c0,0,.57-2.24,4.3-4.39,0,0-2.66,8.67,4.56,14.47s16.06,3.94,16.06,3.94,10.18,11.28,11,26.59a11.82,11.82,0,0,0,15.8,10.37c12.28-4.62,26.44-15.5,26.44-39.93C2222.35,1085.37,2192.06,1077.8,2178.2,1077.8Z" transform="translate(-1652.66 -845.91)"/><path id="_Path_151" data-name="&lt;Path&gt;" class="cls-83" d="M2178.2,1077.8c-10.95,0-22.85,4.89-28.24,14.06h0s-14.93,7.68-5.77,25.62c0,0,.57-2.24,4.3-4.39,0,0-2.66,8.67,4.56,14.47s16.06,3.94,16.06,3.94,10.18,11.28,11,26.59a11.82,11.82,0,0,0,15.8,10.37c12.28-4.62,26.44-15.5,26.44-39.93C2222.35,1085.37,2192.06,1077.8,2178.2,1077.8Z" transform="translate(-1652.66 -845.91)"/><circle id="_Path_152" data-name="&lt;Path&gt;" class="cls-6" cx="521.03" cy="291.95" r="7.85"/><path id="_Path_153" data-name="&lt;Path&gt;" class="cls-23" d="M2154,1195.29c-12.75-.76-15.68,34.64-15.28,58.88,6.2,3.9,21.29,5.3,34,0,1.41-14.11.35-27.07,0.35-34C2173,1198.44,2159.56,1195.62,2154,1195.29Z" transform="translate(-1652.66 -845.91)"/><path id="_Path_154" data-name="&lt;Path&gt;" class="cls-84" d="M2154,1195.29c-12.75-.76-15.68,34.64-15.28,58.88,6.2,3.9,21.29,5.3,34,0,1.41-14.11.35-27.07,0.35-34C2173,1198.44,2159.56,1195.62,2154,1195.29Z" transform="translate(-1652.66 -845.91)"/><path id="_Path_155" data-name="&lt;Path&gt;" class="cls-7" d="M2080.41,1222.14c-3.74,6.41-8.48,21.53,16.44,36.91C2074.88,1244.69,2080.41,1222.14,2080.41,1222.14Z" transform="translate(-1652.66 -845.91)"/><polygon id="_Path_156" data-name="&lt;Path&gt;" class="cls-58" points="447.83 339.48 459.5 401.77 465.35 398.39 453.34 336.56 447.83 339.48"/><polygon id="_Path_157" data-name="&lt;Path&gt;" class="cls-58" points="456.59 334.83 468.35 396.66 471.24 394.99 457.8 334.19 456.59 334.83"/></g></g><path id="_Path_158" data-name="&lt;Path&gt;" class="cls-12" d="M2060.55,1109.55c0.15-.61.27-1.23,0.37-1.86-0.07,0-25.13-5.4-43.9-4.6-9.29.4-18.49,1-25.41,1.49a11,11,0,0,1-11.82-11l-0.21-39.12-1.93,11.16s-3,29-4.5,35.74c-0.77,3.4,0,7.28.92,10.28A273.53,273.53,0,0,1,2060.55,1109.55Z" transform="translate(-1652.66 -845.91)"/><g id="_Group_23" data-name="&lt;Group&gt;"><path id="_Path_159" data-name="&lt;Path&gt;" class="cls-12" d="M2058.49,1169.1H2040a1.9,1.9,0,0,1-1.36-.57l-28.6-29.17a1.9,1.9,0,0,1,1.18-3.22l15.39-1.47Z" transform="translate(-1652.66 -845.91)"/><path id="_Compound_Path_5" data-name="&lt;Compound Path&gt;" class="cls-54" d="M2085.52,1150.19l-30.92-31.91a2.53,2.53,0,0,0-2.68-.62l-23.71,8.65a2.5,2.5,0,0,0-1.62,2l0,0v5.77h0a2.5,2.5,0,0,0,.65,1.77l29.54,32.42a2.53,2.53,0,0,0,2.73.67l25.08-9.16a2.52,2.52,0,0,0,1.65-2.49V1152A2.49,2.49,0,0,0,2085.52,1150.19Z" transform="translate(-1652.66 -845.91)"/><path id="_Path_160" data-name="&lt;Path&gt;" class="cls-50" d="M2028.22,1126.31l23.71-8.65a2.53,2.53,0,0,1,2.68.62l30.92,31.91a2.53,2.53,0,0,1-.95,4.13l-25.08,9.16a2.52,2.52,0,0,1-2.73-.67l-29.54-32.42A2.53,2.53,0,0,1,2028.22,1126.31Z" transform="translate(-1652.66 -845.91)"/><path id="_Path_161" data-name="&lt;Path&gt;" class="cls-31" d="M2032.4,1127.18l18.41-6.63a2,2,0,0,1,2.08.47l27.69,28.25c2.11,2.13.91,2.5-.74,3.17l-19.48,7a2,2,0,0,1-2.12-.51l-26.63-28.63C2030.06,1128.77,2029.79,1128,2032.4,1127.18Z" transform="translate(-1652.66 -845.91)"/><path id="_Path_162" data-name="&lt;Path&gt;" class="cls-85" d="M2032.4,1127.18l18.41-6.63a2,2,0,0,1,2.08.47l27.69,28.25c2.11,2.13.91,2.5-.74,3.17l-19.48,7a2,2,0,0,1-2.12-.51l-26.63-28.63C2030.06,1128.77,2029.79,1128,2032.4,1127.18Z" transform="translate(-1652.66 -845.91)"/><path id="_Path_163" data-name="&lt;Path&gt;" class="cls-54" d="M2084.57,1154.32l-25.08,9.16a2.52,2.52,0,0,1-2.73-.67l-29.54-32.42a2.49,2.49,0,0,1-.62-2.06l0,0v5.77h0a2.5,2.5,0,0,0,.65,1.77l29.54,32.42a2.53,2.53,0,0,0,2.73.67l25.08-9.16a2.52,2.52,0,0,0,1.65-2.49V1152A2.51,2.51,0,0,1,2084.57,1154.32Z" transform="translate(-1652.66 -845.91)"/><polygon id="_Path_164" data-name="&lt;Path&gt;" class="cls-58" points="416.72 291.93 386.17 278.96 383.86 279.81 419.4 294.66 416.72 291.93"/><path id="_Path_165" data-name="&lt;Path&gt;" class="cls-58" d="M2077.05,1145.66l-44.4-18.57-0.25.09c-2.61.79-2.34,1.6-.78,3.12l4.27,4.59,43.12,17.85,0.84-.3c1.64-.67,2.85-1,0.74-3.17Z" transform="translate(-1652.66 -845.91)"/></g><g id="_Group_24" data-name="&lt;Group&gt;" class="cls-86"><g id="_Group_25" data-name="&lt;Group&gt;"><g id="_Group_26" data-name="&lt;Group&gt;"><path id="_Path_166" data-name="&lt;Path&gt;" class="cls-36" d="M1773.44,1092l30.15-17.41a1.5,1.5,0,0,0,.75-1.3v-30.95a1.5,1.5,0,0,0-2.24-1.29l-29.49,17a2.8,2.8,0,0,0-1.4,2.43v30.19A1.5,1.5,0,0,0,1773.44,1092Z" transform="translate(-1652.66 -845.91)"/></g><g id="_Group_27" data-name="&lt;Group&gt;"><path id="_Path_167" data-name="&lt;Path&gt;" class="cls-87" d="M1783.11,1065.49c0,3,2.09,4.17,4.65,2.69a10.29,10.29,0,0,0,4.66-8.06c0-3-2.09-4.17-4.66-2.69A10.29,10.29,0,0,0,1783.11,1065.49Z" transform="translate(-1652.66 -845.91)"/><path id="_Path_168" data-name="&lt;Path&gt;" class="cls-87" d="M1787.76,1068.18c3.16-1.82,5.71-.34,5.71,3.3l-11.43,6.6A12.63,12.63,0,0,1,1787.76,1068.18Z" transform="translate(-1652.66 -845.91)"/></g></g><g id="_Group_28" data-name="&lt;Group&gt;"><g id="_Group_29" data-name="&lt;Group&gt;"><path id="_Path_169" data-name="&lt;Path&gt;" class="cls-36" d="M1813.89,1068.79l30.15-17.41a1.5,1.5,0,0,0,.75-1.3v-30.94a1.49,1.49,0,0,0-2.24-1.29l-29.5,17a2.8,2.8,0,0,0-1.4,2.43v30.19A1.5,1.5,0,0,0,1813.89,1068.79Z" transform="translate(-1652.66 -845.91)"/></g><g id="_Group_30" data-name="&lt;Group&gt;"><path id="_Path_170" data-name="&lt;Path&gt;" class="cls-87" d="M1823.56,1042.91c0,3,2.08,4.17,4.65,2.69a10.29,10.29,0,0,0,4.66-8.06c0-3-2.09-4.17-4.66-2.69A10.29,10.29,0,0,0,1823.56,1042.91Z" transform="translate(-1652.66 -845.91)"/><path id="_Path_171" data-name="&lt;Path&gt;" class="cls-87" d="M1828.22,1045.6c3.16-1.82,5.71-.35,5.71,3.3l-11.43,6.6A12.63,12.63,0,0,1,1828.22,1045.6Z" transform="translate(-1652.66 -845.91)"/></g></g><g id="_Group_31" data-name="&lt;Group&gt;"><g id="_Group_32" data-name="&lt;Group&gt;"><path id="_Path_172" data-name="&lt;Path&gt;" class="cls-87" d="M1858.81,971.39L1888.31,955a1.94,1.94,0,0,0,1-1.68V881.86a1.94,1.94,0,0,0-2.91-1.68l-28.66,15.9a3.63,3.63,0,0,0-1.81,3.14v70.49A1.94,1.94,0,0,0,1858.81,971.39Z" transform="translate(-1652.66 -845.91)"/></g><path id="_Path_173" data-name="&lt;Path&gt;" class="cls-36" d="M1863.64,917.66a0.78,0.78,0,0,0,.39-0.1l17.91-10.34a0.78,0.78,0,1,0-.78-1.36l-17.91,10.34A0.78,0.78,0,0,0,1863.64,917.66Z" transform="translate(-1652.66 -845.91)"/><path id="_Path_174" data-name="&lt;Path&gt;" class="cls-36" d="M1863.64,925.61a0.78,0.78,0,0,0,.39-0.1l17.91-10.34a0.78,0.78,0,0,0-.78-1.36l-17.91,10.34A0.78,0.78,0,0,0,1863.64,925.61Z" transform="translate(-1652.66 -845.91)"/><path id="_Path_175" data-name="&lt;Path&gt;" class="cls-36" d="M1863.64,933.57a0.78,0.78,0,0,0,.39-0.11l17.91-10.34a0.78,0.78,0,1,0-.78-1.36l-17.91,10.34A0.78,0.78,0,0,0,1863.64,933.57Z" transform="translate(-1652.66 -845.91)"/><path id="_Path_176" data-name="&lt;Path&gt;" class="cls-36" d="M1863.64,941.52a0.78,0.78,0,0,0,.39-0.11l17.91-10.34a0.78,0.78,0,0,0-.78-1.36l-17.91,10.34A0.78,0.78,0,0,0,1863.64,941.52Z" transform="translate(-1652.66 -845.91)"/><path id="_Path_177" data-name="&lt;Path&gt;" class="cls-36" d="M1863.64,949.48a0.78,0.78,0,0,0,.39-0.1L1881.94,939a0.78,0.78,0,1,0-.78-1.36L1863.24,948A0.78,0.78,0,0,0,1863.64,949.48Z" transform="translate(-1652.66 -845.91)"/></g><g id="_Group_33" data-name="&lt;Group&gt;"><g id="_Group_34" data-name="&lt;Group&gt;"><path id="_Path_178" data-name="&lt;Path&gt;" class="cls-36" d="M1712.56,1125.16l39.06-22.55a1.94,1.94,0,0,0,1-1.68v-28.32a1.94,1.94,0,0,0-2.9-1.68L1711.47,1093a3.63,3.63,0,0,0-1.81,3.14v27.35A1.94,1.94,0,0,0,1712.56,1125.16Z" transform="translate(-1652.66 -845.91)"/></g><path id="_Path_179" data-name="&lt;Path&gt;" class="cls-87" d="M1730.5,1108.57a1.91,1.91,0,0,0,.49-0.06,2,2,0,0,0,1.21-.92l13.56-23.49a2,2,0,0,0-3.4-2l-12.57,21.76-6.66-4a2,2,0,0,0-2,3.37l8.37,5A2,2,0,0,0,1730.5,1108.57Z" transform="translate(-1652.66 -845.91)"/></g><g id="_Group_35" data-name="&lt;Group&gt;"><g id="_Group_36" data-name="&lt;Group&gt;"><path id="_Path_180" data-name="&lt;Path&gt;" class="cls-87" d="M1714.4,1076.52l127.23-73.46a6.31,6.31,0,0,0,3.15-5.47V867a6.31,6.31,0,0,0-9.47-5.47L1710.84,933.4a11.82,11.82,0,0,0-5.91,10.24v127.42A6.31,6.31,0,0,0,1714.4,1076.52Z" transform="translate(-1652.66 -845.91)"/><path id="_Compound_Path_6" data-name="&lt;Compound Path&gt;" class="cls-36" d="M1711.66,1070.28a2.92,2.92,0,0,1-1.47-2.55V943.24a5.39,5.39,0,0,1,2.69-4.66l122.71-70.84a2.63,2.63,0,0,1,3.94,2.28V995.79a4.11,4.11,0,0,1-2.05,3.55l-122.86,70.94A2.92,2.92,0,0,1,1711.66,1070.28Zm125.1-200.5-122.71,70.84a3,3,0,0,0-1.51,2.63v124.48a0.58,0.58,0,0,0,.3.52,0.59,0.59,0,0,0,.6,0L1836.3,997.3a1.75,1.75,0,0,0,.87-1.51V870a0.26,0.26,0,0,0-.14-0.24,0.28,0.28,0,0,0-.14,0A0.27,0.27,0,0,0,1836.76,869.77Z" transform="translate(-1652.66 -845.91)"/></g><path id="_Path_181" data-name="&lt;Path&gt;" class="cls-36" d="M1736.49,988.8a1.18,1.18,0,0,0,.59-2.2l-6-3.46,6.49-11.24a1.18,1.18,0,0,0-2-1.18L1728.46,983a1.18,1.18,0,0,0,.43,1.61l7,4A1.17,1.17,0,0,0,1736.49,988.8Z" transform="translate(-1652.66 -845.91)"/><path id="_Path_182" data-name="&lt;Path&gt;" class="cls-36" d="M1813.22,944.38a1.18,1.18,0,0,0,1-.59l7-12.15a1.18,1.18,0,0,0-.43-1.61l-7.08-4.09a1.18,1.18,0,1,0-1.18,2l6.06,3.5-6.42,11.13A1.18,1.18,0,0,0,1813.22,944.38Z" transform="translate(-1652.66 -845.91)"/><path id="_Path_183" data-name="&lt;Path&gt;" class="cls-36" d="M1801.46,951.56c0,14.35-10.07,31.8-22.5,39s-22.5,1.36-22.5-13,10.08-31.8,22.5-39S1801.46,937.21,1801.46,951.56Z" transform="translate(-1652.66 -845.91)"/></g></g><g id="_Group_37" data-name="&lt;Group&gt;"><path id="_Path_184" data-name="&lt;Path&gt;" class="cls-36" d="M1849.18,851.11c0,1.78,1.25,2.49,2.78,1.61a6.15,6.15,0,0,0,2.78-4.82c0-1.78-1.25-2.5-2.78-1.61A6.16,6.16,0,0,0,1849.18,851.11Z" transform="translate(-1652.66 -845.91)"/><path id="_Path_185" data-name="&lt;Path&gt;" class="cls-36" d="M1718.59,908.55c0,1.78,1.25,2.5,2.78,1.61a6.15,6.15,0,0,0,2.78-4.82c0-1.77-1.25-2.49-2.78-1.61A6.15,6.15,0,0,0,1718.59,908.55Z" transform="translate(-1652.66 -845.91)"/><path id="_Path_186" data-name="&lt;Path&gt;" class="cls-36" d="M1867.88,995.22c0,1.78,1.25,2.5,2.78,1.61a6.15,6.15,0,0,0,2.78-4.82c0-1.77-1.25-2.49-2.78-1.61A6.15,6.15,0,0,0,1867.88,995.22Z" transform="translate(-1652.66 -845.91)"/><path id="_Path_187" data-name="&lt;Path&gt;" class="cls-36" d="M1652.66,1022.73a1.19,1.19,0,0,0,2,1.13,4.33,4.33,0,0,0,2-3.39,1.19,1.19,0,0,0-2-1.13A4.33,4.33,0,0,0,1652.66,1022.73Z" transform="translate(-1652.66 -845.91)"/><path id="_Path_188" data-name="&lt;Path&gt;" class="cls-36" d="M1852.79,862.23a1.19,1.19,0,0,0,2,1.13,4.33,4.33,0,0,0,2-3.39,1.19,1.19,0,0,0-2-1.13A4.33,4.33,0,0,0,1852.79,862.23Z" transform="translate(-1652.66 -845.91)"/><path id="_Path_189" data-name="&lt;Path&gt;" class="cls-36" d="M1689.13,949.78a1.19,1.19,0,0,0,2,1.13,4.33,4.33,0,0,0,2-3.39,1.19,1.19,0,0,0-2-1.13A4.34,4.34,0,0,0,1689.13,949.78Z" transform="translate(-1652.66 -845.91)"/><path id="_Path_190" data-name="&lt;Path&gt;" class="cls-36" d="M1787.23,1109a1.19,1.19,0,0,0,2,1.13,4.33,4.33,0,0,0,2-3.39,1.19,1.19,0,0,0-2-1.13A4.33,4.33,0,0,0,1787.23,1109Z" transform="translate(-1652.66 -845.91)"/><path id="_Path_191" data-name="&lt;Path&gt;" class="cls-36" d="M1777,1104.83a1.19,1.19,0,0,0,2,1.13,4.33,4.33,0,0,0,2-3.39,1.19,1.19,0,0,0-2-1.13A4.33,4.33,0,0,0,1777,1104.83Z" transform="translate(-1652.66 -845.91)"/><path id="_Path_192" data-name="&lt;Path&gt;" class="cls-36" d="M1847.22,1060.57a1.19,1.19,0,0,0,2,1.13,4.33,4.33,0,0,0,2-3.39,1.19,1.19,0,0,0-2-1.13A4.33,4.33,0,0,0,1847.22,1060.57Z" transform="translate(-1652.66 -845.91)"/><path id="_Path_193" data-name="&lt;Path&gt;" class="cls-36" d="M1708.23,919.89a1.2,1.2,0,0,0,2,1.13,4.33,4.33,0,0,0,2-3.39,1.19,1.19,0,0,0-2-1.13A4.33,4.33,0,0,0,1708.23,919.89Z" transform="translate(-1652.66 -845.91)"/><path id="_Path_194" data-name="&lt;Path&gt;" class="cls-36" d="M1673.27,1035.35a1.19,1.19,0,0,0,2,1.13,4.33,4.33,0,0,0,2-3.39,1.19,1.19,0,0,0-2-1.13A4.33,4.33,0,0,0,1673.27,1035.35Z" transform="translate(-1652.66 -845.91)"/></g><g id="_Group_38" data-name="&lt;Group&gt;"><g id="_Group_39" data-name="&lt;Group&gt;"><g id="_Group_40" data-name="&lt;Group&gt;" class="cls-86"><g id="_Group_41" data-name="&lt;Group&gt;"><g id="_Group_42" data-name="&lt;Group&gt;"><path id="_Path_195" data-name="&lt;Path&gt;" class="cls-87" d="M2212.37,961.39L2153,927.12a3,3,0,0,1-1.47-2.55V863.63a3,3,0,0,1,4.42-2.55L2214,894.61a5.52,5.52,0,0,1,2.76,4.78v59.45A3,3,0,0,1,2212.37,961.39Z" transform="translate(-1652.66 -845.91)"/><path id="_Compound_Path_7" data-name="&lt;Compound Path&gt;" class="cls-36" d="M2213,958.66a1.37,1.37,0,0,1-.69-0.19l-57.33-33.1a1.92,1.92,0,0,1-1-1.66V865a1.22,1.22,0,0,1,1.84-1.06L2213.08,897a2.51,2.51,0,0,1,1.26,2.18v58.08a1.36,1.36,0,0,1-.69,1.19A1.38,1.38,0,0,1,2213,958.66Zm-57.75-93.76-0.06,0a0.12,0.12,0,0,0-.07.11v58.69a0.82,0.82,0,0,0,.41.7l57.33,33.1a0.28,0.28,0,0,0,.28,0,0.28,0.28,0,0,0,.14-0.24V899.2a1.42,1.42,0,0,0-.71-1.23l-57.26-33.05Z" transform="translate(-1652.66 -845.91)"/></g><path id="_Path_196" data-name="&lt;Path&gt;" class="cls-36" d="M2202.06,920.46a0.55,0.55,0,0,1-.27-1l2.8-1.62-3-5.24a0.55,0.55,0,1,1,1-.55l3.3,5.72a0.55,0.55,0,0,1-.2.75l-3.27,1.89A0.55,0.55,0,0,1,2202.06,920.46Z" transform="translate(-1652.66 -845.91)"/><path id="_Path_197" data-name="&lt;Path&gt;" class="cls-36" d="M2166.26,899.73a0.55,0.55,0,0,1-.48-0.27l-3.27-5.67a0.55,0.55,0,0,1,.2-0.75l3.3-1.91a0.55,0.55,0,0,1,.55,1l-2.83,1.63,3,5.19a0.55,0.55,0,0,1-.2.75A0.53,0.53,0,0,1,2166.26,899.73Z" transform="translate(-1652.66 -845.91)"/><path id="_Path_198" data-name="&lt;Path&gt;" class="cls-36" d="M2171.75,903.08c0,6.7,4.7,14.84,10.5,18.19s10.5,0.63,10.5-6.06-4.7-14.84-10.5-18.19S2171.75,896.39,2171.75,903.08Z" transform="translate(-1652.66 -845.91)"/></g></g><g id="_Group_43" data-name="&lt;Group&gt;" class="cls-86"><g id="_Group_44" data-name="&lt;Group&gt;"><g id="_Group_45" data-name="&lt;Group&gt;"><path id="_Path_199" data-name="&lt;Path&gt;" class="cls-87" d="M2245.57,1071.76l-59.37-34.28a3,3,0,0,1-1.47-2.55V974a3,3,0,0,1,4.42-2.55l58.08,33.53a5.51,5.51,0,0,1,2.76,4.78v59.45A3,3,0,0,1,2245.57,1071.76Z" transform="translate(-1652.66 -845.91)"/><path id="_Compound_Path_8" data-name="&lt;Compound Path&gt;" class="cls-36" d="M2246.15,1069a1.38,1.38,0,0,1-.69-0.19l-57.33-33.1a1.92,1.92,0,0,1-1-1.66V975.4a1.23,1.23,0,0,1,1.84-1.06l57.25,33.06a2.52,2.52,0,0,1,1.26,2.18v58.08a1.36,1.36,0,0,1-.69,1.19A1.38,1.38,0,0,1,2246.15,1069Zm-57.75-93.76-0.06,0a0.12,0.12,0,0,0-.06.11v58.69a0.82,0.82,0,0,0,.41.71l57.33,33.1a0.28,0.28,0,0,0,.42-0.24v-58.08a1.42,1.42,0,0,0-.71-1.23l-57.25-33.06Z" transform="translate(-1652.66 -845.91)"/></g><path id="_Path_200" data-name="&lt;Path&gt;" class="cls-36" d="M2235.26,1030.83a0.55,0.55,0,0,1-.27-1l2.8-1.61-3-5.24a0.55,0.55,0,1,1,1-.55l3.3,5.72a0.56,0.56,0,0,1,.05.42,0.55,0.55,0,0,1-.25.33l-3.28,1.89A0.53,0.53,0,0,1,2235.26,1030.83Z" transform="translate(-1652.66 -845.91)"/><path id="_Path_201" data-name="&lt;Path&gt;" class="cls-36" d="M2199.46,1010.1a0.54,0.54,0,0,1-.48-0.27l-3.27-5.67a0.55,0.55,0,0,1,.2-0.75l3.3-1.91a0.55,0.55,0,1,1,.55,1l-2.83,1.63,3,5.19A0.55,0.55,0,0,1,2199.46,1010.1Z" transform="translate(-1652.66 -845.91)"/><path id="_Path_202" data-name="&lt;Path&gt;" class="cls-36" d="M2204.94,1013.45c0,6.7,4.7,14.84,10.5,18.19s10.5,0.63,10.5-6.06-4.7-14.84-10.5-18.19S2204.94,1006.76,2204.94,1013.45Z" transform="translate(-1652.66 -845.91)"/></g></g><g id="_Group_46" data-name="&lt;Group&gt;" class="cls-86"><g id="_Group_47" data-name="&lt;Group&gt;"><g id="_Group_48" data-name="&lt;Group&gt;"><path id="_Path_203" data-name="&lt;Path&gt;" class="cls-87" d="M2300.37,1012.32L2241,978a3,3,0,0,1-1.47-2.55V914.56a3,3,0,0,1,4.42-2.55L2302,945.54a5.52,5.52,0,0,1,2.76,4.78v59.45A3,3,0,0,1,2300.37,1012.32Z" transform="translate(-1652.66 -845.91)"/><path id="_Compound_Path_9" data-name="&lt;Compound Path&gt;" class="cls-36" d="M2301,1009.59a1.37,1.37,0,0,1-.69-0.19l-57.33-33.1a1.92,1.92,0,0,1-1-1.66V916a1.23,1.23,0,0,1,1.84-1.06L2301.08,948a2.52,2.52,0,0,1,1.26,2.18v58.08a1.36,1.36,0,0,1-.69,1.19A1.38,1.38,0,0,1,2301,1009.59Zm-57.75-93.76-0.06,0a0.13,0.13,0,0,0-.07.11v58.69a0.82,0.82,0,0,0,.41.71l57.33,33.1a0.28,0.28,0,0,0,.28,0,0.27,0.27,0,0,0,.14-0.24V950.13a1.42,1.42,0,0,0-.71-1.22l-57.25-33.06Z" transform="translate(-1652.66 -845.91)"/></g><path id="_Path_204" data-name="&lt;Path&gt;" class="cls-36" d="M2290.06,971.39a0.55,0.55,0,0,1-.27-1l2.8-1.61-3-5.24a0.55,0.55,0,1,1,.95-0.55l3.3,5.72a0.56,0.56,0,0,1,.06.42,0.54,0.54,0,0,1-.26.33l-3.27,1.89A0.54,0.54,0,0,1,2290.06,971.39Z" transform="translate(-1652.66 -845.91)"/><path id="_Path_205" data-name="&lt;Path&gt;" class="cls-36" d="M2254.26,950.66a0.54,0.54,0,0,1-.48-0.27l-3.27-5.67a0.56,0.56,0,0,1-.05-0.42,0.55,0.55,0,0,1,.26-0.33l3.3-1.91a0.55,0.55,0,0,1,.55,1l-2.82,1.63,3,5.19a0.55,0.55,0,0,1-.2.75A0.54,0.54,0,0,1,2254.26,950.66Z" transform="translate(-1652.66 -845.91)"/><path id="_Path_206" data-name="&lt;Path&gt;" class="cls-36" d="M2259.74,954c0,6.7,4.7,14.84,10.5,18.19s10.5,0.63,10.5-6.06-4.7-14.84-10.5-18.19S2259.74,947.32,2259.74,954Z" transform="translate(-1652.66 -845.91)"/></g></g></g><g id="_Group_49" data-name="&lt;Group&gt;"><path id="_Path_207" data-name="&lt;Path&gt;" class="cls-36" d="M2139.91,866.08c0,1.78-1.25,2.5-2.78,1.61a6.15,6.15,0,0,1-2.79-4.82c0-1.78,1.25-2.5,2.79-1.61A6.16,6.16,0,0,1,2139.91,866.08Z" transform="translate(-1652.66 -845.91)"/><path id="_Path_208" data-name="&lt;Path&gt;" class="cls-36" d="M2232,876.15c0,1.78-1.25,2.5-2.78,1.61a6.15,6.15,0,0,1-2.78-4.82c0-1.78,1.25-2.49,2.78-1.61A6.16,6.16,0,0,1,2232,876.15Z" transform="translate(-1652.66 -845.91)"/><path id="_Path_209" data-name="&lt;Path&gt;" class="cls-36" d="M2158.79,975.24c0,1.78-1.25,2.5-2.78,1.61a6.15,6.15,0,0,1-2.79-4.82c0-1.78,1.25-2.5,2.79-1.61A6.15,6.15,0,0,1,2158.79,975.24Z" transform="translate(-1652.66 -845.91)"/><path id="_Path_210" data-name="&lt;Path&gt;" class="cls-36" d="M2319,994.74a1.19,1.19,0,0,1-2,1.13,4.32,4.32,0,0,1-2-3.39,1.19,1.19,0,0,1,2-1.13A4.33,4.33,0,0,1,2319,994.74Z" transform="translate(-1652.66 -845.91)"/><path id="_Path_211" data-name="&lt;Path&gt;" class="cls-36" d="M2136.3,877.2a1.19,1.19,0,0,1-2,1.13,4.33,4.33,0,0,1-2-3.39,1.19,1.19,0,0,1,2-1.13A4.33,4.33,0,0,1,2136.3,877.2Z" transform="translate(-1652.66 -845.91)"/><path id="_Path_212" data-name="&lt;Path&gt;" class="cls-36" d="M2303.19,922.79a1.19,1.19,0,0,1-2,1.13,4.33,4.33,0,0,1-2-3.39,1.19,1.19,0,0,1,2-1.13A4.33,4.33,0,0,1,2303.19,922.79Z" transform="translate(-1652.66 -845.91)"/><path id="_Path_213" data-name="&lt;Path&gt;" class="cls-36" d="M2284.39,1049.47a1.19,1.19,0,0,1-2,1.13,4.33,4.33,0,0,1-2-3.39,1.19,1.19,0,0,1,2-1.13A4.33,4.33,0,0,1,2284.39,1049.47Z" transform="translate(-1652.66 -845.91)"/><path id="_Path_214" data-name="&lt;Path&gt;" class="cls-36" d="M2294.61,1045.27a1.19,1.19,0,0,1-2,1.13,4.33,4.33,0,0,1-2-3.39,1.19,1.19,0,0,1,2-1.13A4.33,4.33,0,0,1,2294.61,1045.27Z" transform="translate(-1652.66 -845.91)"/><path id="_Path_215" data-name="&lt;Path&gt;" class="cls-36" d="M2163.89,959.79a1.19,1.19,0,0,1-2,1.13,4.33,4.33,0,0,1-2-3.39,1.19,1.19,0,0,1,2-1.13A4.33,4.33,0,0,1,2163.89,959.79Z" transform="translate(-1652.66 -845.91)"/><path id="_Path_216" data-name="&lt;Path&gt;" class="cls-36" d="M2242.38,887.5a1.2,1.2,0,0,1-2,1.13,4.33,4.33,0,0,1-2-3.39,1.19,1.19,0,0,1,2-1.13A4.33,4.33,0,0,1,2242.38,887.5Z" transform="translate(-1652.66 -845.91)"/><path id="_Path_217" data-name="&lt;Path&gt;" class="cls-36" d="M2332.86,1030.82a1.19,1.19,0,0,1-2,1.13,4.34,4.34,0,0,1-2-3.39,1.19,1.19,0,0,1,2-1.13A4.32,4.32,0,0,1,2332.86,1030.82Z" transform="translate(-1652.66 -845.91)"/></g></g></g></g></svg>