<svg id="Layer_1" data-name="Layer 1" xmlns="http://www.w3.org/2000/svg" viewBox="0 0 39.74 38.94"><defs><style>.cls-1{fill:#ffb900;}.cls-2{fill:#1aafd0;}</style></defs><title>branding</title><path class="cls-1" d="M3018.86,3922.23h-31a3.74,3.74,0,0,0-3.73,3.73V3931h2.18a2.56,2.56,0,0,0,2.55,2.55h29.06a2.56,2.56,0,0,0,2.55-2.55h2.18V3926A3.73,3.73,0,0,0,3018.86,3922.23Z" transform="translate(-2983.46 -3894.65)"/><path class="cls-2" d="M3018.86,3921.61h-9.75v-4.1h-11.54v4.1h-9.75a4.36,4.36,0,0,0-4.34,4.34V3931a0.59,0.59,0,0,0,.62.62h38.5a0.59,0.59,0,0,0,.62-0.62V3926A4.32,4.32,0,0,0,3018.86,3921.61Zm-20.06-2.8h9.06v2.79h-9.06v-2.79Zm23.16,11.61H2984.7v-4.47a3.11,3.11,0,0,1,3.1-3.1h31a3.11,3.11,0,0,1,3.1,3.1v4.47h0Z" transform="translate(-2983.46 -3894.65)"/><path class="cls-2" d="M2999.48,3914.4v1.68h1.24v-1.68a11.24,11.24,0,0,0-2.73-7.27,7.12,7.12,0,0,1-1.55-5A6.82,6.82,0,0,1,3003,3896a6.8,6.8,0,0,1,7.2,6.83,6.69,6.69,0,0,1-1.68,4.47,11.29,11.29,0,0,0-2.61,7.39v1.43h1.24v-1.43a10,10,0,0,1,2.3-6.58,8.32,8.32,0,0,0,2-5.28,8.11,8.11,0,0,0-2.49-5.9,7.9,7.9,0,0,0-6-2.23,8.25,8.25,0,0,0-7.7,7.45,8.16,8.16,0,0,0,1.8,5.9A10.22,10.22,0,0,1,2999.48,3914.4Z" transform="translate(-2983.46 -3894.65)"/><rect class="cls-2" x="15.96" y="31.36" width="1.24" height="1.24"/><rect class="cls-2" x="19.25" y="31.36" width="1.24" height="1.24"/><rect class="cls-2" x="22.54" y="31.36" width="1.24" height="1.24"/></svg>