<svg id="Layer_1" data-name="Layer 1" xmlns="http://www.w3.org/2000/svg" viewBox="0 0 814.09 408.58"><defs><style>.cls-1{fill:#dec05f;}.cls-2{fill:#3b3b3a;}.cls-3{fill:#b6bd90;}.cls-4{fill:#92a8d1;}.cls-5{fill:#c5c6c6;}.cls-6{fill:#fff;}.cls-7{fill:#b0879b;}.cls-8{fill:#1aafd0;}</style></defs><title>1</title><rect class="cls-1" x="203.11" y="245.97" width="609.04" height="22.1"/><path class="cls-2" d="M2503.91,1366.63h-609a1.94,1.94,0,0,1-1.94-1.94v-22.1a1.94,1.94,0,0,1,1.94-1.94h609a1.94,1.94,0,0,1,1.94,1.94v22.1A1.94,1.94,0,0,1,2503.91,1366.63Zm-607.11-3.87H2502v-18.22H1896.8v18.22Z" transform="translate(-1691.75 -1096.63)"/><rect class="cls-2" x="234.19" y="268.89" width="546.9" height="3.87"/><rect class="cls-2" x="264.02" y="272.06" width="3.87" height="129.78"/><polygon class="cls-2" points="267.88 401.94 264.02 401.74 286.12 271.96 289.98 272.16 267.88 401.94"/><polygon class="cls-2" points="267.86 402.02 264.05 401.65 306.17 271.87 309.98 272.25 267.86 402.02"/><path class="cls-1" d="M1965.13,1503.08c0-2.2-3.32-4-7.43-4s-7.43,1.78-7.43,4h14.85Z" transform="translate(-1691.75 -1096.63)"/><path class="cls-2" d="M1965.13,1504.14h-14.85c-1.07,0-1.94-.48-1.94-1.06,0-2.78,4.2-5,9.36-5s9.36,2.27,9.36,5C1967.07,1503.66,1966.2,1504.14,1965.13,1504.14Zm-12.54-2.13h10.23c-0.8-1.09-2.79-1.86-5.11-1.86S1953.39,1500.93,1952.59,1502Z" transform="translate(-1691.75 -1096.63)"/><path class="cls-1" d="M2451.38,1504.14c0-2.22-3.33-4-7.43-4s-7.43,1.8-7.43,4h14.85Z" transform="translate(-1691.75 -1096.63)"/><path class="cls-2" d="M2451.37,1505.21h-14.85c-1.07,0-1.94-.48-1.94-1.07,0-2.81,4.2-5.09,9.36-5.09s9.36,2.28,9.36,5.09C2453.31,1504.73,2452.44,1505.21,2451.37,1505.21Zm-12.54-2.14h10.22c-0.8-1.09-2.79-1.87-5.11-1.87S2439.64,1502,2438.84,1503.07Z" transform="translate(-1691.75 -1096.63)"/><rect class="cls-2" x="750.26" y="272.06" width="3.87" height="130.8"/><polygon class="cls-2" points="750.27 402.96 728.17 272.16 732.03 271.96 754.13 402.76 750.27 402.96"/><polygon class="cls-2" points="750.29 403.05 708.17 272.25 711.98 271.87 754.1 402.67 750.29 403.05"/><path class="cls-3" d="M2458.5,1302.63s-8.58-38.14-38.14-50.78c0,0,23.95,20,31.71,50.78h6.44Z" transform="translate(-1691.75 -1096.63)"/><path class="cls-2" d="M2458.5,1303.92h-6.44a1.29,1.29,0,0,1-1.25-1c-7.57-30-31-49.91-31.28-50.1a1.29,1.29,0,0,1,1.34-2.18c29.82,12.75,38.81,51.29,38.9,51.68A1.29,1.29,0,0,1,2458.5,1303.92Zm-5.44-2.58h3.77c-1.78-6.43-9.65-30.95-29-43.94C2435.52,1265.66,2447.73,1281.25,2453.06,1301.34Z" transform="translate(-1691.75 -1096.63)"/><path class="cls-3" d="M2454.56,1302.63a40.86,40.86,0,0,0-22.57-23.92s14.78,12.71,16.53,23.92h6Z" transform="translate(-1691.75 -1096.63)"/><path class="cls-2" d="M2454.56,1303.92h-6a1.29,1.29,0,0,1-1.28-1.09c-1.65-10.61-16-23-16.09-23.14a1.29,1.29,0,0,1,1.34-2.17,41.8,41.8,0,0,1,23.32,24.74A1.29,1.29,0,0,1,2454.56,1303.92Zm-5-2.58h3.12a41,41,0,0,0-13.09-16.83C2443.65,1289.05,2448.24,1295.29,2449.58,1301.34Z" transform="translate(-1691.75 -1096.63)"/><path class="cls-3" d="M2458.5,1302.63s-3.47-41.08-35.89-69.05c0,0,21.93,24.63,29.45,69.05h6.44Z" transform="translate(-1691.75 -1096.63)"/><path class="cls-2" d="M2458.5,1303.92h-6.44a1.29,1.29,0,0,1-1.27-1.08c-7.37-43.5-28.93-68.17-29.15-68.41a1.29,1.29,0,0,1,1.81-1.84c32.45,28,36.3,69.51,36.33,69.92A1.29,1.29,0,0,1,2458.5,1303.92Zm-5.35-2.58h3.9c-0.84-6.34-5.38-33-24.53-55.86A162.77,162.77,0,0,1,2453.15,1301.34Z" transform="translate(-1691.75 -1096.63)"/><path class="cls-3" d="M2456.94,1302.63s-7.31-71.44-22.73-97.66c0,0,11.71,84.07,17.85,97.66h4.87Z" transform="translate(-1691.75 -1096.63)"/><path class="cls-2" d="M2456.94,1303.92h-4.87a1.29,1.29,0,0,1-1.18-.76c-6.15-13.6-17.47-94.57-18-98a1.29,1.29,0,0,1,2.39-.83c15.38,26.16,22.6,95.25,22.9,98.18A1.29,1.29,0,0,1,2456.94,1303.92Zm-4-2.58h2.58c-1-9.29-7.25-61.56-18.88-88.63C2439.64,1233.49,2448,1288.84,2452.92,1301.34Z" transform="translate(-1691.75 -1096.63)"/><path class="cls-3" d="M2459.45,1302.63s-4.11-73.82-12.21-92.26c0,0,3,78.67,5.77,92.26h6.44Z" transform="translate(-1691.75 -1096.63)"/><path class="cls-2" d="M2459.45,1303.92H2453a1.29,1.29,0,0,1-1.26-1c-2.8-13.54-5.68-89.25-5.8-92.47a1.29,1.29,0,0,1,2.47-.57c8.11,18.44,12.15,89.68,12.32,92.7A1.29,1.29,0,0,1,2459.45,1303.92Zm-5.36-2.58h4c-0.53-8.73-3.63-57.07-9.15-81C2449.82,1241.33,2452,1289,2454.09,1301.34Z" transform="translate(-1691.75 -1096.63)"/><polygon class="cls-4" points="779.6 246.05 751.71 246.05 746.94 206 784.37 206 779.6 246.05"/><path class="cls-2" d="M2471.35,1344.62h-27.89a1.94,1.94,0,0,1-1.92-1.71l-4.77-40.05a1.94,1.94,0,0,1,1.92-2.17h37.43a1.94,1.94,0,0,1,1.92,2.17l-4.77,40.05A1.94,1.94,0,0,1,2471.35,1344.62Zm-26.17-3.87h24.45l4.31-36.18h-33.06Z" transform="translate(-1691.75 -1096.63)"/><path class="cls-3" d="M2459.3,1302.63s8.58-38.14,38.14-50.78c0,0-23.95,20-31.71,50.78h-6.44Z" transform="translate(-1691.75 -1096.63)"/><path class="cls-2" d="M2465.73,1303.92h-6.44a1.29,1.29,0,0,1-1.26-1.57c0.09-.39,9.07-38.93,38.9-51.68a1.29,1.29,0,0,1,1.34,2.18c-0.24.2-23.72,20.15-31.28,50.1A1.29,1.29,0,0,1,2465.73,1303.92Zm-4.77-2.58h3.77c5.33-20.1,17.55-35.69,25.21-43.94C2470.6,1270.39,2462.74,1294.91,2461,1301.34Z" transform="translate(-1691.75 -1096.63)"/><path class="cls-3" d="M2456.09,1302.63s-5.24-83.44,4.53-113.23c0,0,5.72,90.83.24,113.23h-4.77Z" transform="translate(-1691.75 -1096.63)"/><path class="cls-2" d="M2460.86,1303.92h-4.77a1.29,1.29,0,0,1-1.29-1.21c-0.21-3.42-5.15-84,4.59-113.72a1.27,1.27,0,0,1,1.39-.88,1.29,1.29,0,0,1,1.12,1.2c0.23,3.72,5.67,91.28.2,113.62A1.29,1.29,0,0,1,2460.86,1303.92Zm-3.55-2.58h2.52c4.07-19.21,1.21-81,0-103.53C2453.54,1229.33,2456.77,1291.86,2457.31,1301.34Z" transform="translate(-1691.75 -1096.63)"/><path class="cls-3" d="M2463.24,1302.63a40.86,40.86,0,0,1,22.57-23.92s-14.78,12.71-16.53,23.92h-6Z" transform="translate(-1691.75 -1096.63)"/><path class="cls-2" d="M2469.28,1303.92h-6a1.29,1.29,0,0,1-1.24-1.66,41.8,41.8,0,0,1,23.32-24.74,1.29,1.29,0,0,1,1.34,2.17c-0.14.12-14.44,12.54-16.09,23.14A1.29,1.29,0,0,1,2469.28,1303.92Zm-4.19-2.58h3.12c1.34-6.05,5.93-12.29,10-16.83A41,41,0,0,0,2465.09,1301.34Z" transform="translate(-1691.75 -1096.63)"/><path class="cls-3" d="M2459.3,1302.63s3.47-41.08,35.89-69.05c0,0-21.93,24.63-29.45,69.05h-6.44Z" transform="translate(-1691.75 -1096.63)"/><path class="cls-2" d="M2465.73,1303.92h-6.44a1.29,1.29,0,0,1-1.29-1.4c0-.42,3.89-41.93,36.33-69.92a1.29,1.29,0,0,1,1.81,1.84c-0.22.24-21.78,24.91-29.15,68.41A1.29,1.29,0,0,1,2465.73,1303.92Zm-5-2.58h3.9a162.73,162.73,0,0,1,20.64-55.87C2466.11,1268.35,2461.58,1295,2460.75,1301.34Z" transform="translate(-1691.75 -1096.63)"/><path class="cls-3" d="M2460.86,1302.63s7.31-71.44,22.73-97.66c0,0-11.71,84.07-17.85,97.66h-4.87Z" transform="translate(-1691.75 -1096.63)"/><path class="cls-2" d="M2465.73,1303.92h-4.87a1.29,1.29,0,0,1-1.28-1.42c0.3-2.93,7.51-72,22.9-98.18a1.29,1.29,0,0,1,2.39.83c-0.48,3.44-11.8,84.41-18,98A1.29,1.29,0,0,1,2465.73,1303.92Zm-3.43-2.58h2.58c4.94-12.5,13.28-67.85,16.3-88.63C2469.55,1239.78,2463.33,1292.05,2462.3,1301.34Z" transform="translate(-1691.75 -1096.63)"/><path class="cls-3" d="M2458.34,1302.63s4.11-73.82,12.21-92.26c0,0-3,78.67-5.77,92.26h-6.44Z" transform="translate(-1691.75 -1096.63)"/><path class="cls-2" d="M2464.78,1303.92h-6.44a1.29,1.29,0,0,1-1.29-1.36c0.17-3,4.21-74.27,12.32-92.7a1.28,1.28,0,0,1,1.47-.74,1.29,1.29,0,0,1,1,1.31c-0.12,3.22-3,78.93-5.8,92.47A1.29,1.29,0,0,1,2464.78,1303.92Zm-5.07-2.58h4c2.1-12.34,4.27-60,5.15-81C2463.34,1244.27,2460.24,1292.61,2459.71,1301.34Z" transform="translate(-1691.75 -1096.63)"/><polygon class="cls-1" points="710.26 77.88 682.96 77.88 682.96 39.98 720.85 39.98 720.85 67.01 710.26 77.88"/><path class="cls-2" d="M2402,1176.44h-27.3a1.94,1.94,0,0,1-1.94-1.94v-37.89a1.94,1.94,0,0,1,1.94-1.94h37.89a1.94,1.94,0,0,1,1.94,1.94v27a1.93,1.93,0,0,1-.55,1.35l-10.59,10.86A1.94,1.94,0,0,1,2402,1176.44Zm-25.36-3.87h24.54l9.47-9.71v-24.3h-34v34Z" transform="translate(-1691.75 -1096.63)"/><polygon class="cls-1" points="720.85 66.75 710.26 66.75 710.26 77.88 720.85 66.75"/><path class="cls-2" d="M2402,1176.44a1.94,1.94,0,0,1-1.94-1.94v-11.13a1.94,1.94,0,0,1,1.94-1.94h10.59a1.94,1.94,0,0,1,1.4,3.27l-10.59,11.13A1.94,1.94,0,0,1,2402,1176.44Zm1.94-11.13v4.35l4.14-4.35h-4.14Z" transform="translate(-1691.75 -1096.63)"/><line class="cls-1" x1="689.7" y1="47.27" x2="714.23" y2="47.27"/><path class="cls-2" d="M2406,1145.84h-24.54a1.94,1.94,0,1,1,0-3.87H2406A1.94,1.94,0,1,1,2406,1145.84Z" transform="translate(-1691.75 -1096.63)"/><line class="cls-1" x1="689.7" y1="53.53" x2="706.28" y2="53.53"/><path class="cls-2" d="M2398,1152.1h-16.59a1.94,1.94,0,1,1,0-3.87H2398A1.94,1.94,0,1,1,2398,1152.1Z" transform="translate(-1691.75 -1096.63)"/><line class="cls-1" x1="689.7" y1="59.79" x2="714.23" y2="59.79"/><path class="cls-2" d="M2406,1158.36h-24.54a1.94,1.94,0,1,1,0-3.87H2406A1.94,1.94,0,1,1,2406,1158.36Z" transform="translate(-1691.75 -1096.63)"/><polygon class="cls-3" points="650.77 111.71 623.48 111.71 623.48 73.82 661.36 73.82 661.36 100.85 650.77 111.71"/><path class="cls-2" d="M2342.52,1210.28h-27.3a1.94,1.94,0,0,1-1.94-1.94v-37.89a1.94,1.94,0,0,1,1.94-1.94h37.89a1.94,1.94,0,0,1,1.94,1.94v27a1.93,1.93,0,0,1-.55,1.35l-10.59,10.86A1.94,1.94,0,0,1,2342.52,1210.28Zm-25.36-3.87h24.55l9.47-9.71v-24.3h-34v34Z" transform="translate(-1691.75 -1096.63)"/><polygon class="cls-3" points="661.36 100.58 650.77 100.58 650.77 111.71 661.36 100.58"/><path class="cls-2" d="M2342.52,1210.28a1.94,1.94,0,0,1-1.94-1.94v-11.13a1.94,1.94,0,0,1,1.94-1.94h10.59a1.93,1.93,0,0,1,1.4,3.27l-10.59,11.13A1.93,1.93,0,0,1,2342.52,1210.28Zm1.94-11.13v4.35l4.14-4.35h-4.14Z" transform="translate(-1691.75 -1096.63)"/><line class="cls-1" x1="630.21" y1="81.11" x2="654.75" y2="81.11"/><path class="cls-2" d="M2346.5,1179.67H2322a1.94,1.94,0,1,1,0-3.87h24.54A1.94,1.94,0,1,1,2346.5,1179.67Z" transform="translate(-1691.75 -1096.63)"/><line class="cls-1" x1="630.21" y1="87.37" x2="646.8" y2="87.37"/><path class="cls-2" d="M2338.55,1185.93H2322a1.94,1.94,0,0,1,0-3.87h16.59A1.94,1.94,0,0,1,2338.55,1185.93Z" transform="translate(-1691.75 -1096.63)"/><line class="cls-1" x1="630.21" y1="93.63" x2="654.75" y2="93.63"/><path class="cls-2" d="M2346.5,1192.19H2322a1.94,1.94,0,0,1,0-3.87h24.54A1.94,1.94,0,0,1,2346.5,1192.19Z" transform="translate(-1691.75 -1096.63)"/><path class="cls-5" d="M2298.21,1326.07v-96.82a12.11,12.11,0,0,0-12.11-12.11H2113.84a12.11,12.11,0,0,0-12.11,12.11v96.82h196.48Z" transform="translate(-1691.75 -1096.63)"/><path class="cls-2" d="M2298.21,1328H2101.73a1.94,1.94,0,0,1-1.94-1.94v-96.82a14.06,14.06,0,0,1,14-14H2286.1a14.06,14.06,0,0,1,14,14v96.82A1.94,1.94,0,0,1,2298.21,1328Zm-194.54-3.87h192.61v-94.88a10.19,10.19,0,0,0-10.18-10.18H2113.84a10.19,10.19,0,0,0-10.18,10.18v94.88Z" transform="translate(-1691.75 -1096.63)"/><path class="cls-5" d="M2302.57,1339H2096.2a15.32,15.32,0,0,1-11.89-5.66l-5.9-7.26h242l-5.9,7.26A15.32,15.32,0,0,1,2302.57,1339Z" transform="translate(-1691.75 -1096.63)"/><path class="cls-2" d="M2302.57,1340.93H2096.2a17.18,17.18,0,0,1-13.39-6.38l-5.9-7.26a1.94,1.94,0,0,1,1.5-3.16h242a1.94,1.94,0,0,1,1.5,3.16l-5.9,7.26A17.18,17.18,0,0,1,2302.57,1340.93ZM2082.48,1328l3.33,4.1a13.33,13.33,0,0,0,10.39,4.95h206.38a13.33,13.33,0,0,0,10.39-4.95l3.33-4.1H2082.48Z" transform="translate(-1691.75 -1096.63)"/><rect class="cls-6" x="419.6" y="131.4" width="176.07" height="98.05"/><path class="cls-2" d="M2287.42,1328H2111.35a1.94,1.94,0,0,1-1.94-1.94v-98a1.94,1.94,0,0,1,1.94-1.94h176.07a1.94,1.94,0,0,1,1.94,1.94v98A1.94,1.94,0,0,1,2287.42,1328Zm-174.14-3.87h172.2V1230h-172.2v94.17Z" transform="translate(-1691.75 -1096.63)"/><rect class="cls-7" x="429.41" y="141.69" width="9.7" height="78.84"/><path class="cls-2" d="M2130.86,1319.1h-9.7a1.94,1.94,0,0,1-1.94-1.94v-78.84a1.94,1.94,0,0,1,1.94-1.94h9.7a1.94,1.94,0,0,1,1.94,1.94v78.84A1.94,1.94,0,0,1,2130.86,1319.1Zm-7.76-3.87h5.83v-75h-5.83v75Z" transform="translate(-1691.75 -1096.63)"/><rect class="cls-1" x="573.62" y="141.69" width="11.64" height="11.64"/><path class="cls-2" d="M2277,1251.9h-11.65a1.94,1.94,0,0,1-1.94-1.94v-11.65a1.94,1.94,0,0,1,1.94-1.94H2277a1.94,1.94,0,0,1,1.94,1.94V1250A1.94,1.94,0,0,1,2277,1251.9Zm-9.71-3.87h7.77v-7.77h-7.77V1248Z" transform="translate(-1691.75 -1096.63)"/><rect class="cls-7" x="573.62" y="161.16" width="11.64" height="11.64"/><path class="cls-2" d="M2277,1271.37h-11.65a1.94,1.94,0,0,1-1.94-1.94v-11.64a1.94,1.94,0,0,1,1.94-1.94H2277a1.94,1.94,0,0,1,1.94,1.94v11.64A1.94,1.94,0,0,1,2277,1271.37Zm-9.71-3.87h7.77v-7.77h-7.77v7.77Z" transform="translate(-1691.75 -1096.63)"/><rect class="cls-3" x="573.62" y="180.62" width="11.64" height="11.64"/><path class="cls-2" d="M2277,1290.83h-11.65a1.94,1.94,0,0,1-1.94-1.94v-11.64a1.94,1.94,0,0,1,1.94-1.94H2277a1.94,1.94,0,0,1,1.94,1.94v11.64A1.94,1.94,0,0,1,2277,1290.83Zm-9.71-3.87h7.77v-7.77h-7.77V1287Z" transform="translate(-1691.75 -1096.63)"/><rect class="cls-4" x="573.62" y="200.09" width="11.64" height="11.64"/><path class="cls-2" d="M2277,1310.3h-11.65a1.94,1.94,0,0,1-1.94-1.94v-11.64a1.94,1.94,0,0,1,1.94-1.94H2277a1.94,1.94,0,0,1,1.94,1.94v11.64A1.94,1.94,0,0,1,2277,1310.3Zm-9.71-3.87h7.77v-7.77h-7.77v7.77Z" transform="translate(-1691.75 -1096.63)"/><rect class="cls-1" x="573.62" y="219.55" width="11.64" height="9.89"/><path class="cls-2" d="M2277,1328h-11.65a1.94,1.94,0,0,1-1.94-1.94v-9.89a1.94,1.94,0,0,1,1.94-1.94H2277a1.94,1.94,0,0,1,1.94,1.94v9.89A1.94,1.94,0,0,1,2277,1328Zm-9.71-3.87h7.77v-6h-7.77v6Z" transform="translate(-1691.75 -1096.63)"/><path class="cls-2" d="M2171.55,1310.57a21.55,21.55,0,0,1,0-43.1c0.33,0,25.41,1,28.68-17.62a1.27,1.27,0,0,1,1.49-1,1.29,1.29,0,0,1,1,1.49c-3.66,20.86-31,19.78-31.28,19.75a19,19,0,1,0,19,19,1.29,1.29,0,1,1,2.58,0A21.57,21.57,0,0,1,2171.55,1310.57Z" transform="translate(-1691.75 -1096.63)"/><rect class="cls-6" x="476.95" y="169.93" width="4.43" height="4.43"/><path class="cls-2" d="M2173.13,1272h-4.42a1,1,0,0,1-1-1v-4.42a1,1,0,0,1,1-1h4.42a1,1,0,0,1,1,1V1271A1,1,0,0,1,2173.13,1272Zm-3.39-2.07h2.36v-2.36h-2.36v2.36Z" transform="translate(-1691.75 -1096.63)"/><rect class="cls-6" x="476.95" y="210.43" width="4.43" height="4.43"/><path class="cls-2" d="M2173.13,1312.52h-4.42a1,1,0,0,1-1-1v-4.42a1,1,0,0,1,1-1h4.42a1,1,0,0,1,1,1v4.42A1,1,0,0,1,2173.13,1312.52Zm-3.39-2.07h2.36v-2.36h-2.36v2.36Z" transform="translate(-1691.75 -1096.63)"/><rect class="cls-6" x="497.78" y="190.3" width="4.43" height="4.43"/><path class="cls-2" d="M2194,1292.38h-4.43a1,1,0,0,1-1-1v-4.42a1,1,0,0,1,1-1H2194a1,1,0,0,1,1,1v4.42A1,1,0,0,1,2194,1292.38Zm-3.39-2.07h2.36V1288h-2.36v2.36Z" transform="translate(-1691.75 -1096.63)"/><rect class="cls-6" x="457.27" y="190.3" width="4.43" height="4.43"/><path class="cls-2" d="M2153.44,1292.38H2149a1,1,0,0,1-1-1v-4.42a1,1,0,0,1,1-1h4.42a1,1,0,0,1,1,1v4.42A1,1,0,0,1,2153.44,1292.38Zm-3.39-2.07h2.36V1288h-2.36v2.36Z" transform="translate(-1691.75 -1096.63)"/><polygon class="cls-6" points="550.48 165.64 548.2 156.98 531.64 151.02 537.6 167.58 546.13 169.99 550.48 165.64"/><path class="cls-2" d="M2237.88,1267.65a1,1,0,0,1-.28,0l-8.53-2.41a1,1,0,0,1-.69-0.64l-6-16.56a1,1,0,0,1,.24-1.08,1,1,0,0,1,1.08-.24l16.56,6a1,1,0,0,1,.65.71l2.28,8.66a1,1,0,0,1-.27,1l-4.35,4.35A1,1,0,0,1,2237.88,1267.65Zm-7.74-4.29,7.44,2.1,3.51-3.51-2-7.56-14-5Z" transform="translate(-1691.75 -1096.63)"/><rect class="cls-6" x="2235.87" y="1264.12" width="10.84" height="3.1" transform="translate(-1930.25 858.91) rotate(-45)"/><path class="cls-2" d="M2238.55,1271.63a1,1,0,0,1-.73-0.3l-2.19-2.19a1,1,0,0,1,0-1.46l7.67-7.67a1.07,1.07,0,0,1,1.46,0l2.19,2.19a1,1,0,0,1,0,1.46l-7.67,7.67A1,1,0,0,1,2238.55,1271.63Zm-0.73-3.23,0.73,0.73,6.21-6.21-0.73-.73Z" transform="translate(-1691.75 -1096.63)"/><path class="cls-2" d="M2232.67,1258a1,1,0,0,1-.73-0.3l-9.28-9.28a1,1,0,1,1,1.46-1.46l9.28,9.28A1,1,0,0,1,2232.67,1258Z" transform="translate(-1691.75 -1096.63)"/><circle class="cls-6" cx="2232.84" cy="1257.1" r="1.42" transform="translate(-1926.64 850.53) rotate(-45)"/><path class="cls-2" d="M2232.84,1259.55a2.45,2.45,0,0,1-1.73-4.19,2.51,2.51,0,0,1,3.47,0A2.45,2.45,0,0,1,2232.84,1259.55Z" transform="translate(-1691.75 -1096.63)"/><path class="cls-2" d="M2181,1257.1a1,1,0,0,1-.31-2l39.64-12.24a1,1,0,0,1,.61,2L2181.33,1257A1,1,0,0,1,2181,1257.1Z" transform="translate(-1691.75 -1096.63)"/><rect class="cls-6" x="506.88" y="151.1" width="4.43" height="4.43"/><path class="cls-2" d="M2203.06,1253.19h-4.43a1,1,0,0,1-1-1v-4.43a1,1,0,0,1,1-1h4.43a1,1,0,0,1,1,1v4.43A1,1,0,0,1,2203.06,1253.19Zm-3.39-2.07H2202v-2.36h-2.36v2.36Z" transform="translate(-1691.75 -1096.63)"/><rect class="cls-1" x="708.78" y="155.39" width="5.55" height="52.5"/><path class="cls-2" d="M2406.08,1305.82h-5.55a1.29,1.29,0,0,1-1.29-1.29V1252a1.29,1.29,0,0,1,1.29-1.29h5.55a1.29,1.29,0,0,1,1.29,1.29v52.5A1.29,1.29,0,0,1,2406.08,1305.82Zm-4.26-2.58h3v-49.92h-3v49.92Z" transform="translate(-1691.75 -1096.63)"/><rect class="cls-3" x="677.38" y="155.03" width="5.55" height="52.5"/><path class="cls-2" d="M2374.67,1305.46h-5.55a1.29,1.29,0,0,1-1.29-1.29v-52.5a1.29,1.29,0,0,1,1.29-1.29h5.55a1.29,1.29,0,0,1,1.29,1.29v52.5A1.29,1.29,0,0,1,2374.67,1305.46Zm-4.26-2.58h3V1253h-3v49.92Z" transform="translate(-1691.75 -1096.63)"/><rect class="cls-2" x="708.78" y="160.55" width="5.55" height="2.58"/><rect class="cls-7" x="697.94" y="151.52" width="5.55" height="56.38"/><path class="cls-2" d="M2395.24,1305.82h-5.55a1.29,1.29,0,0,1-1.29-1.29v-56.37a1.29,1.29,0,0,1,1.29-1.29h5.55a1.29,1.29,0,0,1,1.29,1.29v56.37A1.29,1.29,0,0,1,2395.24,1305.82Zm-4.26-2.58h3v-53.79h-3v53.79Z" transform="translate(-1691.75 -1096.63)"/><polygon class="cls-1" points="697.95 151.5 700.72 143.23 703.49 151.5 697.95 151.5"/><path class="cls-2" d="M2395.24,1249.42h-5.54a1.29,1.29,0,0,1-1.22-1.7l2.77-8.26a1.34,1.34,0,0,1,2.45,0l2.77,8.26A1.29,1.29,0,0,1,2395.24,1249.42Zm-3.74-2.58h2l-1-2.91Z" transform="translate(-1691.75 -1096.63)"/><path class="cls-2" d="M2378.93,1272.54a1.29,1.29,0,0,1-1.29-1.29v-16.13h-2.79a1.29,1.29,0,1,1,0-2.58h4.08a1.29,1.29,0,0,1,1.29,1.29v17.42A1.29,1.29,0,0,1,2378.93,1272.54Z" transform="translate(-1691.75 -1096.63)"/><polygon class="cls-8" points="711.02 245.86 680.16 245.86 672.52 189.6 718.65 189.6 711.02 245.86"/><path class="cls-2" d="M2402.77,1344h-30.86a1.55,1.55,0,0,1-1.54-1.34l-7.64-56.26a1.55,1.55,0,0,1,1.54-1.76h46.14a1.55,1.55,0,0,1,1.54,1.76l-7.64,56.26A1.55,1.55,0,0,1,2402.77,1344Zm-29.51-3.1h28.16l7.22-53.16H2366Z" transform="translate(-1691.75 -1096.63)"/><rect class="cls-4" x="222.62" y="234.16" width="88.24" height="11.13"/><path class="cls-2" d="M2002.61,1343.86h-88.24a1.94,1.94,0,0,1-1.94-1.94v-11.13a1.94,1.94,0,0,1,1.94-1.94h88.24a1.94,1.94,0,0,1,1.94,1.94v11.13A1.94,1.94,0,0,1,2002.61,1343.86Zm-86.3-3.87h84.37v-7.26h-84.37V1340Z" transform="translate(-1691.75 -1096.63)"/><circle class="cls-4" cx="197.88" cy="78.71" r="11.13"/><path class="cls-2" d="M1889.63,1188.41a13.07,13.07,0,1,1,13.07-13.07A13.08,13.08,0,0,1,1889.63,1188.41Zm0-22.27a9.2,9.2,0,1,0,9.2,9.2A9.21,9.21,0,0,0,1889.63,1166.14Z" transform="translate(-1691.75 -1096.63)"/><path class="cls-5" d="M1898.59,1181.9a10.83,10.83,0,0,1-11.73,4.18l51.43,144.71h13.22Z" transform="translate(-1691.75 -1096.63)"/><path class="cls-2" d="M1951.5,1332.73h-13.22a1.94,1.94,0,0,1-1.82-1.29L1885,1186.73a1.93,1.93,0,0,1,2.31-2.52,8.9,8.9,0,0,0,9.68-3.45,2,2,0,0,1,1.84-.77,1.94,1.94,0,0,1,1.54,1.27l52.92,148.89A1.94,1.94,0,0,1,1951.5,1332.73Zm-11.85-3.87h9.11l-50.95-143.35a12.86,12.86,0,0,1-8.08,2.9Z" transform="translate(-1691.75 -1096.63)"/><circle class="cls-4" cx="1998.71" cy="1117.47" r="11.13" transform="translate(-1831.57 -797.87) rotate(-8.26)"/><path class="cls-2" d="M1998.7,1130.55a13.07,13.07,0,1,1,13-14.95A13.09,13.09,0,0,1,1998.7,1130.55Zm0-22.27a9.2,9.2,0,1,0,1.31,18.3,9.2,9.2,0,0,0,7.78-10.42A9.24,9.24,0,0,0,1998.73,1108.28Z" transform="translate(-1691.75 -1096.63)"/><path class="cls-5" d="M1894.58,1165.41a11.1,11.1,0,0,1,6.19,9.93c0,0.32-.07.62-0.09,0.94l92.83-49a10.83,10.83,0,0,1-5.82-11Z" transform="translate(-1691.75 -1096.63)"/><path class="cls-2" d="M1900.67,1178.22a1.94,1.94,0,0,1-1.93-2.1l0.05-.46a2.26,2.26,0,0,0,0-.32,9.13,9.13,0,0,0-5.12-8.19,1.94,1.94,0,0,1,0-3.44l93.11-49.15a1.94,1.94,0,0,1,2.83,1.92,8.89,8.89,0,0,0,4.81,9.09,1.94,1.94,0,0,1,0,3.42l-92.83,49A1.92,1.92,0,0,1,1900.67,1178.22Zm-2.34-12.59a12.91,12.91,0,0,1,4.19,7.49l87.31-46.09a12.85,12.85,0,0,1-4-7.58Z" transform="translate(-1691.75 -1096.63)"/><path class="cls-5" d="M1878.5,1175.34a11,11,0,0,1,.15-1.52L1851.87,1188l1.9,13.08,30.41-16.05A11.08,11.08,0,0,1,1878.5,1175.34Z" transform="translate(-1691.75 -1096.63)"/><path class="cls-2" d="M1853.77,1203a1.93,1.93,0,0,1-1.92-1.66l-1.9-13.08a1.94,1.94,0,0,1,1-2l26.78-14.14a1.94,1.94,0,0,1,2.82,2,8.6,8.6,0,0,0,4.56,9.22,1.94,1.94,0,0,1-.05,3.4l-30.41,16A1.94,1.94,0,0,1,1853.77,1203ZM1854,1189l1.31,9,25.28-13.35a13.07,13.07,0,0,1-3.9-7.65Z" transform="translate(-1691.75 -1096.63)"/><path class="cls-2" d="M2032,1121.82a1.93,1.93,0,0,1-1.78-1.18l-6.17-14.48-14.52,7.82a1.94,1.94,0,0,1-1.84-3.41l16.38-8.82a1.93,1.93,0,0,1,2.7.95l7,16.43A1.94,1.94,0,0,1,2032,1121.82Z" transform="translate(-1691.75 -1096.63)"/><path class="cls-1" d="M2094.54,1149.76c-11-26.07-38.69-39.28-61.85-29.51s-33,38.82-22,64.89Z" transform="translate(-1691.75 -1096.63)"/><path class="cls-2" d="M2010.68,1187.07a1.94,1.94,0,0,1-1.78-1.18A56.25,56.25,0,0,1,2007,1146c4.34-12.79,13.18-22.55,24.89-27.5a42.84,42.84,0,0,1,16.73-3.37c19.94,0,39.1,13.63,47.66,33.91a1.94,1.94,0,0,1-1,2.54l-83.86,35.38A1.93,1.93,0,0,1,2010.68,1187.07Zm38-68.11a38.92,38.92,0,0,0-15.22,3.07c-10.68,4.51-18.76,13.45-22.74,25.17a52.15,52.15,0,0,0,1,35.39l80.23-33.85C2083.67,1130.85,2066.49,1119,2048.67,1119Z" transform="translate(-1691.75 -1096.63)"/><circle class="cls-5" cx="333.64" cy="7.3" r="5.36"/><path class="cls-2" d="M2025.39,1111.22a7.3,7.3,0,1,1,7.3-7.3A7.3,7.3,0,0,1,2025.39,1111.22Zm0-10.72a3.42,3.42,0,1,0,3.42,3.42A3.43,3.43,0,0,0,2025.39,1100.5Z" transform="translate(-1691.75 -1096.63)"/><polygon class="cls-3" points="366.81 246.01 339.36 246.01 335.58 195.4 370.58 195.4 366.81 246.01"/><path class="cls-2" d="M2058.56,1344.19h-27.44a1.55,1.55,0,0,1-1.55-1.43l-3.78-50.61a1.55,1.55,0,0,1,1.55-1.66h35a1.55,1.55,0,0,1,1.55,1.66l-3.78,50.61A1.55,1.55,0,0,1,2058.56,1344.19Zm-26-3.1h24.57l3.54-47.51H2029Z" transform="translate(-1691.75 -1096.63)"/><rect class="cls-3" x="330.86" y="187.06" width="44.44" height="8.34"/><path class="cls-2" d="M2067.05,1293.58h-44.44a1.55,1.55,0,0,1-1.55-1.55v-8.34a1.55,1.55,0,0,1,1.55-1.55h44.44a1.55,1.55,0,0,1,1.55,1.55V1292A1.55,1.55,0,0,1,2067.05,1293.58Zm-42.89-3.1h41.34v-5.24h-41.34v5.24Z" transform="translate(-1691.75 -1096.63)"/><path class="cls-3" d="M2057.95,1275.92h-26.23a3.74,3.74,0,0,0-3.6,2.7l-1.48,5.08H2063l-1.48-5.08A3.74,3.74,0,0,0,2057.95,1275.92Z" transform="translate(-1691.75 -1096.63)"/><path class="cls-2" d="M2063,1285.24h-36.38a1.55,1.55,0,0,1-1.49-2l1.48-5.08a5.32,5.32,0,0,1,5.08-3.81H2058a5.32,5.32,0,0,1,5.08,3.81l1.48,5.08A1.55,1.55,0,0,1,2063,1285.24Zm-34.32-3.1H2061l-0.9-3.1a2.21,2.21,0,0,0-2.11-1.58h-26.23a2.2,2.2,0,0,0-2.11,1.58Z" transform="translate(-1691.75 -1096.63)"/><polygon class="cls-6" points="336.29 204.84 369.88 204.84 367.35 238.65 338.81 238.65 336.29 204.84"/><path class="cls-2" d="M2059.1,1336.83h-28.54a1.55,1.55,0,0,1-1.55-1.43l-2.52-33.81a1.55,1.55,0,0,1,1.55-1.66h33.59a1.55,1.55,0,0,1,1.55,1.66l-2.52,33.81A1.55,1.55,0,0,1,2059.1,1336.83Zm-27.11-3.1h25.67L2060,1303h-30.25Z" transform="translate(-1691.75 -1096.63)"/><circle class="cls-7" cx="353.08" cy="215.88" r="5.73"/><path class="cls-2" d="M2044.83,1319.79a7.28,7.28,0,1,1,7.28-7.28A7.28,7.28,0,0,1,2044.83,1319.79Zm0-11.46a4.18,4.18,0,1,0,4.18,4.18A4.19,4.19,0,0,0,2044.83,1308.33Z" transform="translate(-1691.75 -1096.63)"/><path class="cls-3" d="M1751,1441.16s-13.06-58-58-77.26c0,0,36.44,30.49,48.25,77.26H1751Z" transform="translate(-1691.75 -1096.63)"/><path class="cls-2" d="M1751,1442.34h-9.79a1.18,1.18,0,0,1-1.14-.89c-11.58-45.88-47.5-76.35-47.86-76.65a1.18,1.18,0,0,1,1.22-2c45,19.24,58.59,77.5,58.73,78.09A1.18,1.18,0,0,1,1751,1442.34Zm-8.88-2.36h7.36c-2.25-8.48-15.28-52.11-50-71.54C1710.25,1379.19,1733,1405.16,1742.09,1440Z" transform="translate(-1691.75 -1096.63)"/><path class="cls-3" d="M1745,1441.16s-7.51-25.27-34.35-36.4c0,0,22.49,19.35,25.15,36.4h9.2Z" transform="translate(-1691.75 -1096.63)"/><path class="cls-2" d="M1745,1442.34h-9.2a1.18,1.18,0,0,1-1.17-1c-2.56-16.43-24.53-35.49-24.75-35.68a1.18,1.18,0,0,1,1.22-2c27,11.21,35,36.89,35,37.15A1.18,1.18,0,0,1,1745,1442.34Zm-8.21-2.36h6.55a62.35,62.35,0,0,0-26.19-30.7C1723.88,1416.11,1734.47,1428.35,1736.76,1440Z" transform="translate(-1691.75 -1096.63)"/><path class="cls-3" d="M1751,1441.16s-5.28-62.51-54.61-105.07c0,0,33.37,37.48,44.82,105.07H1751Z" transform="translate(-1691.75 -1096.63)"/><path class="cls-2" d="M1751,1442.34h-9.79a1.18,1.18,0,0,1-1.16-1,248.85,248.85,0,0,0-26.53-77.44c-9.6-17.52-17.92-27-18-27a1.18,1.18,0,0,1,1.65-1.68c49.13,42.39,55,105.24,55,105.87A1.18,1.18,0,0,1,1751,1442.34Zm-8.8-2.36h7.48c-1-8.36-8.23-55.91-43.95-93.37,2.87,4.24,6.25,9.62,9.8,16.1A251,251,0,0,1,1742.17,1440Z" transform="translate(-1691.75 -1096.63)"/><path class="cls-3" d="M1748.59,1441.16s-11.12-108.7-34.58-148.6c0,0,17.81,127.93,27.17,148.6h7.42Z" transform="translate(-1691.75 -1096.63)"/><path class="cls-2" d="M1748.59,1442.34h-7.42a1.18,1.18,0,0,1-1.08-.69c-9.31-20.59-26.53-143.7-27.26-148.93a1.18,1.18,0,0,1,2.18-.76c9.8,16.67,18.63,46.83,26.23,89.66,5.66,31.84,8.48,59.15,8.51,59.43A1.18,1.18,0,0,1,1748.59,1442.34ZM1742,1440h5.33c-1.29-11.81-11.52-100.55-31.16-141C1719.88,1325.19,1733.94,1420.66,1742,1440Z" transform="translate(-1691.75 -1096.63)"/><path class="cls-3" d="M1752.42,1441.16s-6.25-112.33-18.58-140.38c0,0,4.51,119.71,8.79,140.38h9.79Z" transform="translate(-1691.75 -1096.63)"/><path class="cls-2" d="M1752.42,1442.34h-9.79a1.18,1.18,0,0,1-1.15-.94c-4.24-20.54-8.63-135.69-8.81-140.58a1.18,1.18,0,0,1,2.26-.52c12.28,27.93,18.42,136.2,18.68,140.79A1.18,1.18,0,0,1,1752.42,1442.34Zm-8.82-2.36h7.57c-0.68-11.41-6.06-97.69-15.84-131.4C1736.4,1335.09,1740.08,1420.67,1743.6,1440Z" transform="translate(-1691.75 -1096.63)"/><polygon class="cls-4" points="78.77 405.47 36.33 405.47 29.08 344.53 86.03 344.53 78.77 405.47"/><path class="cls-2" d="M1770.52,1503.28h-42.44a1.18,1.18,0,0,1-1.17-1l-7.26-60.94a1.18,1.18,0,0,1,1.17-1.32h57a1.18,1.18,0,0,1,1.17,1.32l-7.26,60.94A1.18,1.18,0,0,1,1770.52,1503.28Zm-41.39-2.36h40.35l7-58.58h-54.3Z" transform="translate(-1691.75 -1096.63)"/><path class="cls-3" d="M1752.18,1441.16s13.06-58,58-77.26c0,0-36.44,30.49-48.25,77.26h-9.79Z" transform="translate(-1691.75 -1096.63)"/><path class="cls-2" d="M1762,1442.34h-9.79a1.18,1.18,0,0,1-1.15-1.44c0.13-.59,13.71-58.85,58.73-78.09a1.18,1.18,0,0,1,1.22,2c-0.36.3-36.29,30.8-47.86,76.65A1.18,1.18,0,0,1,1762,1442.34Zm-8.28-2.36h7.37c9.06-34.82,31.84-60.79,42.6-71.54C1769,1387.87,1755.94,1431.5,1753.7,1440Z" transform="translate(-1691.75 -1096.63)"/><path class="cls-3" d="M1747.31,1441.16s-8-127,6.89-172.3c0,0,8.71,138.21.36,172.3h-7.25Z" transform="translate(-1691.75 -1096.63)"/><path class="cls-2" d="M1754.56,1442.34h-7.25a1.18,1.18,0,0,1-1.18-1.11c-0.08-1.27-7.82-127.71,6.95-172.74a1.18,1.18,0,0,1,2.3.29c0.36,5.65,8.62,138.77.33,172.66A1.18,1.18,0,0,1,1754.56,1442.34Zm-6.14-2.36h5.21c6.81-30.39,1.41-135.86-.19-164.08C1742,1322.61,1747.72,1428,1748.42,1440Z" transform="translate(-1691.75 -1096.63)"/><path class="cls-3" d="M1758.18,1441.16s7.51-25.27,34.35-36.4c0,0-22.49,19.35-25.15,36.4h-9.2Z" transform="translate(-1691.75 -1096.63)"/><path class="cls-2" d="M1767.38,1442.34h-9.2a1.18,1.18,0,0,1-1.13-1.52c0.08-.26,8-25.94,35-37.15a1.18,1.18,0,0,1,1.22,2c-0.22.19-22.19,19.26-24.75,35.68A1.18,1.18,0,0,1,1767.38,1442.34Zm-7.54-2.36h6.55c2.29-11.63,12.89-23.87,19.65-30.7A62.21,62.21,0,0,0,1759.84,1440Z" transform="translate(-1691.75 -1096.63)"/><path class="cls-3" d="M1752.18,1441.16s5.28-62.51,54.61-105.07c0,0-33.37,37.48-44.82,105.07h-9.79Z" transform="translate(-1691.75 -1096.63)"/><path class="cls-2" d="M1762,1442.34h-9.79a1.18,1.18,0,0,1-1.18-1.28c0.05-.63,5.89-63.48,55-105.87a1.18,1.18,0,0,1,1.65,1.68c-0.33.37-33.28,38-44.54,104.49A1.18,1.18,0,0,1,1762,1442.34Zm-8.48-2.36H1761a251,251,0,0,1,26.66-77.27c3.55-6.47,6.93-11.86,9.8-16.1C1761.71,1384.08,1754.51,1431.62,1753.5,1440Z" transform="translate(-1691.75 -1096.63)"/><path class="cls-3" d="M1754.56,1441.16s11.12-108.7,34.58-148.6c0,0-17.81,127.93-27.17,148.6h-7.42Z" transform="translate(-1691.75 -1096.63)"/><path class="cls-2" d="M1762,1442.34h-7.42a1.18,1.18,0,0,1-1.17-1.3c0-.27,2.85-27.59,8.51-59.43,7.61-42.82,16.43-73,26.23-89.66a1.18,1.18,0,0,1,2.18.76c-0.73,5.23-17.95,128.33-27.26,148.93A1.18,1.18,0,0,1,1762,1442.34Zm-6.1-2.36h5.33c8-19.31,22.08-114.79,25.83-141C1767.39,1339.43,1757.17,1428.17,1755.87,1440Z" transform="translate(-1691.75 -1096.63)"/><path class="cls-3" d="M1750.73,1441.16s6.25-112.33,18.58-140.38c0,0-4.51,119.71-8.79,140.38h-9.79Z" transform="translate(-1691.75 -1096.63)"/><path class="cls-2" d="M1760.53,1442.34h-9.79a1.18,1.18,0,0,1-1.18-1.25c0.26-4.59,6.4-112.87,18.68-140.79a1.18,1.18,0,0,1,2.26.52c-0.18,4.89-4.57,120-8.81,140.58A1.18,1.18,0,0,1,1760.53,1442.34ZM1752,1440h7.57c3.51-19.3,7.2-104.89,8.27-131.4C1758,1342.29,1752.66,1428.57,1752,1440Z" transform="translate(-1691.75 -1096.63)"/></svg>