<svg id="Layer_1" data-name="Layer 1" xmlns="http://www.w3.org/2000/svg" viewBox="0 0 648.98 707.19"><defs><style>.cls-1{fill:#666;}.cls-2{fill:#999;}.cls-3{fill:#e0f7fa;}.cls-4{fill:#fafafa;}.cls-5{fill:#ffb900;}.cls-6{fill:gray;}.cls-7{fill:#353535;}.cls-8{fill:#393939;}.cls-9{fill:#424242;}.cls-10{fill:#eee;}.cls-11{fill:#ef5350;}.cls-12{fill:#bdbdbd;}.cls-13{fill:#4dd0e1;}.cls-14{fill:#4e352e;}.cls-15{fill:#fbcbbd;}.cls-16{fill:#f8aa92;}.cls-17{fill:#ef9a9b;}.cls-18{fill:#f58967;}.cls-19{fill:#212121;}.cls-20{fill:#9ccc65;}.cls-21{fill:#e64a19;}.cls-22{fill:#f5f5f5;}.cls-23{fill:#616161;}</style></defs><title>3</title><path class="cls-1" d="M2056,503.77L1858.19,389.57c-9.45-5.45-23.73-6-31.91-1.32l-143,82.53-23.15-12.9v31h0c-0.05,3.65,2.59,7.51,7.81,10.53l370.75,214.05a36.85,36.85,0,0,0,17.24,4.49V503.77Z" transform="translate(-1660.18 -10.75)"/><path class="cls-1" d="M2214.33,595.19L2056,503.77V717.92c5.49,0.11,10.78-.92,14.67-3.17l160.57-92.71c3.76-2.17,5.57-5.08,5.52-8.13h0V582.83Z" transform="translate(-1660.18 -10.75)"/><path class="cls-2" d="M2228.94,572.68L1858.19,358.63c-9.45-5.45-23.73-6-31.91-1.32L1665.7,450c-8.18,4.72-7.15,13,2.29,18.43l370.75,214.05c9.45,5.45,23.73,6,31.92,1.32l160.57-92.71C2239.41,586.39,2238.39,578.14,2228.94,572.68Z" transform="translate(-1660.18 -10.75)"/><polygon class="cls-3" points="196.18 364.96 37.38 456.64 364.6 645.55 523.39 553.87 196.18 364.96"/><polygon class="cls-4" points="523.39 553.87 364.6 645.55 107.55 497.15 37.39 456.64 196.18 364.96 259.17 401.32 523.39 553.87"/><polygon class="cls-5" points="259.17 401.32 107.55 497.15 37.39 456.64 196.18 364.96 259.17 401.32"/><path class="cls-6" d="M2139.45,617.1c-7.58-4.38-19-4.85-25.62-1.06s-5.74,10.41,1.84,14.79,19,4.85,25.62,1.06S2147,621.47,2139.45,617.1Z" transform="translate(-1660.18 -10.75)"/><path class="cls-6" d="M1784.78,399.15a5.75,5.75,0,0,0-5.17-.21l-41.8,24.14c-1.33.77-1.16,2.1,0.37,3a5.75,5.75,0,0,0,5.17.21l41.8-24.14C1786.47,401.37,1786.31,400,1784.78,399.15Z" transform="translate(-1660.18 -10.75)"/><polygon class="cls-7" points="523.39 553.87 196.18 364.96 196.18 368.19 520.6 555.49 523.39 553.87"/><polygon class="cls-8" points="37.38 456.64 40.31 458.32 196.18 368.33 196.18 364.96 37.38 456.64"/><polygon class="cls-4" points="224.59 397.78 188.94 418.37 195.53 422.18 231.19 401.59 224.59 397.78"/><polygon class="cls-4" points="212.43 390.76 176.78 411.35 183.37 415.15 219.03 394.57 212.43 390.76"/><polygon class="cls-4" points="200.27 383.74 164.62 404.32 171.21 408.13 206.86 387.55 200.27 383.74"/><path class="cls-4" d="M1779.45,461.59c10.36,6,11.48,15,2.51,20.2s-24.64,4.53-35-1.45-11.48-15-2.51-20.2S1769.09,455.61,1779.45,461.59Z" transform="translate(-1660.18 -10.75)"/><path class="cls-9" d="M1764.31,465c4.22,2.44,5.07,5.9,1.89,7.74s-9.18,1.35-13.4-1.09-5.07-5.9-1.89-7.74S1760.09,462.52,1764.31,465Z" transform="translate(-1660.18 -10.75)"/><path class="cls-9" d="M1770.17,467.57c2.28,2.53,2.14,5.31-.75,7s-7.71,1.75-12.1.44c-1.52,2.25-1.37,4.37.79,5.61,3.6,2.08,11.39.94,17.4-2.53s8-8,4.38-10C1777.74,466.78,1774.06,466.69,1770.17,467.57Z" transform="translate(-1660.18 -10.75)"/><polygon class="cls-4" points="537.11 338.29 537.11 420.51 648.98 485.1 648.98 402.88 537.11 338.29"/><polygon class="cls-10" points="648.98 402.88 537.11 338.29 537.11 329.64 648.98 394.22 648.98 402.88"/><polygon class="cls-11" points="546.17 343.52 537.11 338.29 537.11 329.64 546.17 334.87 546.17 343.52"/><polygon class="cls-12" points="603.89 410.47 586.16 400.23 586.16 403.71 603.89 413.95 603.89 410.47"/><polygon class="cls-12" points="622.72 421.35 607.07 412.31 607.07 415.78 622.72 424.82 622.72 421.35"/><polygon class="cls-12" points="625.9 423.18 625.9 426.65 636.33 432.67 636.33 429.2 625.9 423.18"/><polygon class="cls-12" points="592.31 410.94 586.16 407.39 586.16 410.86 592.31 414.41 592.31 410.94"/><polygon class="cls-12" points="595.48 416.24 612.03 425.8 612.03 422.33 595.48 412.77 595.48 416.24"/><polygon class="cls-12" points="615.2 427.63 626.55 434.18 626.55 430.71 615.2 424.16 615.2 427.63"/><polygon class="cls-12" points="629.73 436.01 636.33 439.83 636.33 436.36 629.73 432.55 629.73 436.01"/><polygon class="cls-12" points="612.03 401.63 586.16 386.69 586.16 396.06 612.03 411 612.03 401.63"/><polygon class="cls-12" points="598.2 421.5 586.16 414.54 586.16 418.02 598.2 424.97 598.2 421.5"/><polygon class="cls-12" points="601.37 426.8 624.97 440.42 624.97 436.95 601.37 423.33 601.37 426.8"/><polygon class="cls-12" points="628.14 442.26 636.33 446.98 636.33 443.51 628.14 438.78 628.14 442.26"/><polygon class="cls-12" points="586.16 425.17 603.33 435.09 603.33 431.61 586.16 421.7 586.16 425.17"/><polygon class="cls-12" points="606.5 436.92 621.63 445.65 621.63 442.18 606.5 433.44 606.5 436.92"/><path class="cls-13" d="M2238.85,412.59c0,10.5-6.38,15.33-14.26,10.78s-14.26-16.74-14.26-27.24,6.38-15.32,14.26-10.78S2238.85,402.09,2238.85,412.59Z" transform="translate(-1660.18 -10.75)"/><path class="cls-14" d="M2224.59,392.07h0c-3.76-2.17-6.8.13-6.8,5.14v7c0,5,3,10.83,6.8,13h0c3.76,2.17,6.8-.13,6.8-5.14v-7C2231.4,400.06,2228.35,394.23,2224.59,392.07Z" transform="translate(-1660.18 -10.75)"/><polygon class="cls-15" points="565.89 403.86 562.93 402.15 562.93 396.99 565.89 398.7 565.89 403.86"/><path class="cls-16" d="M2223.11,410.76a8.39,8.39,0,0,0,1.48,1.11h0a5.44,5.44,0,0,0,1.48.6v-2.9l-3-1.71v2.9Z" transform="translate(-1660.18 -10.75)"/><path class="cls-15" d="M2229.13,404.23a3.25,3.25,0,0,0,1.36,2.59c0.75,0.43,1.36,0,1.36-1a3.25,3.25,0,0,0-1.36-2.59C2229.74,402.78,2229.13,403.24,2229.13,404.23Z" transform="translate(-1660.18 -10.75)"/><path class="cls-16" d="M2229.73,404.58a1.81,1.81,0,0,0,.76,1.45c0.42,0.24.76,0,.76-0.57a1.81,1.81,0,0,0-.76-1.45C2230.07,403.77,2229.73,404,2229.73,404.58Z" transform="translate(-1660.18 -10.75)"/><path class="cls-15" d="M2220.05,399c0,1-.61,1.46-1.36,1a3.25,3.25,0,0,1-1.36-2.59c0-1,.61-1.46,1.36-1A3.25,3.25,0,0,1,2220.05,399Z" transform="translate(-1660.18 -10.75)"/><path class="cls-16" d="M2219.46,398.65c0,0.56-.34.81-0.76,0.57a1.81,1.81,0,0,1-.76-1.45c0-.56.34-0.81,0.76-0.57A1.81,1.81,0,0,1,2219.46,398.65Z" transform="translate(-1660.18 -10.75)"/><path class="cls-15" d="M2224.59,393.42h0c-3.25-1.88-5.89.12-5.89,4.46v1.85c0,4.34,2.64,9.38,5.89,11.26h0c3.25,1.88,5.89-.12,5.89-4.46v-1.85C2230.49,400.34,2227.85,395.3,2224.59,393.42Z" transform="translate(-1660.18 -10.75)"/><path class="cls-17" d="M2227.63,405.18a1.16,1.16,0,0,0,.48.92c0.27,0.15.48,0,.48-0.37a1.16,1.16,0,0,0-.48-0.92C2227.84,404.66,2227.63,404.82,2227.63,405.18Z" transform="translate(-1660.18 -10.75)"/><path class="cls-18" d="M2225.22,404.35c0-.46-0.28-3.54-0.63-3.74s-0.63,2.55-.63,3a1.5,1.5,0,0,0,.63,1.2C2224.94,405,2225.22,404.81,2225.22,404.35Z" transform="translate(-1660.18 -10.75)"/><path class="cls-19" d="M2222.52,399.82c0,0.71-.43,1-1,0.73a2.3,2.3,0,0,1-1-1.84c0-.71.43-1,1-0.73A2.3,2.3,0,0,1,2222.52,399.82Z" transform="translate(-1660.18 -10.75)"/><path class="cls-19" d="M2228.59,403.33c0,0.71-.43,1-1,0.73a2.3,2.3,0,0,1-1-1.84c0-.71.43-1,1-0.73A2.3,2.3,0,0,1,2228.59,403.33Z" transform="translate(-1660.18 -10.75)"/><path class="cls-17" d="M2221.56,401.68c0,0.36-.22.52-0.48,0.37a1.16,1.16,0,0,1-.48-0.92c0-.36.22-0.52,0.48-0.37A1.16,1.16,0,0,1,2221.56,401.68Z" transform="translate(-1660.18 -10.75)"/><path class="cls-14" d="M2230.44,400.31v3.36c-3.89-2.24-5.85-8.35-5.85-8.35a4,4,0,0,1-5.85,1.6v-3.36a4,4,0,0,1,1.36-1.53,3.43,3.43,0,0,1,2.21-.52l4.55,2.63a15.46,15.46,0,0,1,2.21,3.07A18,18,0,0,1,2230.44,400.31Z" transform="translate(-1660.18 -10.75)"/><polygon class="cls-15" points="568.41 410.37 560.87 406.01 560.87 400.51 568.41 404.86 568.41 410.37"/><path class="cls-11" d="M2230.11,416.48v8.59a11.5,11.5,0,0,1-5.52-1.71,22.41,22.41,0,0,1-5.51-4.66v-8.59l3.05,1.76c1.36,2.6,3.56,3.87,4.92,2.84Z" transform="translate(-1660.18 -10.75)"/><polygon class="cls-14" points="569.6 402.04 570.31 402.45 570.31 391.36 569.6 390.95 569.6 402.04"/><polygon class="cls-14" points="559.23 396.05 558.52 395.64 558.52 384.56 559.23 384.96 559.23 396.05"/><path class="cls-11" d="M2222,415.65a6.94,6.94,0,0,0-2.9-5.54c-1.6-.92-2.9.06-2.9,2.19a6.94,6.94,0,0,0,2.9,5.54C2220.67,418.76,2222,417.78,2222,415.65Z" transform="translate(-1660.18 -10.75)"/><path class="cls-11" d="M2219.07,414v4.73a32.29,32.29,0,0,1-2.9-3.86V412.3Z" transform="translate(-1660.18 -10.75)"/><path class="cls-11" d="M2227.21,418.67c0-2.13,1.3-3.11,2.9-2.19A6.94,6.94,0,0,1,2233,422c0,2.13-1.3,3.11-2.9,2.19A6.94,6.94,0,0,1,2227.21,418.67Z" transform="translate(-1660.18 -10.75)"/><path class="cls-11" d="M2233,422v2.54a7.34,7.34,0,0,1-2.9.51v-4.73Z" transform="translate(-1660.18 -10.75)"/><polygon class="cls-4" points="537.11 229.66 537.11 311.88 648.98 376.47 648.98 294.25 537.11 229.66"/><polygon class="cls-10" points="648.98 294.25 537.11 229.66 537.11 221.01 648.98 285.6 648.98 294.25"/><polygon class="cls-11" points="546.17 234.9 537.11 229.66 537.11 221.01 546.17 226.25 546.17 234.9"/><path class="cls-13" d="M2238.85,304c0,10.5-6.38,15.33-14.26,10.78s-14.26-16.74-14.26-27.24,6.38-15.32,14.26-10.78S2238.85,293.46,2238.85,304Z" transform="translate(-1660.18 -10.75)"/><path class="cls-14" d="M2230.78,291.92a19,19,0,0,0-1.43-3.27,16.35,16.35,0,0,0-2.34-3.25,10.7,10.7,0,0,0-2.41-2,5.94,5.94,0,0,0-2.41-.83,3.62,3.62,0,0,0-2.34.55,4.25,4.25,0,0,0-1.43,1.62,8.47,8.47,0,0,0-.85,4v3.81a5.32,5.32,0,0,0,.11,1,5.9,5.9,0,0,0,2.42,3.81l9,5.2a1.5,1.5,0,0,0,2.42-1,3.65,3.65,0,0,0,.11-0.91v-3.81A16,16,0,0,0,2230.78,291.92Z" transform="translate(-1660.18 -10.75)"/><polygon class="cls-15" points="568.38 304.15 560.41 299.54 560.41 293.72 568.38 298.32 568.38 304.15"/><path class="cls-11" d="M2230.43,310v6.49a8.63,8.63,0,0,1-1.81-.15,12.76,12.76,0,0,1-4-1.56,20.75,20.75,0,0,1-4-3.09q-0.93-.9-1.81-1.94v-6.49l3.11,1.79a0.59,0.59,0,0,1,.21.24l0.05,0.1,2.46,4.7,2.46-1.86,0.05,0a0.18,0.18,0,0,1,.21,0Z" transform="translate(-1660.18 -10.75)"/><polygon class="cls-15" points="565.98 297.68 562.85 295.87 562.85 289.96 565.98 291.77 565.98 297.68"/><path class="cls-16" d="M2223,303.91a8.87,8.87,0,0,0,1.57,1.17h0a5.75,5.75,0,0,0,1.57.64v-3.07l-3.13-1.81v3.07Z" transform="translate(-1660.18 -10.75)"/><path class="cls-15" d="M2229.39,297a3.43,3.43,0,0,0,1.43,2.74c0.79,0.46,1.43,0,1.43-1.08a3.43,3.43,0,0,0-1.43-2.74C2230,295.47,2229.39,296,2229.39,297Z" transform="translate(-1660.18 -10.75)"/><path class="cls-16" d="M2230,297.37a1.92,1.92,0,0,0,.8,1.53c0.44,0.26.8,0,.8-0.6a1.92,1.92,0,0,0-.8-1.53C2230.38,296.51,2230,296.78,2230,297.37Z" transform="translate(-1660.18 -10.75)"/><path class="cls-15" d="M2219.79,291.46c0,1.06-.64,1.54-1.43,1.08a3.43,3.43,0,0,1-1.43-2.74c0-1.06.64-1.54,1.43-1.08A3.43,3.43,0,0,1,2219.79,291.46Z" transform="translate(-1660.18 -10.75)"/><path class="cls-16" d="M2219.16,291.1c0,0.59-.36.86-0.8,0.6a1.92,1.92,0,0,1-.8-1.53c0-.59.36-0.86,0.8-0.6A1.92,1.92,0,0,1,2219.16,291.1Z" transform="translate(-1660.18 -10.75)"/><path class="cls-15" d="M2224.59,285.57h0c-3.44-2-6.23.12-6.23,4.71v2c0,4.59,2.79,9.92,6.23,11.91h0c3.44,2,6.23-.12,6.23-4.71v-2C2230.82,292.89,2228,287.56,2224.59,285.57Z" transform="translate(-1660.18 -10.75)"/><path class="cls-18" d="M2225.26,297.13c0-.49-0.3-3.75-0.66-4s-0.66,2.7-.66,3.19a1.59,1.59,0,0,0,.66,1.27C2225,297.84,2225.26,297.62,2225.26,297.13Z" transform="translate(-1660.18 -10.75)"/><path class="cls-19" d="M2222.4,292.34c0,0.75-.46,1.09-1,0.77a2.44,2.44,0,0,1-1-1.94c0-.75.46-1.09,1-0.77A2.44,2.44,0,0,1,2222.4,292.34Z" transform="translate(-1660.18 -10.75)"/><path class="cls-19" d="M2228.82,296c0,0.75-.46,1.09-1,0.77a2.44,2.44,0,0,1-1-1.94c0-.75.46-1.09,1-0.77A2.44,2.44,0,0,1,2228.82,296Z" transform="translate(-1660.18 -10.75)"/><path class="cls-14" d="M2218.76,292.15h0a1,1,0,0,1-.4-0.76v-3.2l0.8,0.46v3.2C2219.16,292.15,2219,292.28,2218.76,292.15Z" transform="translate(-1660.18 -10.75)"/><path class="cls-14" d="M2230.42,298.89h0c0.22,0.13.4,0,.4-0.3v-3.2l-0.8-.46v3.2A1,1,0,0,0,2230.42,298.89Z" transform="translate(-1660.18 -10.75)"/><path class="cls-11" d="M2233.49,315.81l-0.08,0a7.22,7.22,0,0,1-3,.68,8.63,8.63,0,0,1-1.81-.15,8.22,8.22,0,0,1-.89-1.89,7,7,0,0,1-.36-2.13,2.59,2.59,0,0,1,1.2-2.55,2,2,0,0,1,1.87.23,7.33,7.33,0,0,1,3.06,5.76S2233.49,315.79,2233.49,315.81Z" transform="translate(-1660.18 -10.75)"/><path class="cls-11" d="M2233.4,315.77a7.22,7.22,0,0,1-3,.68V314Z" transform="translate(-1660.18 -10.75)"/><path class="cls-14" d="M2219.16,288.65s3,1.18,3-1.41c0,0,.16,3.26,7.83,7.69l0.8,0.46-1.43-4.69-2.85-4.9-3.89-2-2.56.68-1.72,1.43v2.24Z" transform="translate(-1660.18 -10.75)"/><path class="cls-11" d="M2221.82,309.08a3.73,3.73,0,0,1-.36,1.72,1.75,1.75,0,0,1-.89.86q-0.93-.9-1.81-1.94a33,33,0,0,1-3-4.12l-0.08,0s0-.06,0-0.09c0-2.2,1.39-3.19,3.06-2.23a5.61,5.61,0,0,1,1.83,1.86A7.73,7.73,0,0,1,2221.82,309.08Z" transform="translate(-1660.18 -10.75)"/><path class="cls-11" d="M2218.76,307.31v2.4a33,33,0,0,1-3-4.12Z" transform="translate(-1660.18 -10.75)"/><polygon class="cls-12" points="597.57 298.27 586.16 291.68 586.16 295.17 597.57 301.76 597.57 298.27"/><polygon class="cls-12" points="600.76 303.6 616.99 312.97 616.99 309.48 600.76 300.11 600.76 303.6"/><polygon class="cls-12" points="620.18 311.32 620.18 314.81 636.6 324.29 636.6 320.8 620.18 311.32"/><polygon class="cls-12" points="603.48 308.87 586.16 298.87 586.16 302.36 603.48 312.36 603.48 308.87"/><polygon class="cls-12" points="606.67 314.2 618.1 320.81 618.1 317.32 606.67 310.71 606.67 314.2"/><polygon class="cls-12" points="621.29 322.65 636.6 331.49 636.6 328 621.29 319.16 621.29 322.65"/><polygon class="cls-12" points="621.82 298.66 586.16 278.07 586.16 287.49 621.82 308.08 621.82 298.66"/><polygon class="cls-12" points="593.79 310.48 586.16 306.07 586.16 309.56 593.79 313.97 593.79 310.48"/><polygon class="cls-12" points="596.99 315.81 626.77 333.01 626.77 329.52 596.99 312.32 596.99 315.81"/><polygon class="cls-12" points="629.97 334.86 636.6 338.69 636.6 335.19 629.97 331.37 629.97 334.86"/><polygon class="cls-12" points="586.16 316.76 613.8 332.71 613.8 329.22 586.16 313.27 586.16 316.76"/><polygon class="cls-12" points="616.99 334.56 621.82 337.35 621.82 333.86 616.99 331.07 616.99 334.56"/><polygon class="cls-4" points="537.11 443.04 537.11 525.26 648.98 589.85 648.98 507.63 537.11 443.04"/><polygon class="cls-10" points="648.98 507.63 537.11 443.04 537.11 434.39 648.98 498.98 648.98 507.63"/><polygon class="cls-11" points="546.17 448.27 537.11 443.04 537.11 434.39 546.17 439.62 546.17 448.27"/><polygon class="cls-12" points="603.89 515.23 586.16 504.99 586.16 508.46 603.89 518.7 603.89 515.23"/><polygon class="cls-12" points="622.72 526.1 607.07 517.06 607.07 520.53 622.72 529.57 622.72 526.1"/><polygon class="cls-12" points="625.9 527.93 625.9 531.4 636.33 537.42 636.33 533.95 625.9 527.93"/><polygon class="cls-12" points="592.31 515.69 586.16 512.14 586.16 515.61 592.31 519.16 592.31 515.69"/><polygon class="cls-12" points="595.48 521 612.03 530.55 612.03 527.08 595.48 517.53 595.48 521"/><polygon class="cls-12" points="615.2 532.38 626.55 538.93 626.55 535.47 615.2 528.91 615.2 532.38"/><polygon class="cls-12" points="629.73 540.77 636.33 544.58 636.33 541.11 629.73 537.3 629.73 540.77"/><polygon class="cls-12" points="612.03 506.38 586.16 491.44 586.16 500.81 612.03 515.75 612.03 506.38"/><polygon class="cls-12" points="598.2 526.25 586.16 519.3 586.16 522.77 598.2 529.72 598.2 526.25"/><polygon class="cls-12" points="601.37 531.55 624.97 545.18 624.97 541.7 601.37 528.08 601.37 531.55"/><polygon class="cls-12" points="628.14 547.01 636.33 551.74 636.33 548.26 628.14 543.53 628.14 547.01"/><polygon class="cls-12" points="586.16 529.92 603.33 539.84 603.33 536.37 586.16 526.45 586.16 529.92"/><polygon class="cls-12" points="606.5 541.67 621.63 550.41 621.63 546.93 606.5 538.2 606.5 541.67"/><path class="cls-13" d="M2238.85,517.34c0,10.5-6.38,15.32-14.26,10.78s-14.26-16.74-14.26-27.24,6.38-15.33,14.26-10.78S2238.85,506.84,2238.85,517.34Z" transform="translate(-1660.18 -10.75)"/><path class="cls-14" d="M2224.59,496.82h0c-3.88-2.24-7,.14-7,5.31v17.15h0a2,2,0,0,0,.85,1.62l12.34,7.13c0.47,0.27.85,0,.85-0.64h0V510.23C2231.61,505.06,2228.47,499.05,2224.59,496.82Z" transform="translate(-1660.18 -10.75)"/><path class="cls-15" d="M2221.72,521.6a4.71,4.71,0,0,1,0,.52,4,4,0,0,1-.11.6,1.81,1.81,0,0,1-1.76,1.56q-0.6-.63-1.17-1.31a33.3,33.3,0,0,1-3-4.25,6,6,0,0,1,0-.66c0-1.75.82-2.76,2-2.68a2.53,2.53,0,0,1,1.09.36,5.1,5.1,0,0,1,1.43,1.3A7.82,7.82,0,0,1,2221.72,521.6Z" transform="translate(-1660.18 -10.75)"/><path class="cls-15" d="M2218.66,519.83V523a33.3,33.3,0,0,1-3-4.25l0-.06v-0.6Z" transform="translate(-1660.18 -10.75)"/><path class="cls-15" d="M2233.61,528.47a5.09,5.09,0,0,1,0,.59,7.18,7.18,0,0,1-3,.77,7.71,7.71,0,0,1-1.18,0,8,8,0,0,1-1.75-3.58,6.68,6.68,0,0,1-.11-0.75c0-.18,0-0.35,0-0.52,0-1.55.65-2.53,1.61-2.67a2.29,2.29,0,0,1,1.46.35,4.65,4.65,0,0,1,1.06.86A7.8,7.8,0,0,1,2233.61,528.47Z" transform="translate(-1660.18 -10.75)"/><path class="cls-15" d="M2233.61,528.47V529l0,0a7.18,7.18,0,0,1-3,.77V526.7Z" transform="translate(-1660.18 -10.75)"/><path class="cls-9" d="M2225.05,524.08c0,0.33-.2.48-0.45,0.34a1.07,1.07,0,0,1-.45-0.86c0-.33.2-0.48,0.45-0.34A1.07,1.07,0,0,1,2225.05,524.08Z" transform="translate(-1660.18 -10.75)"/><path class="cls-20" d="M2230.55,522.61v7.21a7.71,7.71,0,0,1-1.18,0,12.11,12.11,0,0,1-4.77-1.66,21.56,21.56,0,0,1-4.76-3.84q-0.6-.63-1.17-1.31v-7.23Z" transform="translate(-1660.18 -10.75)"/><polygon class="cls-15" points="565.94 510.14 562.88 508.37 562.88 503.55 565.94 505.32 565.94 510.14"/><path class="cls-16" d="M2223.06,517.43a8.67,8.67,0,0,0,1.53,1.14h0a5.62,5.62,0,0,0,1.53.62v-3l-3.06-1.77v3Z" transform="translate(-1660.18 -10.75)"/><path class="cls-15" d="M2229.28,510.68a3.35,3.35,0,0,0,1.4,2.68c0.77,0.45,1.4,0,1.4-1.06a3.35,3.35,0,0,0-1.4-2.68C2229.91,509.18,2229.28,509.65,2229.28,510.68Z" transform="translate(-1660.18 -10.75)"/><path class="cls-16" d="M2229.9,511a1.87,1.87,0,0,0,.78,1.49c0.43,0.25.78,0,.78-0.59a1.87,1.87,0,0,0-.78-1.49C2230.25,510.2,2229.9,510.46,2229.9,511Z" transform="translate(-1660.18 -10.75)"/><path class="cls-15" d="M2219.9,505.27c0,1-.63,1.5-1.4,1.06a3.35,3.35,0,0,1-1.4-2.68c0-1,.63-1.5,1.4-1.06A3.35,3.35,0,0,1,2219.9,505.27Z" transform="translate(-1660.18 -10.75)"/><path class="cls-16" d="M2219.28,504.91c0,0.58-.35.84-0.78,0.59a1.87,1.87,0,0,1-.78-1.49c0-.58.35-0.84,0.78-0.59A1.87,1.87,0,0,1,2219.28,504.91Z" transform="translate(-1660.18 -10.75)"/><path class="cls-15" d="M2224.59,498.29h0c-3.36-1.94-6.09.12-6.09,4.6V506c0,4.48,2.73,9.69,6.09,11.63h0c3.36,1.94,6.09-.12,6.09-4.6v-3.13C2230.68,505.44,2228,500.23,2224.59,498.29Z" transform="translate(-1660.18 -10.75)"/><path class="cls-19" d="M2222.51,506.34c0,0.58-.35.84-0.78,0.59a1.87,1.87,0,0,1-.78-1.49c0-.58.35-0.84,0.78-0.59A1.87,1.87,0,0,1,2222.51,506.34Z" transform="translate(-1660.18 -10.75)"/><path class="cls-19" d="M2228.24,509.65c0,0.58-.35.84-0.78,0.59a1.87,1.87,0,0,1-.78-1.49c0-.58.35-0.84,0.78-0.59A1.87,1.87,0,0,1,2228.24,509.65Z" transform="translate(-1660.18 -10.75)"/><path class="cls-18" d="M2225.52,510.67c0,0.68-.42.92-0.93,0.62a2.07,2.07,0,0,1-.93-1.69,13.9,13.9,0,0,1,.68-2.59c0.08-.25.4-0.07,0.49,0.28A29.26,29.26,0,0,1,2225.52,510.67Z" transform="translate(-1660.18 -10.75)"/><path class="cls-14" d="M2222.36,503.76l-1.27-.73c-0.22-.13-0.4-0.06-0.4.15a0.82,0.82,0,0,0,.4.61l1.27,0.73c0.22,0.13.4,0.06,0.4-.15A0.82,0.82,0,0,0,2222.36,503.76Z" transform="translate(-1660.18 -10.75)"/><path class="cls-14" d="M2228.09,507.07l-1.27-.73c-0.22-.13-0.4-0.06-0.4.15a0.82,0.82,0,0,0,.4.61l1.27,0.73c0.22,0.13.4,0.06,0.4-.15A0.82,0.82,0,0,0,2228.09,507.07Z" transform="translate(-1660.18 -10.75)"/><path class="cls-14" d="M2219.82,501.38v1c-0.67-.39-1.23,0-1.31.8h0a1,1,0,0,1-.43-0.74l-0.26-2.24Z" transform="translate(-1660.18 -10.75)"/><path class="cls-14" d="M2224.59,496.82h0c-3-1.76-5.63-.67-6.6,2.38l0.52,2.47,5.5,3.18,0.59-2.77,0.59,3.45,6.39,3.69C2231.2,504.29,2228.21,498.91,2224.59,496.82Z" transform="translate(-1660.18 -10.75)"/><path class="cls-14" d="M2229.37,506.89v1a3.13,3.13,0,0,1,1.31,2.3h0a0.27,0.27,0,0,0,.43-0.24l0.26-1.94Z" transform="translate(-1660.18 -10.75)"/><path class="cls-21" d="M2231.65,513.68c0,0.32-.19.47-0.44,0.33a1,1,0,0,1-.44-0.83c0-.32.2-0.47,0.44-0.33A1,1,0,0,1,2231.65,513.68Z" transform="translate(-1660.18 -10.75)"/><path class="cls-21" d="M2217.53,505.52a1,1,0,0,0,.44.83c0.24,0.14.44,0,.44-0.33a1,1,0,0,0-.44-0.83C2217.73,505.05,2217.53,505.2,2217.53,505.52Z" transform="translate(-1660.18 -10.75)"/><path class="cls-17" d="M2221.66,508.12c0,0.39-.24.57-0.53,0.4a1.26,1.26,0,0,1-.53-1c0-.39.24-0.57,0.53-0.4A1.26,1.26,0,0,1,2221.66,508.12Z" transform="translate(-1660.18 -10.75)"/><path class="cls-17" d="M2227.52,511.5a1.26,1.26,0,0,0,.53,1c0.29,0.17.53,0,.53-0.4a1.26,1.26,0,0,0-.53-1C2227.76,510.94,2227.52,511.11,2227.52,511.5Z" transform="translate(-1660.18 -10.75)"/><path class="cls-15" d="M2224.59,525.19c2.49,1.44,4.52-.09,4.52-3.41l-9-5.21C2220.08,519.89,2222.1,523.75,2224.59,525.19Z" transform="translate(-1660.18 -10.75)"/><polygon class="cls-4" points="153.07 29.01 153.07 304.66 528.12 521.19 528.12 245.54 153.07 29.01"/><polygon class="cls-10" points="528.12 245.54 153.07 29.01 153.07 0 528.12 216.53 528.12 245.54"/><polygon class="cls-11" points="183.47 46.56 153.07 29.01 153.07 0 183.47 17.55 183.47 46.56"/><path class="cls-13" d="M1952.59,252.81c0,35.2-21.4,51.38-47.8,36.14s-47.8-56.13-47.8-91.33,21.4-51.38,47.8-36.14S1952.59,217.62,1952.59,252.81Z" transform="translate(-1660.18 -10.75)"/><path class="cls-9" d="M1906,286.65c0,1.16-.7,1.69-1.57,1.19a3.76,3.76,0,0,1-1.57-3c0-1.16.7-1.69,1.57-1.19A3.76,3.76,0,0,1,1906,286.65Z" transform="translate(-1660.18 -10.75)"/><path class="cls-10" d="M1895.46,280.11a18.67,18.67,0,0,1-.12,2.14,89,89,0,0,1-11.76-12.15,112.78,112.78,0,0,1-8.78-12.57c2.17-1.92,5.3-2.11,8.78-.11,4,2.31,7.55,7,9.7,12.3a28.28,28.28,0,0,1,2.16,9.86C1895.46,279.76,1895.46,279.94,1895.46,280.11Z" transform="translate(-1660.18 -10.75)"/><path class="cls-10" d="M1925.25,281.49v13.16a31.57,31.57,0,0,1-11.73-1.71,45.35,45.35,0,0,1-6.56-2.79c-0.66-.33-1.31-0.7-2-1.07l-0.19-.11-1-.59c-0.67-.4-1.34-0.82-2-1.26a67.61,67.61,0,0,1-6.46-4.85,89,89,0,0,1-11.76-12.15V257.43Z" transform="translate(-1660.18 -10.75)"/><path class="cls-10" d="M1934.34,292.38a24.16,24.16,0,0,1-9.09,2.26,31.57,31.57,0,0,1-11.73-1.71,21.86,21.86,0,0,1-.14-2.47c0-.17,0-0.35,0-0.51a12.5,12.5,0,0,1,2.16-7.35c2.14-2.83,5.69-3.43,9.7-1.12C1928.9,283.59,1932.16,287.67,1934.34,292.38Z" transform="translate(-1660.18 -10.75)"/><polygon class="cls-15" points="249.5 271.09 238.97 265.01 238.97 240.82 249.5 246.9 249.5 271.09"/><path class="cls-16" d="M1899.15,262.33a29.83,29.83,0,0,0,5.27,3.93h0a19.35,19.35,0,0,0,5.27,2.15V258.1L1899.15,252v10.31Z" transform="translate(-1660.18 -10.75)"/><path class="cls-15" d="M1920.55,239.12c0,3.55,2.16,7.67,4.82,9.21s4.82-.09,4.82-3.64-2.16-7.67-4.82-9.21S1920.55,235.58,1920.55,239.12Z" transform="translate(-1660.18 -10.75)"/><path class="cls-16" d="M1922.68,240.35a6.44,6.44,0,0,0,2.69,5.14c1.49,0.86,2.69-.05,2.69-2a6.44,6.44,0,0,0-2.69-5.14C1923.89,237.46,1922.68,238.37,1922.68,240.35Z" transform="translate(-1660.18 -10.75)"/><path class="cls-15" d="M1888.28,220.49c0,3.55-2.16,5.18-4.82,3.64s-4.82-5.66-4.82-9.21,2.16-5.18,4.82-3.64S1888.28,216.94,1888.28,220.49Z" transform="translate(-1660.18 -10.75)"/><path class="cls-16" d="M1886.15,219.26c0,2-1.2,2.89-2.69,2a6.44,6.44,0,0,1-2.69-5.14c0-2,1.2-2.89,2.69-2A6.44,6.44,0,0,1,1886.15,219.26Z" transform="translate(-1660.18 -10.75)"/><path class="cls-15" d="M1904.42,196.49h0c-11.57-6.68-21,.41-21,15.84v10.76c0,15.43,9.38,33.35,21,40h0c11.57,6.68,21-.41,21-15.84V236.53C1925.37,221.1,1916,203.17,1904.42,196.49Z" transform="translate(-1660.18 -10.75)"/><path class="cls-19" d="M1897.25,224.18c0,2-1.2,2.89-2.69,2a6.44,6.44,0,0,1-2.69-5.14c0-2,1.2-2.89,2.69-2A6.44,6.44,0,0,1,1897.25,224.18Z" transform="translate(-1660.18 -10.75)"/><path class="cls-19" d="M1917,235.56c0,2-1.2,2.89-2.69,2a6.44,6.44,0,0,1-2.69-5.14c0-2,1.2-2.89,2.69-2A6.44,6.44,0,0,1,1917,235.56Z" transform="translate(-1660.18 -10.75)"/><path class="cls-14" d="M1896.75,214.66l-4.37-2.52c-0.77-.44-1.39,0-1.39,1a3.32,3.32,0,0,0,1.39,2.65l4.37,2.52c0.77,0.44,1.39,0,1.39-1A3.32,3.32,0,0,0,1896.75,214.66Z" transform="translate(-1660.18 -10.75)"/><path class="cls-14" d="M1916.46,226l-4.37-2.52c-0.77-.44-1.39,0-1.39,1a3.32,3.32,0,0,0,1.39,2.65l4.37,2.52c0.77,0.44,1.39,0,1.39-1A3.32,3.32,0,0,0,1916.46,226Z" transform="translate(-1660.18 -10.75)"/><path class="cls-14" d="M1908,185.84c-8.28-4.78-15.28-1.49-17.55,7.26l0,0.13a8.81,8.81,0,0,0-1.81-1.42c-3.24-1.87-5.87,0-6,4.24h0v31.54a5.73,5.73,0,0,0,2.39,4.57l0.8,0.46c1.32,0.76,2.4,0,2.4-1.81a5.74,5.74,0,0,0-2.4-4.58V205.8c2.66,0.34,4.8-1.09,5.91-3.85,0,0,10.39,14.56,31.45,27.12V247.8c-1.32-.76-2.4,0-2.4,1.81a5.74,5.74,0,0,0,2.4,4.58l0.8,0.46c1.32,0.76,2.39,0,2.39-1.81v-32C1926.29,207.37,1918.08,191.69,1908,185.84Z" transform="translate(-1660.18 -10.75)"/><path class="cls-12" d="M1907,280.26v9.88c-0.66-.33-1.31-0.7-2-1.07l-0.19-.11-1-.59c-0.67-.4-1.34-0.82-2-1.26v-9.82Z" transform="translate(-1660.18 -10.75)"/><path class="cls-22" d="M1893.28,262.32V279.8l11.09-1.1L1899,263.55h0A21.88,21.88,0,0,0,1893.28,262.32Z" transform="translate(-1660.18 -10.75)"/><path class="cls-22" d="M1915.55,275.17v17.48l-11.09-13.91,5.36-9h0A52.9,52.9,0,0,1,1915.55,275.17Z" transform="translate(-1660.18 -10.75)"/><path class="cls-23" d="M1904.38,280.72c-0.57-.33-1,0-1,0.79a2.49,2.49,0,0,0,1,2c0.57,0.33,1,0,1-.79A2.49,2.49,0,0,0,1904.38,280.72Z" transform="translate(-1660.18 -10.75)"/><path class="cls-23" d="M1905,289.06l-0.19-.11-1-.59a0.69,0.69,0,0,1,.58.09A1.89,1.89,0,0,1,1905,289.06Z" transform="translate(-1660.18 -10.75)"/><path class="cls-18" d="M1906.56,239.2c0-1.55-.94-11.88-2.11-12.55s-2.11,8.56-2.11,10.12a5,5,0,0,0,2.11,4C1905.62,241.47,1906.56,240.75,1906.56,239.2Z" transform="translate(-1660.18 -10.75)"/><polygon class="cls-12" points="355.78 259.01 317.51 236.92 317.51 248.62 355.78 270.71 355.78 259.01"/><polygon class="cls-12" points="366.46 276.88 420.88 308.3 420.88 296.6 366.46 265.18 366.46 276.88"/><polygon class="cls-12" points="431.57 302.77 431.57 314.47 486.61 346.25 486.61 334.55 431.57 302.77"/><polygon class="cls-12" points="375.57 294.55 317.51 261.04 317.51 272.74 375.57 306.25 375.57 294.55"/><polygon class="cls-12" points="386.27 312.44 424.61 334.57 424.61 322.87 386.27 300.73 386.27 312.44"/><polygon class="cls-12" points="435.31 340.75 486.61 370.37 486.61 358.67 435.31 329.05 435.31 340.75"/><polygon class="cls-12" points="437.08 260.31 317.51 191.28 317.51 222.86 437.08 291.89 437.08 260.31"/><polygon class="cls-12" points="343.11 299.95 317.51 285.17 317.51 296.87 343.11 311.65 343.11 299.95"/><polygon class="cls-12" points="353.81 317.83 453.68 375.49 453.68 363.79 353.81 306.13 353.81 317.83"/><polygon class="cls-12" points="464.38 381.67 486.61 394.5 486.61 382.8 464.38 369.97 464.38 381.67"/><polygon class="cls-12" points="317.51 320.99 410.18 374.49 410.18 362.79 317.51 309.29 317.51 320.99"/><polygon class="cls-12" points="420.88 380.67 437.08 390.02 437.08 378.32 420.88 368.97 420.88 380.67"/></svg>